<svg width="24" height="22" viewBox="0 0 24 22" fill="none" xmlns="http://www.w3.org/2000/svg">
<path d="M20.916 22H2.81869C1.538 22 0.5 20.9955 0.5 19.7562V2.24375C0.5 1.00445 1.538 0 2.81869 0H20.916C22.1967 0 23.2347 1.00445 23.2347 2.24375V19.7562C23.2347 20.9955 22.1967 22 20.916 22Z" fill="#0480C9"/>
<path d="M12.2202 12.5404C12.3701 12.5396 12.5231 12.5576 12.6708 12.5366C13.3014 12.4461 13.6616 12.7191 13.9205 13.2689C14.3302 14.1379 14.8086 14.9756 15.2515 15.8297C15.4941 16.2972 15.3001 16.7669 14.831 16.8746C14.4979 16.9516 14.2034 16.8065 14.011 16.4475C13.6137 15.7063 13.2149 14.9659 12.84 14.2142C12.7164 13.9659 12.5811 13.853 12.2774 13.8635C11.5516 13.8881 10.8251 13.8739 10.0986 13.8672C9.39909 13.8612 8.98327 13.4596 8.97863 12.7782C8.97168 11.7364 8.97245 10.6945 8.97709 9.65268C8.98018 9.01022 9.40991 8.5667 10.0244 8.55698C10.6264 8.54725 11.0569 8.99825 11.0655 9.65343C11.0701 9.99223 11.0832 10.3333 11.0593 10.6706C11.0369 10.9825 11.1095 11.1283 11.4782 11.0954C11.8878 11.0588 12.3036 11.0834 12.7171 11.0887C13.1129 11.0939 13.3215 11.2697 13.3223 11.5823C13.3231 11.886 13.092 12.0894 12.7249 12.0946C12.3245 12.1006 11.9226 12.0797 11.523 12.1051C11.3592 12.1156 11.0523 11.9346 11.0655 12.325C11.0786 12.7042 11.3754 12.506 11.5431 12.5314C11.7657 12.5658 11.9952 12.5411 12.2202 12.5404Z" fill="white"/>
<path d="M8.28842 11.0991C8.38426 11.4028 8.19954 11.5928 7.89115 11.788C6.9544 12.3803 6.53549 13.482 6.81528 14.4849C7.11439 15.556 8.06814 16.3173 9.20275 16.3906C10.2717 16.4595 11.3097 15.8147 11.7487 14.8051C11.809 14.6674 11.8522 14.5448 12.0509 14.541C12.2487 14.5373 12.2851 14.6734 12.3739 14.7901C12.6661 15.1723 12.636 15.5021 12.3423 15.894C11.4109 17.1363 9.74687 17.701 8.24746 17.2373C6.72021 16.7653 5.64512 15.372 5.68917 13.8373C5.73014 12.4297 6.40487 11.3699 7.70797 10.7087C8.28687 10.4148 8.28919 10.4193 8.28842 11.0991Z" fill="white"/>
<path d="M14.2955 6.94141C14.2955 6.21518 14.2939 5.48896 14.297 4.76348C14.2978 4.65278 14.2498 4.49497 14.4531 4.50021C15.3018 4.5204 16.1597 4.40522 16.9983 4.575C17.9489 4.76722 18.3593 5.36331 18.2782 6.32737C18.214 7.09249 17.6166 7.5921 16.6721 7.65567C16.3606 7.67662 16.0461 7.67662 15.7346 7.66166C15.5097 7.65119 15.4223 7.71476 15.4324 7.94362C15.4494 8.34226 15.4308 8.7424 15.4393 9.14104C15.4432 9.31755 15.4007 9.39383 15.1928 9.40356C14.2931 9.44544 14.2931 9.45292 14.2939 8.57486C14.2939 8.03038 14.2939 7.4859 14.2939 6.94141C14.2947 6.94141 14.2955 6.94141 14.2955 6.94141ZM15.4378 6.07383C15.4378 6.25482 15.4386 6.43582 15.4378 6.61607C15.437 6.72152 15.4548 6.81277 15.5947 6.80978C15.9178 6.8038 16.2478 6.85465 16.5624 6.77089C16.8947 6.68263 17.0841 6.45975 17.0895 6.10973C17.0964 5.66621 16.8305 5.42389 16.2632 5.36555C15.437 5.28103 15.437 5.28103 15.4378 6.07383Z" fill="white"/>
<path d="M11.2093 6.94595C11.2116 7.57569 10.6667 8.10148 10.0159 8.09625C9.38677 8.09101 8.84497 7.5727 8.8326 6.96465C8.82024 6.34612 9.36899 5.80313 10.0159 5.79341C10.6613 5.78368 11.2069 6.31097 11.2093 6.94595Z" fill="white"/>
<path d="M19.2164 20.6919H4.5183C3.04825 20.6919 1.85181 19.5341 1.85181 18.1116V3.88842C1.85181 2.46588 3.04825 1.30811 4.5183 1.30811H19.2172C20.6873 1.30811 21.8837 2.46588 21.8837 3.88842V18.1123C21.8829 19.5349 20.6873 20.6919 19.2164 20.6919ZM4.5183 1.98123C3.4316 1.98123 2.54741 2.83685 2.54741 3.88842V18.1123C2.54741 19.1639 3.4316 20.0195 4.5183 20.0195H19.2172C20.3039 20.0195 21.1881 19.1639 21.1881 18.1123V3.88842C21.1881 2.83685 20.3039 1.98123 19.2172 1.98123H4.5183Z" fill="white"/>
</svg>
