<svg width="87" height="107" viewBox="0 0 87 107" fill="none" xmlns="http://www.w3.org/2000/svg">
<rect x="0.505005" width="86" height="86" rx="43" fill="#0069B4"/>
<path d="M71.785 44.3835C71.7551 42.7788 70.4128 41.519 68.7331 41.519C67.2108 41.519 66.1985 42.3664 65.7261 44.0311C64.4738 43.3112 63.5289 42.2989 62.854 40.9566C63.4089 40.6341 63.9638 40.3192 64.5113 39.9968C65.3361 39.5168 66.161 39.0444 66.9858 38.557C69.3854 37.1547 70.0228 34.8001 68.6431 32.4005C66.8959 29.3635 65.0437 26.1691 63.1465 22.9071C62.2241 21.3324 60.9568 20.5 59.4871 20.5C58.6847 20.5 57.8449 20.7475 56.99 21.2424C51.1635 24.5943 45.337 27.9463 39.5179 31.3057C37.9057 32.2355 37.3283 33.7803 38.0482 35.25C38.5356 36.2399 39.4429 36.8023 40.5378 36.8023C40.9952 36.8023 41.4826 36.7048 41.985 36.5098C42.195 36.4273 42.3749 36.3899 42.5174 36.3899C42.6074 36.3899 42.7049 36.4049 42.8099 36.4648C41.2501 38.3395 41.0327 40.3642 42.18 42.3589C43.1323 44.0161 44.5721 44.8484 46.4543 44.8484C46.8667 44.8484 47.3016 44.8035 47.7515 44.721C48.5539 45.7408 49.2888 46.3707 50.0612 46.6706C49.6262 46.5732 49.1838 46.5132 48.7114 46.5132C47.9765 46.5057 47.2491 46.4982 46.5143 46.4982C46.0268 46.4982 45.5394 46.4982 45.0595 46.4982C44.6621 46.4982 44.2646 46.4982 43.8747 46.4982C44.0772 46.3032 44.1821 46.0557 44.2646 45.8533C44.2946 45.7858 44.3246 45.7108 44.3621 45.6433C44.4521 45.4708 44.4521 45.2684 44.3621 45.0959C44.2646 44.9234 44.0922 44.8184 43.8972 44.8035C43.8222 44.796 43.7472 44.7885 43.6722 44.781C43.5373 44.766 43.3873 44.7435 43.2298 44.7435C43.1098 44.7435 42.9973 44.751 42.8924 44.781C42.6149 44.8409 42.3899 44.9909 42.21 45.1109C42.15 45.1484 42.09 45.1934 42.03 45.2234C41.7675 45.3734 41.5126 45.5533 41.2651 45.7183C40.7852 46.0482 40.3278 46.3632 39.9229 46.4082C39.2405 46.4757 38.4906 46.5057 37.5682 46.5057C37.0733 46.5057 36.5784 46.4982 36.0835 46.4907C36.241 46.3932 36.4059 46.2957 36.5634 46.1982C36.7809 46.0632 36.9983 45.9358 37.2158 45.8008C37.2608 45.7708 37.3358 45.7408 37.4108 45.7033C37.6807 45.5833 38.0782 45.4034 38.2281 44.9759C38.3256 44.706 38.2881 44.406 38.1232 44.0911C37.9882 43.8661 37.7482 43.7461 37.4033 43.7461C37.0808 43.7461 36.5484 43.8511 36.2185 44.0161L35.9785 44.1361C35.0412 44.616 34.0663 45.1109 33.204 45.7633C32.3266 46.4232 31.3968 46.5132 30.5194 46.5132C30.1745 46.5132 29.8295 46.4982 29.4621 46.4832C29.3946 46.4832 29.3346 46.4757 29.2671 46.4757V45.8308C29.2671 44.9834 29.2596 44.1586 29.2671 43.3337C29.2896 40.9191 30.7594 39.4643 33.204 39.4568C33.5639 39.4568 33.9239 39.4568 34.2838 39.4568H35.3411H36.3984C37.3358 39.4568 38.4381 39.4568 39.5554 39.4343C39.9229 39.4268 40.2078 39.2244 40.4403 39.0594C40.5078 39.0069 40.5752 38.9619 40.6502 38.9169C40.8302 38.8119 40.9427 38.617 40.9427 38.4145C40.9427 38.2045 40.8227 38.0171 40.6427 37.9196C40.5752 37.8821 40.5003 37.8296 40.4328 37.7846C40.2003 37.6271 39.9154 37.4322 39.5554 37.4322C38.5656 37.4172 37.5158 37.4097 36.1435 37.4097C35.5361 37.4097 34.9287 37.4097 34.3138 37.4097H33.1965C29.5746 37.4172 27.2275 39.7718 27.22 43.4087C27.22 44.241 27.22 45.0809 27.22 45.9133V46.6106C27.07 46.6481 26.935 46.6856 26.7925 46.7231C24.258 47.428 22.4433 49.7526 22.3833 52.3847C22.3683 53.1571 22.3758 53.9444 22.3758 54.6343C22.4058 57.6713 24.258 59.9884 27.22 60.6858C27.22 60.7383 27.22 60.7908 27.22 60.8433C27.22 61.2482 27.2125 61.6306 27.2275 62.0206C27.265 63.9703 28.7047 65.455 30.5644 65.4775H30.6094C32.4541 65.4775 33.8939 64.0153 33.9538 62.0806C33.9688 61.6756 33.9613 61.2707 33.9613 60.8808H43.1548C43.1548 61.2557 43.1473 61.6157 43.1623 61.9756C43.2148 64.0078 44.6396 65.4775 46.5368 65.4775C48.4564 65.47 49.8662 63.9853 49.9262 61.9456C49.9337 61.5557 49.9337 61.1732 49.9337 60.7758C49.9337 60.7383 49.9337 60.7083 49.9337 60.6708C52.7382 59.9059 54.4329 58.0462 54.7254 55.3992C54.8529 54.2069 54.8529 53.0296 54.7254 51.8898C54.4479 49.4677 52.8957 47.6005 50.7286 46.8656C50.8935 46.8881 51.0585 46.9031 51.2235 46.9031C52.0933 46.9031 53.0607 46.5732 54.343 45.8383C55.0328 45.4408 55.7227 45.0509 56.3976 44.6685L56.8775 44.3985C56.9075 44.451 56.9375 44.5035 56.975 44.5635L57.14 44.8409C58.8647 47.743 61.1818 49.7601 64.0388 50.8324C65.3436 51.3199 65.861 51.6498 65.7186 52.9471C65.6511 53.5845 65.8685 54.2294 66.3335 54.7543C66.9109 55.4067 67.8182 55.8191 68.7106 55.8341H68.748C70.3978 55.8341 71.77 54.5518 71.8 52.9771C71.83 50.2101 71.83 47.323 71.785 44.3835ZM42.6674 42.0739C42.3 41.4365 42.09 40.8141 42.03 40.1992C42.09 40.8066 42.3 41.4365 42.6674 42.0739ZM37.5982 44.3685C37.7257 44.6085 37.7032 44.7735 37.6132 44.8934C37.7107 44.7735 37.7257 44.616 37.5982 44.3685ZM37.4033 44.3235C37.4108 44.3235 37.4108 44.3235 37.4183 44.3235C37.4033 44.3235 37.3883 44.3235 37.3733 44.3235C37.3808 44.3235 37.3958 44.3235 37.4033 44.3235ZM39.5479 38.8719C38.4981 38.8869 37.4483 38.8944 36.3984 38.8944C36.3909 38.8944 36.3834 38.8944 36.3759 38.8944C37.4333 38.8944 38.4906 38.8869 39.5479 38.8719ZM33.1815 37.9871C34.1638 37.9871 35.1461 37.9796 36.1285 37.9796C36.1435 37.9796 36.1585 37.9796 36.181 37.9796C35.1836 37.9796 34.1788 37.9871 33.1815 37.9871C32.9415 37.9871 32.7166 38.0021 32.4916 38.0246C32.7166 38.0021 32.949 37.9871 33.1815 37.9871ZM66.1685 37.3047C63.4539 38.8569 60.7469 40.4167 58.0473 41.9764C60.7544 40.4167 63.4614 38.8494 66.1685 37.3047C66.3709 37.1847 66.5659 37.0647 66.7384 36.9298C66.5659 37.0647 66.3784 37.1847 66.1685 37.3047ZM59.4871 21.0699C59.5021 21.0699 59.5171 21.0699 59.5321 21.0699C59.4946 21.0699 59.4496 21.0699 59.4121 21.0699C59.4346 21.0774 59.4571 21.0699 59.4871 21.0699ZM39.128 32.288C39.323 32.1156 39.5404 31.9506 39.8029 31.8006C39.5404 31.9506 39.3155 32.1081 39.128 32.288ZM46.7467 28.8611C44.5271 30.1359 42.3075 31.4107 40.0953 32.693C39.9903 32.753 39.9004 32.8129 39.8179 32.8804C39.9004 32.8129 39.9978 32.753 40.0953 32.693C42.3075 31.4107 44.5271 30.1434 46.7467 28.8611ZM40.5303 36.2249C40.4628 36.2249 40.4028 36.2174 40.3353 36.2099C40.4553 36.2174 40.5677 36.2174 40.6952 36.2099C40.6427 36.2249 40.5827 36.2249 40.5303 36.2249ZM42.4124 34.9276C42.4874 34.9201 42.5624 34.9126 42.6299 34.9126C42.6824 34.9126 42.7349 34.9201 42.7874 34.9276C42.6674 34.9126 42.5474 34.9126 42.4124 34.9276ZM46.4393 44.2785C46.4318 44.2785 46.4243 44.2785 46.4168 44.2785C46.4393 44.2785 46.4618 44.2785 46.4843 44.2785C46.4693 44.2785 46.4543 44.2785 46.4393 44.2785ZM46.3418 42.7488C45.4044 42.7488 44.4971 42.2239 43.9797 41.384C43.3648 40.3867 43.4098 39.2244 44.0472 38.317L46.6042 42.7338C46.5143 42.7488 46.4318 42.7488 46.3418 42.7488ZM43.7172 37.8071C43.8447 37.6496 43.9872 37.4997 44.1521 37.3572C43.9947 37.4997 43.8447 37.6496 43.7172 37.8071ZM46.4993 47.0756C47.2266 47.0756 47.9615 47.0756 48.6889 47.0906C47.834 47.0756 46.9792 47.0756 46.1243 47.0756C46.2518 47.0756 46.3793 47.0756 46.4993 47.0756ZM43.7922 45.4858C43.6947 45.6883 43.6197 45.9058 43.4848 46.0632C43.6197 45.9133 43.6947 45.6883 43.7922 45.4858ZM42.9523 47.0831C43.1098 47.0831 43.2673 47.0831 43.4173 47.0831C42.9973 47.0831 42.5699 47.0831 42.15 47.0831C42.4124 47.0831 42.6824 47.0831 42.9523 47.0831ZM33.5489 46.2282C33.9988 45.8908 34.4788 45.5908 34.9737 45.3209C34.4788 45.5983 33.9988 45.8908 33.5489 46.2282C33.4364 46.3107 33.3314 46.3857 33.219 46.4532C33.3314 46.3857 33.4439 46.3107 33.5489 46.2282ZM26.9275 47.278C27.055 47.2405 27.1825 47.2105 27.325 47.1731C27.19 47.2105 27.0625 47.2405 26.9275 47.278ZM22.9307 54.6268C22.9307 54.2519 22.9232 53.8844 22.9232 53.5095C22.9232 53.8844 22.9307 54.2594 22.9307 54.6268C22.9457 56.3665 23.5981 57.8213 24.7454 58.8336C23.5981 57.8288 22.9457 56.3665 22.9307 54.6268ZM30.5869 64.9076C30.5719 64.9076 30.5644 64.9076 30.5494 64.9076C30.6619 64.9076 30.7669 64.8926 30.8719 64.8776C30.7819 64.8851 30.6844 64.9076 30.5869 64.9076ZM31.2918 63.1754C31.0593 63.3329 30.8269 63.4153 30.5869 63.4153C30.3619 63.4153 30.137 63.3404 29.912 63.2054C29.2371 62.778 29.2221 62.238 29.2596 61.2332C29.2671 61.1132 29.2671 60.9858 29.2746 60.8583H31.8542C31.8542 61.0157 31.8617 61.1732 31.8692 61.3232C31.9217 62.253 31.9142 62.7555 31.2918 63.1754ZM33.3689 60.3034C33.3689 60.7458 33.3764 61.1882 33.3689 61.6231C33.3689 61.1882 33.3689 60.7533 33.3689 60.3034ZM38.5131 59.306C40.2378 59.306 41.9625 59.3135 43.6947 59.3135C41.97 59.3135 40.2378 59.306 38.5131 59.306ZM46.5368 64.9076C46.4318 64.9076 46.3343 64.8851 46.2368 64.8776C46.3418 64.8851 46.4468 64.9076 46.5517 64.9076C46.5442 64.9076 46.5368 64.9076 46.5368 64.9076ZM47.3691 63.0854C47.1217 63.3029 46.8517 63.4153 46.5742 63.4153C46.3718 63.4153 46.1543 63.3554 45.9444 63.2429C45.217 62.8454 45.202 62.298 45.2395 61.2857C45.247 61.1432 45.247 61.0008 45.247 60.8583H47.8115C47.819 60.9933 47.8265 61.1282 47.834 61.2632C47.8865 62.1181 47.8865 62.628 47.3691 63.0854ZM52.6257 52.0098C52.7382 52.9771 52.7532 53.9819 52.6707 55.0093C52.4833 57.2739 50.886 58.6986 48.5089 58.7286C47.3391 58.7361 46.0793 58.7436 44.5496 58.7436C43.5447 58.7436 42.5399 58.7436 41.5351 58.7361C40.5303 58.7361 39.5254 58.7286 38.5131 58.7286H35.9035C34.7787 58.7286 33.6614 58.7286 32.5366 58.7286C31.3143 58.7286 30.092 58.7286 28.8772 58.7211C25.9977 58.7136 24.4154 57.1239 24.4229 54.2444V53.8619C24.4229 53.1346 24.4229 52.3772 24.5504 51.6873C24.8954 49.8951 26.4326 48.5828 28.2023 48.5753C31.7867 48.5528 35.3336 48.5453 38.7605 48.5453C42.195 48.5453 45.6144 48.5528 48.9139 48.5753C50.8335 48.6053 52.3933 50.0451 52.6257 52.0098ZM51.216 46.3332C51.1935 46.3332 51.171 46.3257 51.141 46.3257C51.186 46.3257 51.231 46.3257 51.276 46.3257C51.261 46.3332 51.2385 46.3332 51.216 46.3332ZM55.0553 43.0412C54.8004 43.1912 54.5379 43.3412 54.283 43.4912C53.758 43.7986 53.2106 44.1211 52.6632 44.4135C52.1908 44.676 51.7409 44.8035 51.321 44.8035C50.5861 44.8035 49.9637 44.3835 49.4763 43.5512C48.5689 41.9989 47.6691 40.4392 46.7692 38.8869C46.2593 38.0021 45.7419 37.1097 45.232 36.2249C44.6621 35.2425 43.9497 34.3352 42.6299 34.3352C42.1725 34.3352 41.6551 34.4402 41.0102 34.6726C40.8527 34.7251 40.7027 34.7551 40.5677 34.7551C40.2603 34.7551 40.0428 34.6126 39.8929 34.3127C39.8029 34.1327 39.5779 33.6528 40.3728 33.1879C42.9149 31.7106 45.4644 30.2484 48.0065 28.7786L50.3461 27.4363C52.8732 25.9816 55.4003 24.5268 57.9274 23.0721C58.4898 22.7496 58.9997 22.5847 59.4571 22.5847C60.207 22.5847 60.8294 23.0346 61.3693 23.9644C63.1465 27.0314 64.9837 30.1959 66.7984 33.3829C66.9708 33.6828 67.0983 34.0277 67.2258 34.3952C67.2783 34.5302 67.3233 34.6651 67.3758 34.7926C67.2558 35.6625 66.8059 36.2699 65.876 36.8023C63.229 38.317 60.5444 39.8618 57.9498 41.3615L55.0553 43.0412ZM57.6199 44.541C59.1871 47.1806 61.3468 49.2052 64.2263 50.285C61.3393 49.2052 59.1871 47.1881 57.6199 44.541ZM65.6286 48.9503C65.6286 49.0477 65.6286 49.1527 65.6286 49.2502C63.3864 48.8828 59.922 45.9358 58.6997 43.3337L59.1871 43.0487L61.0018 41.9989C61.0393 42.0664 61.0843 42.1339 61.1218 42.2014C61.4293 42.7188 61.7517 43.2512 62.2091 43.6861C62.8165 44.2635 63.4914 44.7735 64.1438 45.2684C64.5188 45.5533 64.9087 45.8458 65.2686 46.1457C65.4861 46.3257 65.5836 46.4832 65.5986 46.5282C65.6436 47.3155 65.6361 48.1479 65.6286 48.9503ZM65.6361 45.7108C65.876 45.9058 66.1535 46.2132 66.1685 46.4832C66.161 46.2132 65.876 45.9058 65.6361 45.7108ZM68.7181 42.0889H68.7256C68.6281 42.0889 68.5456 42.1039 68.4481 42.1114C68.5381 42.1039 68.6281 42.0889 68.7181 42.0889ZM67.6832 52.4897C67.6682 49.9401 67.6682 47.3605 67.6832 44.8409C67.6832 44.0611 68.0807 43.5812 68.7106 43.5812C69.6404 43.5962 69.7454 44.496 69.7454 44.8859C69.7529 45.7708 69.7529 46.6556 69.7454 47.5405V48.7103V49.8426C69.7454 50.7125 69.7454 51.5748 69.7454 52.4447C69.7379 53.0296 69.5579 53.727 68.7331 53.742H68.7106C68.0732 53.7345 67.6907 53.2695 67.6832 52.4897ZM68.7256 55.2492C68.7181 55.2492 68.7031 55.2492 68.6956 55.2492C68.7855 55.2492 68.8755 55.2342 68.9655 55.2267C68.8905 55.2342 68.808 55.2492 68.7256 55.2492ZM68.748 54.3044C69.6029 54.2894 70.1578 53.757 70.2928 52.8496C70.1578 53.757 69.5954 54.2894 68.748 54.3044Z" fill="white"/>
<path d="M25.6677 63.9252C25.5852 63.8877 25.5028 63.8353 25.4278 63.7903C25.1878 63.6403 24.8879 63.4603 24.5204 63.4453C24.0555 63.4228 23.5531 63.4153 22.9232 63.4153C22.6082 63.4153 22.2858 63.4153 21.9708 63.4228C21.8434 63.4228 21.7159 63.4228 21.5884 63.4228V42.5238C21.7834 42.5238 21.9783 42.5238 22.1733 42.5238C22.5482 42.5238 22.9157 42.5238 23.2831 42.5238C24.093 42.5238 24.7154 42.5163 25.3003 42.5013C25.6527 42.4938 25.9377 42.3138 26.1701 42.1789C26.2451 42.1339 26.3201 42.0889 26.3951 42.0514C26.5826 41.9614 26.7101 41.7739 26.7176 41.5565C26.7251 41.3465 26.6201 41.144 26.4326 41.0391C26.3576 40.9941 26.2826 40.9416 26.2151 40.8891C25.9752 40.7166 25.6827 40.4916 25.3003 40.4841C24.5279 40.4617 23.7705 40.4542 23.1931 40.4542C22.8857 40.4542 22.5782 40.4542 22.2633 40.4542C21.9558 40.4542 21.6484 40.4542 21.3409 40.4542C21.1085 40.4542 20.8685 40.4542 20.6361 40.4542C18.6189 40.4392 17.2616 39.0969 17.2466 37.1097C17.2316 34.8751 17.2316 32.483 17.2466 29.7984C17.2616 27.7288 18.5739 26.424 20.6811 26.4165C21.8809 26.409 23.0882 26.409 24.288 26.409C25.4953 26.409 26.7101 26.409 27.9174 26.4165C30.002 26.424 31.3143 27.7288 31.3293 29.8134C31.3368 30.5333 31.3368 31.2457 31.3293 31.9656C31.3293 33.0754 31.3218 34.2227 31.3518 35.355C31.3593 35.7149 31.5467 36.0074 31.7042 36.2399C31.7492 36.3148 31.8017 36.3823 31.8392 36.4573C31.9367 36.6373 32.1242 36.7573 32.3266 36.7648C32.3341 36.7648 32.3416 36.7648 32.3491 36.7648C32.5516 36.7648 32.7315 36.6598 32.8365 36.4873C32.874 36.4198 32.9265 36.3523 32.979 36.2848C33.1515 36.0599 33.3764 35.7749 33.3764 35.4C33.4139 33.1654 33.4289 31.2832 33.3764 29.3935C33.294 26.5815 31.1043 24.4143 28.2848 24.3618C26.9575 24.3318 25.6227 24.3243 24.303 24.3243C22.9757 24.3243 21.6259 24.3393 20.3061 24.3618C17.4341 24.4293 15.2445 26.6415 15.207 29.506C15.177 31.7181 15.192 33.9677 15.1995 36.1424L15.207 37.3647C15.207 37.7696 15.267 38.182 15.3719 38.5645C15.9269 40.5966 17.2916 41.9014 19.4363 42.4413L19.4438 48.7703C19.4513 53.6445 19.4513 58.5261 19.4663 63.4003C19.4663 63.4078 19.4663 63.4078 19.4663 63.4153C19.4513 63.4153 19.4438 63.4153 19.4213 63.4153H19.3838L19.1138 63.4078C18.7839 63.4003 18.4464 63.3928 18.1165 63.3928C17.6891 63.3928 17.3366 63.4078 16.9992 63.4303C16.6542 63.4603 16.3693 63.6178 16.1218 63.7603C16.0393 63.8053 15.9568 63.8503 15.8744 63.8952C15.6719 63.9927 15.5444 64.1877 15.5369 64.3977C15.5294 64.6151 15.6419 64.8176 15.8294 64.9151C15.9044 64.9601 15.9793 65.0126 16.0543 65.0651C16.2943 65.2375 16.6017 65.4475 16.9767 65.455C18.229 65.4775 19.4963 65.485 20.756 65.485C21.9933 65.485 23.2606 65.4775 24.5054 65.455C24.8804 65.4475 25.1878 65.245 25.4353 65.0875C25.5178 65.0351 25.5927 64.9826 25.6752 64.9451C25.8702 64.8476 25.9902 64.6451 25.9827 64.4277C25.9902 64.2177 25.8627 64.0152 25.6677 63.9252ZM23.2906 41.9614C23.2606 41.9614 23.2306 41.9614 23.2081 41.9614C23.913 41.9614 24.6029 41.9539 25.2928 41.9389C24.6254 41.9539 23.958 41.9614 23.2906 41.9614ZM23.1931 41.0316C23.8905 41.0316 24.5879 41.0391 25.2853 41.0616C24.5204 41.0391 23.7555 41.0316 22.9832 41.0316C23.0582 41.0316 23.1257 41.0316 23.1931 41.0316ZM32.8215 33.9077C32.8365 32.4155 32.844 30.9157 32.799 29.4235C32.844 30.9157 32.8365 32.408 32.8215 33.9077ZM31.8167 28.9511C31.7642 28.6811 31.6967 28.4187 31.6067 28.1787C31.6967 28.4187 31.7717 28.6736 31.8167 28.9511ZM16.6842 37.1172C16.6692 34.6801 16.6692 32.243 16.6842 29.7984C16.6842 28.6886 17.0367 27.7513 17.6516 27.0689C17.0367 27.7513 16.6842 28.6886 16.6842 29.8059C16.6692 32.243 16.6692 34.6801 16.6842 37.1172ZM18.0565 63.9777C18.0715 63.9777 18.094 63.9777 18.109 63.9777C18.124 63.9777 18.139 63.9777 18.154 63.9777C18.1165 63.9702 18.0865 63.9777 18.0565 63.9777ZM20.7635 64.9151H20.756C22.0008 64.9151 23.2456 64.9076 24.4904 64.8851C23.2531 64.9076 22.0083 64.9151 20.7635 64.9151ZM22.7957 63.9852C22.8407 63.9852 22.8857 63.9852 22.9307 63.9852C23.4556 63.9852 23.9805 63.9927 24.4979 64.0152C23.9355 63.9852 23.3656 63.9777 22.7957 63.9852ZM24.7379 64.8401C24.9703 64.7501 25.1953 64.5551 25.4203 64.4427C25.1953 64.5551 24.9628 64.7501 24.7379 64.8401Z" fill="white"/>
<path d="M24.4679 34.3427C24.7829 34.3427 25.0903 34.3427 25.3978 34.3277C27.175 34.2752 28.3748 33.1354 28.3898 31.4857C28.4048 29.8134 27.2275 28.6436 25.4578 28.5611C25.1953 28.5461 24.9104 28.5461 24.5654 28.5461C24.3554 28.5461 24.1455 28.5461 23.9355 28.5536C23.7256 28.5536 23.5231 28.5611 23.3131 28.5611C23.1332 28.5611 22.9457 28.5611 22.7657 28.5536H22.7057C22.2858 28.5536 21.9558 28.6736 21.7159 28.9061C21.4684 29.1535 21.3484 29.5135 21.3484 30.0009C21.3559 30.8933 21.3559 31.7856 21.3559 32.6705C21.3559 34.0427 21.3559 35.4675 21.3784 36.8698C21.3859 37.2372 21.5884 37.5221 21.7534 37.7546C21.8059 37.8221 21.8509 37.8896 21.8959 37.9646C21.9933 38.1445 22.1808 38.2495 22.3833 38.257H22.3908C22.5932 38.257 22.7807 38.152 22.8782 37.9796C22.9157 37.9121 22.9682 37.8446 23.0207 37.7771C23.1856 37.5521 23.3956 37.2747 23.4181 36.9147C23.4631 36.1724 23.4556 35.445 23.4481 34.6726C23.4481 34.5676 23.4481 34.4552 23.4481 34.3427C23.5381 34.3427 23.6206 34.3427 23.7031 34.3427C23.973 34.3427 24.2205 34.3427 24.4679 34.3427ZM21.9558 36.8623C21.9558 37.0722 22.1208 37.2747 22.2633 37.4772C22.1208 37.2747 21.9633 37.0722 21.9558 36.8623ZM22.7132 29.1235C22.7282 29.1235 22.7432 29.1235 22.7582 29.1235C22.7057 29.1235 22.6682 29.1235 22.6232 29.131C22.6532 29.131 22.6757 29.1235 22.7132 29.1235ZM22.8632 36.8773C22.8857 36.5023 22.8932 36.1274 22.8932 35.7449C22.8857 36.1274 22.8782 36.5023 22.8632 36.8773ZM24.4679 33.7728C24.4154 33.7728 24.3554 33.7728 24.2955 33.7728C24.3779 33.7728 24.4604 33.7728 24.5429 33.7728C24.5204 33.7728 24.4979 33.7728 24.4679 33.7728ZM27.8199 31.4857C27.8199 31.8231 27.7524 32.1305 27.6399 32.4005C27.7524 32.1305 27.8124 31.8231 27.8199 31.4857ZM24.5729 29.1235C24.8579 29.1235 25.1503 29.1235 25.4353 29.1385C25.0003 29.116 24.5579 29.1235 24.123 29.1235C24.273 29.1235 24.4229 29.1235 24.5729 29.1235ZM23.5006 30.6758C23.6056 30.6758 23.7106 30.6758 23.808 30.6683C24.093 30.6608 24.3704 30.6608 24.6479 30.6608C25.0678 30.6608 25.4053 30.6758 25.7202 30.6983C25.8777 30.7133 26.2826 30.7433 26.3051 31.4182C26.3201 31.9056 26.1252 32.1755 25.7277 32.2205C25.4203 32.2505 25.0828 32.2655 24.6704 32.2655C24.3929 32.2655 24.108 32.258 23.8305 32.2505C23.7181 32.2505 23.6056 32.243 23.5006 32.243V30.6758Z" fill="white"/>
<path d="M68.0281 63.4903C67.8107 63.4228 67.6007 63.4153 67.4207 63.4153H67.2858H67.1658C65.7335 63.4153 64.3013 63.4153 62.869 63.4153H61.3318H59.7945H59.652H59.4871H58.6472H58.2198H58.1823H56.7125H55.2428C54.3129 63.4153 53.0906 63.4153 51.8608 63.4378C51.4934 63.4453 51.2084 63.6478 50.976 63.8128C50.9085 63.8653 50.841 63.9103 50.766 63.9553C50.5861 64.0602 50.4736 64.2477 50.4736 64.4577C50.4736 64.6676 50.5936 64.8551 50.7735 64.9526L50.9985 65.0726C51.2159 65.1925 51.4259 65.305 51.6434 65.41C51.7484 65.4625 51.8608 65.485 51.9808 65.485C52.0258 65.485 52.0783 65.4775 52.1233 65.4775H52.1608H54.7104H57.4174C60.6344 65.4775 63.8588 65.4775 67.0758 65.4775H67.1883H67.3158C67.5557 65.4775 67.8107 65.4625 68.0656 65.3725C68.4481 65.23 68.6955 64.7801 68.733 64.4352C68.8005 63.9778 68.3581 63.5878 68.0281 63.4903ZM51.4784 64.1727C51.6134 64.0827 51.7484 64.0077 51.8908 64.0077C51.7484 64.0152 51.6134 64.0827 51.4784 64.1727ZM52.0108 64.9226C51.9808 64.9226 51.9433 64.9151 51.9208 64.9076C51.9583 64.9226 51.9958 64.9226 52.0408 64.9226C52.0333 64.9226 52.0183 64.9226 52.0108 64.9226ZM55.2578 63.9853C56.1276 63.9853 56.99 63.9853 57.8598 63.9853C56.9825 63.9853 56.1051 63.9853 55.2203 63.9853C55.2353 63.9853 55.2503 63.9853 55.2578 63.9853ZM57.4474 64.9076C55.6927 64.9076 53.9455 64.9076 52.1908 64.9076C57.1625 64.9076 62.1341 64.9076 67.1058 64.9076C63.8813 64.9076 60.6644 64.9076 57.4474 64.9076ZM59.6595 63.9927C59.1796 63.9927 58.7072 63.9927 58.2273 63.9927C58.3698 63.9927 58.5122 63.9927 58.6547 63.9927C58.9922 63.9927 59.3221 63.9927 59.6595 63.9927C59.7045 63.9927 59.757 63.9927 59.802 63.9927C60.8218 63.9927 61.8492 63.9927 62.869 63.9927C64.3013 63.9927 65.726 63.9927 67.1583 63.9927C64.6612 63.9927 62.1566 63.9927 59.6595 63.9927ZM67.3458 64.9076C67.3383 64.9076 67.3233 64.9076 67.3158 64.9076C67.3383 64.9076 67.3533 64.9076 67.3758 64.9076C67.3608 64.9076 67.3533 64.9076 67.3458 64.9076ZM67.1658 63.9927C67.2483 63.9927 67.3383 63.9927 67.4207 63.9927C67.4357 63.9927 67.4432 63.9927 67.4582 63.9927C67.3608 63.9927 67.2633 63.9927 67.1658 63.9927Z" fill="white"/>
<path d="M42.3825 63.9628C42.33 63.9253 42.2775 63.8803 42.2325 63.8428C42.045 63.6853 41.7901 63.4678 41.4451 63.4453C41.0702 63.4228 40.6503 63.4153 40.1404 63.4153C39.8929 63.4153 39.6379 63.4153 39.3905 63.4228C39.143 63.4228 38.8956 63.4303 38.6556 63.4303C38.3931 63.4303 38.1382 63.4303 37.8757 63.4303C37.6133 63.4303 37.3508 63.4303 37.0959 63.4303C36.5335 63.4303 36.0985 63.4378 35.6861 63.4603C35.3337 63.4753 35.0787 63.7078 34.8987 63.8728C34.8462 63.9178 34.8012 63.9628 34.7487 64.0002C34.5988 64.1052 34.5088 64.2777 34.5088 64.4652C34.5088 64.6526 34.5988 64.8251 34.7487 64.9301C34.8012 64.9676 34.8462 65.0126 34.8987 65.0576C35.0862 65.23 35.3486 65.47 35.7161 65.4775C36.6609 65.4925 37.6208 65.5 38.5581 65.5C39.518 65.5 40.4853 65.4925 41.4451 65.47C41.8126 65.4625 42.075 65.215 42.2625 65.0426C42.315 64.9976 42.36 64.9451 42.4125 64.9076C42.5624 64.7951 42.6449 64.6226 42.6449 64.4352C42.6299 64.2402 42.5325 64.0677 42.3825 63.9628ZM37.0884 63.9853C37.1109 63.9853 37.1334 63.9853 37.1633 63.9853C36.6759 63.9853 36.196 63.9927 35.7086 64.0152C36.166 63.9927 36.6309 63.9853 37.0884 63.9853ZM38.5506 64.9151C37.6058 64.9151 36.6609 64.9076 35.7161 64.8926C35.5511 64.8926 35.3936 64.7276 35.2362 64.5852C35.3936 64.7276 35.5586 64.8926 35.7161 64.8926C36.6609 64.9076 37.6133 64.9151 38.5581 64.9151C38.5581 64.9151 38.5506 64.9151 38.5506 64.9151ZM40.0429 63.9853C40.0729 63.9853 40.1029 63.9853 40.1329 63.9853C40.5603 63.9853 40.9802 63.9927 41.4076 64.0152C40.9577 63.9927 40.5003 63.9853 40.0429 63.9853Z" fill="white"/>
<path d="M63.1465 36.2623C64.0689 35.7299 64.5563 34.8751 64.6313 33.6603C64.6388 33.5778 64.6238 33.4953 64.5938 33.4203C64.5713 33.3528 64.5413 33.2703 64.5113 33.1803C64.4213 32.9104 64.3163 32.5804 64.1363 32.258C63.139 30.4733 62.3441 29.116 61.5718 27.8562C61.3843 27.5488 61.0619 27.3988 60.8069 27.2788C60.7319 27.2413 60.6494 27.2113 60.5819 27.1663C60.492 27.1139 60.3945 27.0839 60.2895 27.0839C60.192 27.0839 60.0945 27.1064 60.0045 27.1589C59.8246 27.2638 59.7196 27.4588 59.7196 27.6613C59.7196 27.7438 59.7121 27.8262 59.7046 27.9087C59.6821 28.1862 59.6521 28.5386 59.8246 28.8536C60.3495 29.8284 60.9194 30.8032 61.4668 31.7406C61.6768 32.093 61.8792 32.453 62.0892 32.8054C62.7941 34.0202 62.7791 34.0727 61.5493 34.7851L59.4571 35.9924C57.38 37.1847 55.2353 38.422 53.1432 39.6593C52.8207 39.8467 52.6858 40.1842 52.5808 40.4541C52.5508 40.5291 52.5208 40.6116 52.4833 40.6791C52.3858 40.8516 52.3933 41.069 52.4908 41.2415C52.5883 41.414 52.7757 41.519 52.9782 41.5265C53.0457 41.5265 53.1207 41.5415 53.1957 41.549C53.3082 41.564 53.4356 41.5789 53.5706 41.5789C53.7806 41.5789 53.9605 41.534 54.1105 41.4515C56.8026 39.9292 59.5321 38.3545 62.1642 36.8322L63.1465 36.2623ZM60.2895 27.6688C60.2895 27.7438 60.282 27.8262 60.2745 27.9087C60.282 27.8337 60.2895 27.7513 60.2895 27.6688ZM62.9515 33.2778C62.8616 33.0679 62.7341 32.8204 62.5766 32.543C62.7341 32.8204 62.8616 33.0604 62.9515 33.2778ZM53.5631 41.0165C53.5406 41.0165 53.5181 41.009 53.4956 41.009C53.5331 41.009 53.5706 41.0165 53.6081 41.009C53.5931 41.009 53.5781 41.0165 53.5631 41.0165Z" fill="white"/>
<path d="M53.7431 36.7048C53.7506 35.9325 53.4581 35.2051 52.9182 34.6652C52.3783 34.1253 51.6509 33.8253 50.871 33.8253C50.0837 33.8253 49.3488 34.1328 48.8014 34.6952C48.2615 35.2426 47.9765 35.9625 47.984 36.7198C48.0065 38.2646 49.3263 39.5694 50.871 39.5694H50.931C52.4908 39.5244 53.7281 38.2721 53.7431 36.7048ZM50.8636 38.992C50.7886 38.992 50.7136 38.977 50.6386 38.9695C50.7286 38.977 50.8186 38.992 50.916 38.992C50.901 38.992 50.8785 38.992 50.8636 38.992ZM50.916 37.4697H50.871C50.4061 37.4697 50.0687 37.1398 50.0612 36.6898C50.0537 36.2549 50.3911 35.895 50.8336 35.88H50.871C51.3135 35.88 51.6809 36.2324 51.6884 36.6673C51.6959 37.0873 51.351 37.4547 50.916 37.4697Z" fill="white"/>
<path d="M48.194 33.0904C48.3514 33.1279 48.5239 33.1729 48.7114 33.1729C48.8839 33.1729 49.0338 33.1354 49.1613 33.0604C52.0783 31.4182 55.0028 29.7234 57.5824 28.2312C57.7774 28.1187 57.9273 27.9687 58.0548 27.8413C58.0998 27.7963 58.1448 27.7513 58.1898 27.7138C58.3173 27.6013 58.3848 27.4288 58.3773 27.2563L58.3623 26.9639C58.3473 26.6864 58.1298 26.4465 57.8524 26.4165C57.7774 26.409 57.7024 26.3865 57.6274 26.3715C57.4774 26.334 57.2975 26.2965 57.125 26.2965C56.945 26.2965 56.7875 26.334 56.6526 26.409C53.968 27.9162 51.186 29.5135 48.1565 31.2982C47.8565 31.4781 47.729 31.7856 47.6316 32.0181C47.6091 32.0855 47.5791 32.1455 47.5491 32.2055C47.4591 32.3705 47.4516 32.573 47.5416 32.7379C47.6241 32.9029 47.789 33.0229 47.9765 33.0454C48.0515 33.0529 48.1265 33.0679 48.194 33.0904ZM56.93 26.9114C55.5052 27.7138 54.088 28.5161 52.6782 29.3335C54.0955 28.5161 55.5127 27.7063 56.93 26.9114ZM48.8839 32.558C48.8314 32.588 48.7789 32.5955 48.7114 32.5955C48.7789 32.603 48.8389 32.588 48.8839 32.558Z" fill="white"/>
<path d="M46.6117 50.6825C46.6117 50.6825 46.5817 50.6825 46.5742 50.6825C44.9545 50.705 43.6422 52.0398 43.6422 53.6595C43.6422 55.3017 44.932 56.599 46.5817 56.6065C48.2089 56.6065 49.5512 55.3092 49.5812 53.712C49.5962 52.9396 49.2888 52.1672 48.7264 51.5973C48.164 51.0124 47.3916 50.6825 46.6117 50.6825ZM46.6117 51.2524C46.6942 51.2524 46.7767 51.2674 46.8592 51.2824C46.7692 51.2749 46.6792 51.2524 46.5817 51.2524C46.5967 51.2524 46.6042 51.2524 46.6117 51.2524ZM46.5667 52.2047C46.3643 52.2122 46.1693 52.2572 45.9968 52.3397C46.1693 52.2572 46.3568 52.2047 46.5667 52.2047ZM44.2121 53.6595C44.2121 53.3371 44.2796 53.0221 44.3996 52.7372C44.2796 53.0221 44.2121 53.3296 44.2121 53.6595C44.2121 54.1544 44.3621 54.6118 44.617 54.9868C44.3621 54.6118 44.2196 54.1544 44.2121 53.6595ZM46.6042 56.0366C46.5967 56.0366 46.5967 56.0366 46.5892 56.0366C46.6792 56.0366 46.7617 56.0216 46.8517 56.0141C46.7692 56.0216 46.6867 56.0366 46.6042 56.0366ZM47.2641 54.2594C47.0916 54.4394 46.8667 54.5444 46.6342 54.5519H46.6117C46.1393 54.5519 45.7194 54.1544 45.7044 53.682C45.6969 53.457 45.7794 53.2321 45.9443 53.0596C46.1093 52.8796 46.3418 52.7821 46.5817 52.7746C47.0991 52.7746 47.5041 53.1496 47.5191 53.6295C47.5191 53.8545 47.4291 54.0794 47.2641 54.2594Z" fill="white"/>
<path d="M30.5194 50.6825H30.4819C28.8622 50.705 27.5499 52.0398 27.5499 53.6595C27.5499 55.3017 28.8472 56.599 30.4894 56.6065C32.1167 56.6065 33.4589 55.3092 33.4889 53.7045C33.5039 52.9321 33.1965 52.1597 32.6341 51.5898C32.0717 51.0124 31.2993 50.6825 30.5194 50.6825ZM30.5194 51.2524C30.6019 51.2524 30.6844 51.2674 30.7669 51.2824C30.6769 51.2749 30.5794 51.2524 30.4894 51.2524C30.4969 51.2524 30.5044 51.2524 30.5194 51.2524ZM30.5119 56.0366C30.5044 56.0366 30.5044 56.0366 30.4969 56.0366C30.5869 56.0366 30.6769 56.0216 30.7669 56.0141C30.6769 56.0216 30.5944 56.0366 30.5119 56.0366ZM30.5119 54.5519C30.0245 54.5519 29.6046 54.1244 29.6046 53.652C29.6046 53.1646 30.017 52.7671 30.5119 52.7671C30.7594 52.7671 30.9919 52.8646 31.1643 53.0371C31.3293 53.2021 31.4193 53.427 31.4193 53.652C31.4118 54.1469 30.9994 54.5519 30.5119 54.5519ZM31.9667 53.8545C31.9742 53.7945 31.9892 53.7345 31.9892 53.667C31.9892 53.4645 31.9517 53.2771 31.8767 53.0971C31.9517 53.2696 31.9892 53.4645 31.9892 53.667C31.9892 53.727 31.9742 53.787 31.9667 53.8545Z" fill="white"/>
<path d="M23.273 94.096V94.876H30.965V94.096H23.273ZM26.621 92.968V94.456H27.521V92.968H26.621ZM25.061 96.184H29.129V97.3H25.061V96.184ZM24.197 95.536V97.948H30.041V95.536H24.197ZM23.069 98.644V100.72H23.885V99.364H30.245V100.696H31.073V98.644H23.069ZM24.437 100.18V100.924H29.801V100.18H24.437ZM26.621 100.348V102.976C26.621 103.12 26.573 103.168 26.381 103.168C26.201 103.18 25.553 103.18 24.857 103.156C24.965 103.408 25.097 103.732 25.133 103.984C26.033 103.984 26.645 103.984 27.029 103.852C27.413 103.72 27.509 103.492 27.509 103V100.348H26.621ZM22.673 92.968C22.001 94.792 20.873 96.592 19.685 97.756C19.853 97.96 20.105 98.44 20.201 98.644C21.497 97.3 22.733 95.272 23.525 93.232L22.673 92.968ZM21.425 96.064V103.948H22.289V95.224L22.265 95.212L21.425 96.064ZM32.501 94.024V94.852H42.509V94.024H32.501ZM32.129 101.392V102.22H42.917V101.392H32.129ZM37.013 92.932V103.996H37.937V92.932H37.013ZM34.253 98.416H40.745V99.664H34.253V98.416ZM34.253 96.484H40.745V97.708H34.253V96.484ZM33.389 95.728V100.408H41.645V95.728H33.389ZM51.125 92.92V101.284H51.977V92.92H51.125ZM47.345 97.876L47.693 98.668L54.149 95.92L53.813 95.152L47.345 97.876ZM48.641 94.048V102.064C48.641 103.372 49.049 103.696 50.429 103.696C50.729 103.696 53.057 103.696 53.381 103.696C54.641 103.696 54.929 103.168 55.073 101.512C54.821 101.464 54.473 101.32 54.257 101.176C54.173 102.556 54.053 102.88 53.345 102.88C52.865 102.88 50.849 102.88 50.453 102.88C49.649 102.88 49.505 102.736 49.505 102.076V94.048H48.641ZM53.657 95.272C53.657 97.66 53.645 99.364 53.573 99.676C53.513 99.952 53.393 100 53.213 100C53.081 100 52.685 100 52.409 99.988C52.517 100.192 52.589 100.528 52.625 100.768C52.949 100.768 53.429 100.768 53.753 100.684C54.101 100.6 54.329 100.372 54.401 99.892C54.485 99.424 54.521 97.624 54.521 95.368L54.557 95.2L53.921 94.96L53.765 95.092L53.549 95.272H53.657ZM43.997 95.812V96.664H47.813V95.812H43.997ZM45.545 93.064V100.852H46.397V93.064H45.545ZM43.889 101.164L44.249 102.052C45.317 101.596 46.673 100.984 47.957 100.372L47.765 99.568C46.337 100.18 44.861 100.804 43.889 101.164ZM59.849 95.284H63.101V96.076H59.849V95.284ZM59.105 94.744V96.616H63.881V94.744H59.105ZM59.429 98.812H63.521V101.488H59.429V98.812ZM58.709 98.248V102.064H64.277V98.248H58.709ZM60.761 99.796H62.165V100.504H60.761V99.796ZM60.197 99.328V100.984H62.753V99.328H60.197ZM57.893 97.168V97.732H65.129V97.168H57.893ZM61.061 96.256V97.42H61.853V96.256H61.061ZM56.489 93.412V103.948H57.341V94.18H65.657V103.948H66.545V93.412H56.489ZM57.017 102.712V103.48H66.125V102.712H57.017Z" fill="#0069B4"/>
</svg>
