<svg width="68" height="20" viewBox="0 0 68 20" fill="none" xmlns="http://www.w3.org/2000/svg">
<rect width="68" height="20" rx="10" fill="black"/>
<path d="M13.54 11.396V12.392H18.4V11.396H13.54ZM13.54 9.776V10.76H18.4V9.776H13.54ZM12.652 9.128H19.324V13.04H12.652V9.128ZM10.684 5.456H21.328V6.248H10.684V5.456ZM15.508 3.92H16.408V8.756H15.508V3.92ZM14.992 5.684L15.748 5.984C14.668 7.532 12.772 8.936 11.008 9.632C10.876 9.416 10.612 9.092 10.42 8.912C12.148 8.324 14.032 7.028 14.992 5.684ZM16.9 5.696C17.872 7.004 19.792 8.24 21.568 8.804C21.364 8.972 21.1 9.308 20.968 9.548C19.18 8.876 17.26 7.496 16.168 5.984L16.9 5.696ZM10.876 13.772H21.16V14.576H10.876V13.772ZM25.108 9.26H32.104V14.996H31.204V9.98H25.972V14.996H25.108V9.26ZM22.696 7.676H33.292V8.42H22.696V7.676ZM23.572 6.068H32.596V6.788H23.572V6.068ZM25.696 10.796H31.588V11.432H25.696V10.796ZM25.696 12.284H31.588V12.908H25.696V12.284ZM25.612 13.796H31.588V14.516H25.612V13.796ZM31.9 4.016L32.476 4.676C30.244 5.12 26.56 5.3 23.596 5.312C23.572 5.108 23.488 4.796 23.404 4.604C26.332 4.58 29.992 4.412 31.9 4.016ZM26.98 4.844L27.916 5.036C27.112 7.94 25.648 10.688 22.96 12.284C22.84 12.092 22.576 11.756 22.396 11.588C24.94 10.124 26.344 7.496 26.98 4.844ZM34.408 11.72C35.332 11.504 36.712 11.12 38.08 10.748L38.188 11.552C36.964 11.936 35.692 12.332 34.708 12.62L34.408 11.72ZM37.684 3.98H38.56V14.96H37.684V3.98ZM35.224 5.312H36.088V11.828H35.224V5.312ZM40.492 6.152H45.556V7.004H40.492V6.152ZM40.816 3.92L41.74 4.1C41.212 6.308 40.36 8.384 39.256 9.74C39.112 9.56 38.74 9.236 38.524 9.092C39.592 7.868 40.372 5.924 40.816 3.92ZM43.996 6.56L44.896 6.704C44.056 10.82 42.412 13.424 39.196 14.996C39.112 14.792 38.836 14.384 38.668 14.192C41.752 12.812 43.264 10.376 43.996 6.56ZM40.816 6.848C41.512 10.268 43.012 13.076 45.7 14.228C45.496 14.408 45.208 14.756 45.076 14.996C42.28 13.652 40.792 10.748 40 7.004L40.816 6.848ZM48.1 5.864H55.636V5.192H47.284V4.592H56.476V6.476H48.1V5.864ZM47.824 5.864H48.676C48.448 6.56 48.172 7.352 47.956 7.88L47.128 7.82C47.368 7.28 47.632 6.512 47.824 5.864ZM47.776 7.112H56.668V7.724H47.584L47.776 7.112ZM56.38 7.112H57.232C57.232 7.112 57.22 7.304 57.208 7.412C57.136 8.144 57.052 8.504 56.86 8.696C56.716 8.84 56.512 8.9 56.272 8.912C56.068 8.924 55.648 8.924 55.216 8.888C55.204 8.72 55.132 8.456 55.048 8.288C55.42 8.324 55.744 8.336 55.876 8.336C56.02 8.336 56.092 8.324 56.152 8.264C56.248 8.168 56.308 7.892 56.38 7.232V7.112ZM50.236 3.932H51.064V6.092C51.064 7.676 50.572 8.936 47.092 9.608C47.02 9.404 46.828 9.068 46.672 8.912C49.84 8.312 50.236 7.304 50.236 6.068V3.932ZM52.924 3.932H53.776V8.624H52.924V3.932ZM49.048 10.532V11.276H55.084V10.532H49.048ZM49.048 11.84V12.596H55.084V11.84H49.048ZM49.048 9.236V9.968H55.084V9.236H49.048ZM48.172 8.648H55.984V13.172H48.172V8.648ZM52.972 13.772L53.68 13.304C55.024 13.664 56.488 14.144 57.364 14.504L56.392 14.984C55.624 14.624 54.304 14.168 52.972 13.772ZM50.2 13.292L51.004 13.652C50.032 14.192 48.496 14.708 47.296 15.008C47.152 14.828 46.84 14.492 46.636 14.336C47.884 14.096 49.336 13.724 50.2 13.292Z" fill="#FFF800"/>
</svg>
