<svg width="87" height="107" viewBox="0 0 87 107" fill="none" xmlns="http://www.w3.org/2000/svg">
<g clip-path="url(#clip0_10_2687)">
<path d="M65.8322 51.7307C65.4047 50.2832 64.4822 49.2781 63.0572 48.7906C61.1521 48.1381 59.2321 47.5156 57.3121 46.8931C56.652 46.6756 56.142 46.2856 55.8345 45.6706C55.0095 44.043 54.1995 42.4005 53.382 40.7654C53.3445 40.6904 53.3145 40.6079 53.2545 40.4654C53.772 40.4654 54.252 40.4729 54.7245 40.4654C55.5645 40.4579 56.142 39.9329 56.157 39.1829C56.172 38.4179 55.572 37.8479 54.732 37.8329C53.8995 37.8254 53.0595 37.8254 52.2269 37.8179C52.1969 37.8179 52.1744 37.8029 52.0919 37.7654C52.0919 37.6304 52.0919 37.4804 52.0919 37.3229C52.0919 32.8828 52.0919 28.4502 52.0844 24.0101C52.0844 23.6576 52.1369 23.5001 52.542 23.4626C53.3595 23.3951 54.1695 23.2526 54.972 23.1251C55.737 23.0051 56.247 22.3451 56.142 21.6325C56.037 20.905 55.3695 20.41 54.612 20.515C51.8894 20.8975 49.1669 21.2875 46.4443 21.67C43.4143 22.0975 40.3917 22.5251 37.3616 22.9526C33.5065 23.5001 29.659 24.0476 25.8039 24.5951C24.6339 24.7601 23.4563 24.9176 22.2863 25.0826C21.5513 25.1876 21.0638 25.6601 21.0113 26.3201C20.9663 26.9127 21.3488 27.5052 21.9338 27.6627C22.2038 27.7302 22.5038 27.7077 22.8413 27.7302C22.8413 27.9027 22.8413 28.0902 22.8413 28.2777C22.8413 40.1129 22.8488 51.9407 22.8263 63.7759C22.8263 64.586 23.0663 65.156 23.8088 65.501C24.0413 65.501 24.2738 65.501 24.5139 65.501C25.2639 65.141 25.5414 64.5485 25.4814 63.7309C25.4364 63.1384 25.4739 62.5459 25.4739 61.9234C26.7414 61.9234 27.9639 61.9234 29.254 61.9234C29.254 62.5234 29.2915 63.1309 29.2465 63.7309C29.1865 64.5485 29.464 65.1485 30.2215 65.4935C30.454 65.4935 30.6865 65.4935 30.9265 65.4935C31.489 65.2085 31.894 64.811 31.9015 64.0984C33.049 64.661 34.2116 64.8035 35.4041 64.481C37.0391 64.0384 38.1716 63.0034 38.7717 61.4134C38.8767 61.1359 38.9967 61.0384 39.3042 61.0384C43.4293 61.0534 47.5618 61.0459 51.6869 61.0384C51.9794 61.0384 52.1144 61.1134 52.2194 61.4059C52.932 63.3709 54.7695 64.646 56.8395 64.6385C58.9021 64.631 60.7096 63.3784 61.4221 61.4209C61.5346 61.1059 61.6921 61.0384 61.9922 61.0384C62.4572 61.0384 62.9372 61.0384 63.3872 60.9334C64.6772 60.6259 65.4872 59.7784 65.8772 58.5258C65.9222 58.3908 65.9597 58.2483 65.9972 58.1133C65.9972 56.1783 65.9972 54.2432 65.9972 52.3157C65.9447 52.1207 65.8922 51.9257 65.8322 51.7307ZM25.5039 40.4804C26.7489 40.4804 27.9714 40.4804 29.2315 40.4804C29.2315 41.328 29.2315 42.1755 29.2315 43.0605C28.0089 43.0605 26.7789 43.0605 25.5039 43.0605C25.5039 42.1905 25.5039 41.3505 25.5039 40.4804ZM25.4964 45.7606C26.7414 45.7606 27.9714 45.7606 29.2315 45.7606C29.2315 46.6456 29.2315 47.5306 29.2315 48.4456C28.0014 48.4456 26.7639 48.4456 25.4964 48.4456C25.4964 47.5456 25.4964 46.6681 25.4964 45.7606ZM29.2315 59.2383C28.0014 59.2383 26.7714 59.2383 25.4889 59.2383C25.4889 58.3383 25.4889 57.4608 25.4889 56.5608C26.7339 56.5608 27.9639 56.5608 29.2315 56.5608C29.2315 57.4383 29.2315 58.3233 29.2315 59.2383ZM29.239 53.8682C27.9789 53.8682 26.7564 53.8682 25.5039 53.8682C25.5039 52.9607 25.5039 52.0757 25.5039 51.1607C26.7414 51.1607 27.9789 51.1607 29.239 51.1607C29.239 52.0532 29.239 52.9382 29.239 53.8682ZM25.5189 37.7954C25.5189 34.3078 25.5189 30.8202 25.5189 27.2877C33.4765 26.1626 41.4417 25.0376 49.4294 23.9126C49.4294 28.5627 49.4294 33.1678 49.4294 37.7954C41.4492 37.7954 33.499 37.7954 25.5189 37.7954ZM34.1666 62.0059C32.899 61.9984 31.8865 60.9709 31.909 59.7034C31.924 58.4583 32.944 57.4683 34.1966 57.4683C35.4416 57.4758 36.4616 58.4883 36.4616 59.7259C36.4616 60.9859 35.4266 62.0134 34.1666 62.0059ZM40.7292 58.4133C40.1592 58.4133 39.6042 58.4208 39.0567 58.4058C38.9817 58.4058 38.8692 58.2783 38.8392 58.1883C37.9391 55.4583 34.7891 54.0182 32.044 55.3158C32.0215 55.3308 31.9915 55.3233 31.9315 55.3308C31.9315 53.2007 31.9315 51.0782 31.9315 48.9181C34.8416 48.9181 37.7666 48.9181 40.7367 48.9181C40.7292 52.0757 40.7292 55.2108 40.7292 58.4133ZM40.7367 46.2031C37.8041 46.2031 34.8866 46.2031 31.939 46.2031C31.939 44.313 31.939 42.4155 31.939 40.4879C34.8491 40.4879 37.7666 40.4879 40.7367 40.4879C40.7367 42.408 40.7367 44.2905 40.7367 46.2031ZM43.4143 40.4879C43.5418 40.4804 43.6693 40.4579 43.7968 40.4579C45.6418 40.4579 47.4868 40.4654 49.3244 40.4579C49.9394 40.4579 50.4044 40.7129 50.6819 41.2605C51.4694 42.828 52.2494 44.3955 53.0295 45.9631C53.0595 46.0231 53.082 46.0981 53.1195 46.2031C49.8794 46.2031 46.6768 46.2031 43.4143 46.2031C43.4143 44.298 43.4143 42.4155 43.4143 40.4879ZM56.8245 62.0059C55.5495 62.0059 54.552 60.9934 54.5595 59.7184C54.567 58.4658 55.5645 57.4758 56.8245 57.4758C58.0771 57.4758 59.0821 58.4658 59.0971 59.7184C59.1121 60.9784 58.0921 62.0059 56.8245 62.0059ZM63.3572 57.5583C63.3572 58.0983 63.0572 58.3833 62.5172 58.4133C62.4872 58.4133 62.4572 58.4133 62.4272 58.4133C61.6246 58.4358 61.6246 58.4358 61.2946 57.7083C60.4696 55.9008 58.6771 54.7757 56.697 54.8357C54.6945 54.8882 52.9545 56.1108 52.2494 57.9933C52.1219 58.3308 51.9719 58.4283 51.6269 58.4283C49.0469 58.4133 46.4743 58.4208 43.8943 58.4208C43.7518 58.4208 43.6018 58.4208 43.4068 58.4208C43.4068 55.2183 43.4068 52.0757 43.4068 48.8806C43.5793 48.8806 43.7368 48.8806 43.8943 48.8806C47.5693 48.8806 51.2444 48.8806 54.9195 48.8881C55.167 48.8881 55.422 48.9856 55.662 49.0681C56.847 49.4731 58.0321 49.8931 59.2246 50.2982C60.1921 50.6282 61.1671 50.9357 62.1347 51.2657C62.8922 51.5207 63.3422 52.1057 63.3497 52.9082C63.3722 54.4532 63.3647 56.0058 63.3572 57.5583Z" fill="#ACACAC"/>
<path d="M43.4143 27.9851C41.2467 27.0626 39.2142 27.4826 37.4742 29.0652C36.1091 30.3027 35.6516 31.9077 35.7191 33.7078C35.7566 34.6528 36.2441 35.1778 37.1891 35.1778C38.5542 35.1853 39.9117 35.1778 41.2767 35.1778C42.6568 35.1778 44.0293 35.1853 45.4093 35.1778C46.2493 35.1703 46.7819 34.6603 46.8194 33.8203C46.8344 33.5428 46.8344 33.2652 46.8194 32.9877C46.6919 30.6402 45.5818 28.9002 43.4143 27.9851ZM38.4567 32.5227C38.5992 31.2702 39.8217 30.2127 41.1717 30.1752C42.6043 30.1302 43.8643 31.1427 44.0893 32.5227C42.2143 32.5227 40.3392 32.5227 38.4567 32.5227Z" fill="#ACACAC"/>
<path d="M48.6193 50.8082C47.9443 50.8007 47.2693 50.8007 46.6018 50.8082C45.8293 50.8232 45.2743 51.3557 45.2518 52.0757C45.2368 52.8032 45.7618 53.3807 46.5268 53.4332C46.8943 53.4557 47.2618 53.4407 47.6218 53.4407C47.9743 53.4407 48.3268 53.4632 48.6794 53.4407C49.4369 53.3882 49.9919 52.8032 49.9694 52.0982C49.9469 51.3632 49.3844 50.8232 48.6193 50.8082Z" fill="#ACACAC"/>
</g>
<rect x="1.005" y="0.5" width="84.99" height="85" rx="42.495" stroke="#ACACAC"/>
<path d="M20.496 94.024V94.852H30.504V94.024H20.496ZM20.124 101.392V102.22H30.912V101.392H20.124ZM25.008 92.932V103.996H25.932V92.932H25.008ZM22.248 98.416H28.74V99.664H22.248V98.416ZM22.248 96.484H28.74V97.708H22.248V96.484ZM21.384 95.728V100.408H29.64V95.728H21.384ZM37.02 92.932V94.456H37.944V92.932H37.02ZM32.496 93.964V96.088H33.384V94.78H41.628V95.932H42.54V93.964H32.496ZM35.628 96.184V97H42.6V96.184H35.628ZM36.612 100.432V101.188H41.676V100.432H36.612ZM36.612 102.736V103.528H41.676V102.736H36.612ZM36.204 98.26V103.984H37.068V99.052H41.22V103.96H42.108V98.26H36.204ZM38.616 96.556C38.52 97.192 38.292 98.092 38.124 98.656L38.904 98.884C39.12 98.332 39.372 97.516 39.6 96.784L38.616 96.556ZM34.704 95.416C34.032 96.892 32.928 98.308 31.752 99.22C31.92 99.412 32.208 99.82 32.316 100.012C33.552 98.968 34.764 97.36 35.544 95.68L34.704 95.416ZM33.684 97.6V103.972H34.548V96.844L34.476 96.808L33.684 97.6ZM51.12 92.92V101.284H51.972V92.92H51.12ZM47.34 97.876L47.688 98.668L54.144 95.92L53.808 95.152L47.34 97.876ZM48.636 94.048V102.064C48.636 103.372 49.044 103.696 50.424 103.696C50.724 103.696 53.052 103.696 53.376 103.696C54.636 103.696 54.924 103.168 55.068 101.512C54.816 101.464 54.468 101.32 54.252 101.176C54.168 102.556 54.048 102.88 53.34 102.88C52.86 102.88 50.844 102.88 50.448 102.88C49.644 102.88 49.5 102.736 49.5 102.076V94.048H48.636ZM53.652 95.272C53.652 97.66 53.64 99.364 53.568 99.676C53.508 99.952 53.388 100 53.208 100C53.076 100 52.68 100 52.404 99.988C52.512 100.192 52.584 100.528 52.62 100.768C52.944 100.768 53.424 100.768 53.748 100.684C54.096 100.6 54.324 100.372 54.396 99.892C54.48 99.424 54.516 97.624 54.516 95.368L54.552 95.2L53.916 94.96L53.76 95.092L53.544 95.272H53.652ZM43.992 95.812V96.664H47.808V95.812H43.992ZM45.54 93.064V100.852H46.392V93.064H45.54ZM43.884 101.164L44.244 102.052C45.312 101.596 46.668 100.984 47.952 100.372L47.76 99.568C46.332 100.18 44.856 100.804 43.884 101.164ZM59.844 95.284H63.096V96.076H59.844V95.284ZM59.1 94.744V96.616H63.876V94.744H59.1ZM59.424 98.812H63.516V101.488H59.424V98.812ZM58.704 98.248V102.064H64.272V98.248H58.704ZM60.756 99.796H62.16V100.504H60.756V99.796ZM60.192 99.328V100.984H62.748V99.328H60.192ZM57.888 97.168V97.732H65.124V97.168H57.888ZM61.056 96.256V97.42H61.848V96.256H61.056ZM56.484 93.412V103.948H57.336V94.18H65.652V103.948H66.54V93.412H56.484ZM57.012 102.712V103.48H66.12V102.712H57.012Z" fill="#ACACAC"/>
<defs>
<clipPath id="clip0_10_2687">
<rect width="44.9925" height="45" fill="white" transform="translate(21.0038 20.5)"/>
</clipPath>
</defs>
</svg>
