<svg width="282" height="26" viewBox="0 0 282 26" fill="none" xmlns="http://www.w3.org/2000/svg">
<rect x="0.5" width="281" height="26" rx="10" fill="#0069B4"/>
<g clip-path="url(#clip0_10_2329)">
<path d="M111.85 18C111.807 18 111.764 18 111.715 18C111.5 17.8923 111.451 17.772 111.549 17.5313C112.772 14.4408 113.995 11.3502 115.211 8.25966C115.254 8.13933 115.322 8.04433 115.445 8C115.482 8 115.519 8 115.556 8C115.672 8.04433 115.74 8.12666 115.783 8.24066C117.006 11.3376 118.228 14.4345 119.451 17.5313C119.543 17.772 119.5 17.8923 119.279 18.0063C119.236 18.0063 119.193 18.0063 119.144 18.0063C119.039 17.9367 118.929 17.8733 118.824 17.8037C117.743 17.107 116.655 16.4041 115.574 15.7011C115.525 15.6694 115.488 15.6504 115.433 15.6884C114.241 16.4611 113.049 17.2337 111.85 18Z" fill="white"/>
</g>
<path d="M125.512 12.236H131.464V12.98H125.512V12.236ZM125.284 14.288H131.716V15.056H125.284V14.288ZM129.28 12.476H130.096V17.744H129.28V12.476ZM126.82 12.512H127.6V14.696C127.6 15.428 127.312 17 125.956 17.912C125.836 17.744 125.56 17.492 125.356 17.372C126.568 16.628 126.82 15.356 126.82 14.696V12.512ZM124.024 9.104H127.396V9.752H124.024V9.104ZM129.556 9.104H132.952V9.752H129.556V9.104ZM132.604 7.436H133.492V16.796C133.492 17.336 133.372 17.624 133.012 17.78C132.652 17.936 132.052 17.948 131.14 17.948C131.104 17.708 130.984 17.288 130.852 17.036C131.512 17.06 132.16 17.06 132.352 17.048C132.544 17.048 132.604 16.976 132.604 16.796V7.436ZM124.096 7.436H127.948V11.48H124.096V10.796H127.096V8.132H124.096V7.436ZM133.036 7.436V8.132H129.868V10.808H133.036V11.492H129.004V7.436H133.036ZM123.556 7.436H124.444V17.972H123.556V7.436ZM140.836 16.616H145.024V17.432H140.836V16.616ZM140.368 13.1H145.492V17.924H144.604V13.928H141.232V17.972H140.368V13.1ZM139.552 11.084C140.968 11.012 143.2 10.892 145.336 10.748L145.324 11.552C143.296 11.708 141.148 11.876 139.66 11.972L139.552 11.084ZM143.524 9.152L144.244 8.78C145.048 9.776 145.876 11.12 146.2 12.008L145.408 12.44C145.12 11.54 144.316 10.172 143.524 9.152ZM141.892 6.92L142.876 7.124C142.384 8.588 141.7 10.424 141.136 11.564L140.368 11.348C140.908 10.184 141.556 8.264 141.892 6.92ZM135.016 9.404H138.976V10.256H135.016V9.404ZM136.84 6.92L137.704 7.016C137.212 9.416 136.444 12.656 135.88 14.66L135.136 14.252C135.676 12.428 136.42 9.2 136.84 6.92ZM135.616 13.892L136.12 13.256C137.464 14.012 139.06 15.164 139.78 16.052L139.228 16.784C138.52 15.884 136.96 14.672 135.616 13.892ZM138.628 9.404H138.784L138.94 9.38L139.48 9.488C139.156 14.132 137.86 16.676 135.652 17.996C135.52 17.78 135.28 17.456 135.088 17.276C137.08 16.22 138.34 13.664 138.628 9.596V9.404ZM147.052 14.804H157.948V15.536H147.052V14.804ZM150.052 8.024H157.888V8.684H150.052V8.024ZM154.444 13.976H155.32V17C155.32 17.48 155.212 17.708 154.84 17.84C154.456 17.96 153.844 17.972 152.848 17.96C152.812 17.732 152.668 17.42 152.56 17.192C153.316 17.216 154 17.204 154.192 17.192C154.396 17.192 154.444 17.144 154.444 16.988V13.976ZM149.116 16.052L149.716 15.536C150.364 15.908 151.144 16.496 151.528 16.916L150.868 17.492C150.52 17.06 149.752 16.448 149.116 16.052ZM147.46 7.652L148.06 7.16C148.672 7.58 149.392 8.192 149.704 8.66L149.08 9.212C148.768 8.756 148.06 8.096 147.46 7.652ZM151.528 7.112L152.272 6.932C152.56 7.268 152.86 7.748 152.98 8.084L152.2 8.3C152.08 7.964 151.804 7.472 151.528 7.112ZM151.864 10.772V11.312H156.016V10.772H151.864ZM151.864 11.792V12.332H156.016V11.792H151.864ZM151.864 9.776V10.292H156.016V9.776H151.864ZM151.024 9.284H156.892V12.836H151.024V9.284ZM149.524 10.052V12.644H148.696V10.784H147.1V10.052H149.524ZM153.448 8.252L154.336 8.348C154.18 8.804 154.024 9.236 153.892 9.548L153.184 9.428C153.28 9.08 153.4 8.576 153.448 8.252ZM155.644 6.908L156.496 7.1C156.208 7.532 155.896 7.94 155.632 8.252L154.936 8.072C155.164 7.724 155.488 7.232 155.644 6.908ZM149.524 12.332C149.992 13.028 150.88 13.34 151.984 13.376C153.376 13.424 156.496 13.388 158.032 13.304C157.948 13.472 157.828 13.808 157.792 14.036C156.34 14.096 153.412 14.108 152.008 14.06C150.736 14.024 149.836 13.712 149.212 12.968C148.624 13.376 148.024 13.772 147.388 14.192L147.028 13.436C147.592 13.148 148.288 12.74 148.9 12.332H149.524ZM166.372 6.944H167.236V9.236H166.372V6.944ZM163.768 8.84H169.996V9.644H163.768V8.84ZM165.256 10.952H168.148V11.756H165.256V10.952ZM164.8 10.952H165.652V13.64C165.652 14.996 165.46 16.784 164.284 17.948C164.128 17.804 163.78 17.54 163.588 17.444C164.68 16.352 164.8 14.828 164.8 13.616V10.952ZM161.212 13.256H161.8V16.112H161.212V13.256ZM160.156 8.552H162.868V9.284H160.156V8.552ZM162.616 8.552H163.372V17.012C163.372 17.444 163.276 17.672 163.012 17.804C162.724 17.924 162.292 17.936 161.56 17.936C161.536 17.732 161.416 17.408 161.308 17.204C161.824 17.216 162.292 17.216 162.424 17.204C162.568 17.204 162.616 17.156 162.616 17.012V8.552ZM159.808 8.552H160.552V12.92C160.552 14.48 160.42 16.604 159.556 17.96C159.424 17.828 159.1 17.636 158.92 17.552C159.736 16.244 159.808 14.384 159.808 12.92V8.552ZM158.944 12.344C160.228 12.272 162.172 12.14 164.068 12.008L164.08 12.728C162.256 12.872 160.372 13.016 159.04 13.112L158.944 12.344ZM160.924 10.028L161.488 9.8C161.824 10.304 162.112 10.988 162.208 11.444L161.596 11.696C161.5 11.24 161.224 10.544 160.924 10.028ZM161.272 6.92L162.22 7.1C162.004 7.748 161.752 8.456 161.56 8.912L160.768 8.744C160.96 8.24 161.176 7.448 161.272 6.92ZM167.668 10.952H168.52V16.412C168.52 16.712 168.544 16.892 168.58 16.94C168.628 16.976 168.688 17 168.772 17C168.844 17 168.988 17 169.084 17C169.18 17 169.276 16.976 169.324 16.928C169.384 16.892 169.408 16.784 169.432 16.592C169.468 16.376 169.48 15.92 169.48 15.308C169.648 15.452 169.912 15.584 170.116 15.656C170.116 16.196 170.08 16.88 170.02 17.108C169.96 17.36 169.852 17.516 169.696 17.624C169.564 17.72 169.336 17.768 169.12 17.768C168.976 17.768 168.688 17.768 168.556 17.768C168.328 17.768 168.076 17.708 167.896 17.552C167.728 17.384 167.668 17.18 167.668 16.364V10.952Z" fill="white"/>
<defs>
<clipPath id="clip0_10_2329">
<rect width="8" height="10" fill="white" transform="translate(111.5 8)"/>
</clipPath>
</defs>
</svg>
