<svg width="63" height="21" viewBox="0 0 63 21" fill="none" xmlns="http://www.w3.org/2000/svg">
<rect x="1" y="0.5" width="61" height="20" rx="9.5" fill="white"/>
<g clip-path="url(#clip0_10_1261)">
<path d="M13.9906 8.05737C14.1606 7.89676 14.3069 7.73615 14.4722 7.59784C14.8925 7.24985 15.3788 7.04462 15.9454 7.00893C17.159 6.92863 18.1884 7.72276 18.4386 8.82474C18.6133 9.58318 18.4056 10.2658 17.9806 10.9038C17.5745 11.5194 17.0504 12.0325 16.479 12.5054C15.9029 12.9873 15.2844 13.4156 14.6375 13.8126C14.2125 14.0714 13.7828 14.0714 13.3578 13.8126C12.4323 13.246 11.5588 12.617 10.8033 11.8541C10.3736 11.4168 10.0005 10.9439 9.7361 10.3996C9.26391 9.41365 9.50473 8.25814 10.3452 7.55323C10.7372 7.22308 11.1999 7.04016 11.7193 7.00893C12.6259 6.95093 13.3295 7.31677 13.8961 7.95476C13.9292 7.98599 13.9622 8.02168 13.9906 8.05737Z" fill="#FF4545"/>
</g>
<path d="M26.34 12.352V12.936H28.516V12.352H26.34ZM21.924 7.8V8.384H24.996V7.8H21.924ZM26.068 7.28V13.52H26.652V7.856H28.196V13.464H28.804V7.28H26.068ZM24.836 7.8V7.944C24.78 11.368 24.708 12.552 24.524 12.8C24.452 12.904 24.38 12.928 24.26 12.92C24.108 12.92 23.764 12.92 23.388 12.888C23.492 13.056 23.556 13.32 23.564 13.496C23.924 13.52 24.292 13.52 24.516 13.488C24.756 13.464 24.9 13.392 25.044 13.184C25.3 12.832 25.356 11.664 25.42 8.104C25.42 8.024 25.42 7.8 25.42 7.8H24.836ZM23.06 6.392C23.052 9.192 23.06 11.832 21.724 13.24C21.876 13.328 22.084 13.512 22.188 13.648C23.596 12.12 23.636 9.344 23.644 6.392H23.06ZM31.316 6.768V7.376H33.58V6.768H31.316ZM33.276 6.768C33.276 8.272 33.54 11.68 36.74 13.616C36.852 13.472 37.092 13.216 37.228 13.112C34.068 11.24 33.892 8.2 33.892 6.768H33.276ZM33.052 8.336C32.564 10.6 31.564 12.216 29.788 13.144C29.948 13.256 30.22 13.504 30.332 13.632C32.1 12.592 33.156 10.904 33.732 8.464L33.052 8.336ZM39.5 7.928H43.516V8.496H39.5V7.928ZM39.5 6.968H43.516V7.52H39.5V6.968ZM38.916 6.536V8.92H44.108V6.536H38.916ZM37.964 9.368V9.864H45.012V9.368H37.964ZM41.516 10.368V10.856H44.364V10.368H41.516ZM39.004 10.416V10.864H40.98V10.416H39.004ZM39.004 11.424V11.872H40.98V11.424H39.004ZM42.356 10.816L41.868 10.96C42.396 12.272 43.428 13.224 44.836 13.64C44.916 13.496 45.076 13.28 45.204 13.168C43.844 12.832 42.82 11.96 42.356 10.816ZM44.18 10.368V10.464C43.74 11.808 42.508 12.744 41.228 13.128C41.34 13.24 41.492 13.456 41.556 13.6C42.948 13.12 44.236 12.12 44.764 10.496L44.396 10.344L44.292 10.368H44.18ZM37.892 12.648L37.948 13.184C38.772 13.088 39.884 12.952 40.964 12.824V12.328C39.836 12.456 38.676 12.584 37.892 12.648ZM40.66 9.528V13.64H41.236V9.528H40.66ZM38.652 9.536V12.792H39.212V9.536H38.652ZM46.124 8.152V9.544H46.7V8.632H52.276V9.6H52.868V8.152H46.124ZM52.052 6.28C50.756 6.544 48.348 6.704 46.388 6.76C46.436 6.88 46.5 7.088 46.508 7.216C48.508 7.168 50.932 7.008 52.452 6.696L52.052 6.28ZM47.108 7.296C47.34 7.584 47.572 7.992 47.652 8.256L48.172 8.04C48.076 7.76 47.836 7.376 47.588 7.096L47.108 7.296ZM48.852 7.144C49.068 7.456 49.268 7.888 49.324 8.16L49.852 7.976C49.788 7.688 49.572 7.272 49.348 6.968L48.852 7.144ZM50.996 9.304C51.452 9.672 51.988 10.216 52.228 10.576L52.668 10.248C52.42 9.888 51.876 9.368 51.412 9.016L50.996 9.304ZM48.748 8.888C49.172 9.072 49.676 9.376 49.94 9.592L50.252 9.232C49.996 9.016 49.468 8.736 49.052 8.56L48.748 8.888ZM51.54 6.96C51.364 7.328 51.02 7.856 50.772 8.192L51.212 8.384C51.484 8.072 51.828 7.608 52.116 7.184L51.54 6.96ZM51.06 11.032V11.128C50.22 12.368 48.124 12.952 45.924 13.16C46.036 13.28 46.188 13.52 46.244 13.664C48.476 13.384 50.66 12.752 51.676 11.264L51.3 11.016L51.196 11.032H51.06ZM48.076 11.352L47.604 11.552C48.628 12.792 50.58 13.432 52.756 13.656C52.836 13.496 52.98 13.248 53.108 13.12C50.948 12.952 48.996 12.392 48.076 11.352ZM48.62 10.368C48.044 11.088 47.028 11.704 46.036 12.088C46.156 12.176 46.364 12.376 46.46 12.488C47.428 12.056 48.484 11.368 49.148 10.56L48.62 10.368ZM48.1 9.104V9.872C48.1 10.384 48.276 10.504 49.004 10.504C49.148 10.504 50.14 10.504 50.3 10.504C50.82 10.504 50.98 10.352 51.036 9.704C50.884 9.672 50.676 9.608 50.556 9.528C50.532 10 50.476 10.056 50.228 10.056C50.012 10.056 49.204 10.056 49.052 10.056C48.716 10.056 48.66 10.032 48.66 9.864V9.104H48.1ZM47.316 9.112C47.14 9.592 46.812 10.064 46.332 10.328L46.756 10.672C47.284 10.36 47.588 9.824 47.78 9.304L47.316 9.112ZM48.252 11.032L47.804 11.48H51.196V11.032H48.252Z" fill="#FF4545"/>
<rect x="1" y="0.5" width="61" height="20" rx="9.5" stroke="#FF4545"/>
<defs>
<clipPath id="clip0_10_1261">
<rect width="9" height="7" fill="white" transform="translate(9.5 7)"/>
</clipPath>
</defs>
</svg>
