<svg width="20" height="24" viewBox="0 0 20 24" fill="none" xmlns="http://www.w3.org/2000/svg">
<g clip-path="url(#clip0_10_3845)">
<path d="M9.91048 24.0001C7.57101 21.2718 5.19656 18.6533 3.00139 15.8931C1.48402 13.9842 0.462231 11.7934 0.501587 9.25586C0.574467 4.55933 4.08294 0.703837 8.861 0.0766693C13.4321 -0.521596 17.9099 2.45239 19.1445 6.90181C19.8398 9.40615 19.5176 11.8166 18.1577 13.9914C17.0368 15.7819 15.7439 17.4798 14.3926 19.1113C13.0167 20.7732 11.4774 22.3035 9.91048 24.0001ZM17.786 9.46106C17.8093 5.19517 14.3577 1.73129 10.0548 1.70095C5.71401 1.6706 2.19242 5.11713 2.1895 9.40181C2.18659 13.7038 5.66883 17.1749 9.99503 17.1807C14.2731 17.1865 17.7627 13.7284 17.786 9.46106Z" fill="#34A853"/>
<path d="M17.7859 9.46098C17.7625 13.7269 14.273 17.1864 9.99492 17.1792C5.66872 17.1734 2.18648 13.7023 2.18939 9.40029C2.19231 5.11705 5.7139 1.66907 10.0547 1.69942C14.3576 1.73121 17.8092 5.19653 17.7859 9.46098ZM16.6343 9.513C16.7014 5.91329 13.7774 2.92919 10.1042 2.85115C6.43688 2.77167 3.40504 5.68497 3.33799 9.35404C3.2724 12.9407 6.20512 15.9393 9.87102 16.0303C13.5136 16.1185 16.5673 13.1777 16.6343 9.513Z" fill="white"/>
<path d="M16.6343 9.513C16.5658 13.1777 13.5136 16.1199 9.87102 16.0289C6.20512 15.9379 3.2724 12.9393 3.33799 9.3526C3.40504 5.68352 6.43688 2.77167 10.1042 2.84971C13.7774 2.92919 16.7014 5.91185 16.6343 9.513ZM9.15533 11.2803C9.90892 11.2803 10.5386 11.2991 11.1668 11.2775C12.8139 11.2211 14.085 9.94075 14.0777 8.36416C14.0719 6.77745 12.795 5.51878 11.1406 5.48988C10.0969 5.4711 9.0533 5.51445 8.0111 5.47399C7.4164 5.45086 7.20796 5.62861 7.2167 6.24277C7.25023 8.40751 7.22982 10.5723 7.22982 12.7384C7.22982 14.0925 7.22982 14.0795 8.60289 14.0058C9.00228 13.9841 9.16991 13.8512 9.15825 13.4465C9.14221 12.7529 9.15533 12.0592 9.15533 11.2803Z" fill="#34A853"/>
<path d="M9.1553 11.2804C9.1553 12.0607 9.14073 12.7529 9.16113 13.4451C9.17279 13.8497 9.00517 13.9827 8.60578 14.0043C7.23125 14.078 7.23271 14.0925 7.23271 12.737C7.23271 10.5723 7.25312 8.40608 7.21959 6.24134C7.20939 5.62862 7.41928 5.44943 8.01399 5.47255C9.05619 5.51301 10.1013 5.46966 11.1435 5.48845C12.7979 5.51735 14.0733 6.77747 14.0806 8.36273C14.0864 9.93932 12.8154 11.2197 11.1697 11.276C10.5386 11.2977 9.90889 11.2804 9.1553 11.2804ZM9.19174 9.56504C9.92347 9.56504 10.5983 9.59394 11.2674 9.55637C11.9029 9.52169 12.3358 9.03758 12.3591 8.42775C12.3825 7.8107 12.002 7.27024 11.3694 7.20955C10.6596 7.14163 9.9395 7.19365 9.19029 7.19365C9.19174 7.98989 9.19174 8.72255 9.19174 9.56504Z" fill="white"/>
<path d="M9.19177 9.56502C9.19177 8.72398 9.19177 7.98988 9.19177 7.19364C9.93953 7.19364 10.661 7.14161 11.3709 7.20953C12.0035 7.27023 12.3854 7.81069 12.3606 8.42774C12.3373 9.03901 11.9044 9.52167 11.2689 9.55635C10.5969 9.59392 9.92349 9.56502 9.19177 9.56502Z" fill="#34A853"/>
</g>
<defs>
<clipPath id="clip0_10_3845">
<rect width="19" height="24" fill="white" transform="translate(0.5)"/>
</clipPath>
</defs>
</svg>
