<svg width="31" height="22" viewBox="0 0 31 22" fill="none" xmlns="http://www.w3.org/2000/svg">
<path d="M28.4935 22H2.81869C1.538 22 0.5 20.9955 0.5 19.7562V2.24375C0.5 1.00445 1.538 0 2.81869 0H28.4935C29.7742 0 30.8122 1.00445 30.8122 2.24375V19.7562C30.8122 20.9955 29.7742 22 28.4935 22Z" fill="#0480C9"/>
<path d="M22.298 13.2666C22.298 14.9733 22.2678 16.6808 22.3134 18.3861C22.3304 19.0106 21.5861 19.2806 21.1232 19.0383C20.8913 18.9163 20.8302 18.7249 20.831 18.4773C20.838 16.5462 20.8364 14.6158 20.831 12.6847C20.8302 12.5351 20.923 12.3264 20.6084 12.313C20.3278 12.301 20.2305 12.3653 20.2328 12.6578C20.2467 14.5635 20.2235 16.4699 20.2513 18.3756C20.2591 18.8947 19.8347 19.1691 19.3749 19.119C18.9683 19.0749 18.7535 18.8535 18.748 18.4564C18.7411 17.8962 18.7457 17.3352 18.745 16.7743C18.745 13.9337 18.7442 11.0939 18.7442 8.25328C18.7442 8.15381 18.745 8.05359 18.7419 7.95411C18.738 7.80827 18.6522 7.71179 18.5108 7.70057C18.3446 7.68636 18.2511 7.79256 18.2287 7.94589C18.2147 8.04386 18.2194 8.14483 18.2194 8.24431C18.2194 9.40283 18.2209 10.5614 18.2194 11.7199C18.2186 12.0953 18.037 12.3122 17.7363 12.3122C17.4496 12.3122 17.2123 12.0662 17.2108 11.7333C17.2053 10.2757 17.2007 8.81796 17.2108 7.36101C17.2154 6.72454 17.918 6.08881 18.7202 6.06338C19.9422 6.02449 21.1672 6.03047 22.3899 6.05889C23.0129 6.0731 23.6853 6.73426 23.7865 7.42683C23.9179 8.32583 23.986 9.23305 24.081 10.1365C24.1034 10.3467 24.1266 10.5576 24.1421 10.7685C24.1521 10.9046 24.2093 11.0939 24.1405 11.1694C23.7935 11.5509 24.2217 11.7573 24.3214 12.0318C24.3747 12.1784 24.5022 12.1933 24.636 12.1073C24.6576 12.0938 24.6854 12.0864 24.7017 12.0692C25.5008 11.2135 26.5558 11.4087 27.5575 11.4409C28.2291 11.4626 28.7841 12.0452 28.8397 12.7715C28.8869 13.3915 28.8691 14.016 28.8768 14.639C28.8799 14.8783 28.7532 15.013 28.5035 15.0227C28.2346 15.0332 28.0877 14.8933 28.0815 14.642C28.0699 14.1813 28.0792 13.7206 28.0761 13.2598C28.0753 13.1357 28.0668 13.0108 28.0545 12.8874C28.0483 12.8238 28.0212 12.7662 27.9393 12.764C27.8404 12.7602 27.8033 12.8216 27.7956 12.9023C27.7878 12.9891 27.7894 13.0766 27.7886 13.1634C27.7847 14.9075 27.7816 16.6517 27.7778 18.395C27.7778 18.4698 27.7801 18.5446 27.7755 18.6194C27.7554 18.9156 27.5861 19.0824 27.2839 19.0876C26.9631 19.0936 26.8233 18.9021 26.8217 18.609C26.8186 17.7242 26.8225 16.8401 26.8163 15.9553C26.8155 15.8424 26.8843 15.6786 26.7189 15.6307C26.5149 15.5717 26.3889 15.624 26.3935 15.8828C26.4082 16.7668 26.3982 17.6516 26.3997 18.5364C26.4005 18.7301 26.3796 18.9156 26.1926 19.0285C25.9367 19.1841 25.5596 19.0442 25.4784 18.7518C25.4359 18.5985 25.4351 18.4317 25.4344 18.2709C25.4297 16.5267 25.4297 14.7826 25.4266 13.0392C25.4266 12.9308 25.4722 12.7872 25.3725 12.7228C25.2427 12.6383 25.1793 12.7991 25.0927 12.8582C24.7163 13.1147 24.2619 13.1342 23.9411 12.8993C23.5446 12.6092 23.3862 12.1163 23.557 11.6885C23.574 11.6458 23.6343 11.6032 23.5871 11.5613C23.1087 11.1417 23.2192 10.5531 23.1226 10.0288C23.0075 9.40433 22.934 8.77308 22.8552 8.14334C22.8297 7.93766 22.8289 7.7073 22.5553 7.70431C22.2485 7.70132 22.2956 7.95262 22.2956 8.14782C22.2972 9.85383 22.298 11.5606 22.298 13.2666Z" fill="white"/>
<path d="M10.1705 8.48894C10.0407 8.33412 9.92549 8.21744 9.83429 8.08431C9.56996 7.69914 9.56841 7.26908 9.85593 6.90335C10.2671 6.37981 10.7579 5.98641 11.5037 6.03726C11.8624 6.06195 12.2249 6.06045 12.5842 6.04175C13.0936 6.01557 13.4715 6.21976 13.7884 6.58773C14.2035 7.07014 14.5358 7.59592 14.7692 8.18379C14.889 8.4852 14.8689 8.75744 14.7151 9.0409C14.4748 9.48367 14.1981 9.904 13.8572 10.278C13.6671 10.4874 13.6145 10.6863 13.6818 10.9556C13.9484 12.0311 14.1625 13.1185 14.4871 14.1806C14.6061 14.5688 14.6309 14.9696 14.484 15.3563C14.365 15.6697 14.1973 15.9128 13.7668 15.8993C13.1485 15.8806 13.1809 15.7722 13.1786 16.4782C13.1763 17.0758 13.1802 17.6734 13.1802 18.271C13.1802 18.7534 12.8849 19.0555 12.4111 19.0615C11.908 19.0675 11.6583 18.8117 11.6575 18.2837C11.6568 17.5866 11.6545 16.8896 11.6622 16.1917C11.6637 16.0063 11.646 15.8881 11.4009 15.8866C11.1567 15.8851 11.0964 15.9741 11.1003 16.1947C11.1127 16.8918 11.1072 17.5889 11.1034 18.2867C11.1011 18.7534 10.7896 19.0555 10.3135 19.0615C9.83506 19.0675 9.58155 18.811 9.57923 18.3009C9.57537 17.6038 9.57228 16.906 9.58542 16.2097C9.59005 15.9696 9.51586 15.8858 9.25848 15.8851C9.01038 15.8843 8.66799 16.013 8.53892 15.8178C8.45081 15.6839 8.6448 15.3855 8.69427 15.1566C8.84189 14.476 8.85348 13.8208 8.53582 13.1544C8.08754 12.2128 8.08832 11.2218 8.43689 10.2428C8.73059 9.4171 9.22757 8.76342 10.1705 8.48894ZM8.94237 10.6519C8.94314 10.7387 8.93 10.8322 8.99801 10.9002C9.30176 11.2016 9.60938 11.5008 9.91699 11.7985C9.968 11.8478 10.0399 11.865 10.0816 11.8007C10.2895 11.4791 10.6845 11.3452 10.8924 11.0184C11.0416 10.7843 11.0972 10.5644 10.9295 10.3341C10.7502 10.0872 10.4619 10.0932 10.2362 10.1942C10.0352 10.2839 9.89998 10.2765 9.70831 10.1987C9.31568 10.0394 8.95551 10.266 8.94237 10.6519ZM13.2899 9.25256C13.4522 8.95639 13.8533 8.81129 13.6841 8.4321C13.5836 8.20772 13.4151 8.01102 13.2698 7.80684C13.2111 7.72382 13.1245 7.64604 13.0117 7.70213C12.9282 7.74401 12.8965 7.84049 12.915 7.92875C13.0063 8.36254 13.0866 8.79932 13.2899 9.25256Z" fill="#F3D7E3"/>
<path d="M2.27072 12.7677C2.27072 11.8709 2.2769 10.9734 2.26608 10.0767C2.26299 9.85529 2.31709 9.76628 2.56442 9.7775C3.00111 9.79695 3.44011 9.79097 3.87757 9.78274C4.47038 9.77152 4.7092 9.44393 4.46806 8.9159C4.11408 8.1433 3.7284 7.38342 3.33809 6.62727C3.18815 6.33783 2.91995 6.16057 2.59224 6.07755C2.54278 6.06484 2.47786 6.07082 2.44462 6.04165C2.06822 5.71631 2.34183 5.29299 2.27768 4.91903C2.23207 4.65501 2.4709 4.71036 2.62471 4.7126C3.42388 4.72233 4.00278 5.00803 4.34826 5.77539C4.89161 6.98328 5.52074 8.15527 6.10814 9.34446C6.19471 9.51947 6.30214 9.63914 6.5 9.71917C7.25203 10.0243 7.63693 10.5658 7.62147 11.378C7.60292 12.3743 7.61838 13.3712 7.61916 14.3675C7.61993 15.3278 7.20411 15.7593 6.22176 15.7309C5.81985 15.719 5.72247 15.8349 5.74102 16.2029C5.77194 16.8117 5.75261 17.4235 5.74875 18.0338C5.74488 18.7413 5.39476 19.0666 4.64351 19.0681C3.90539 19.0696 3.5259 18.7316 3.51431 18.039C3.50349 17.3786 3.50426 16.7182 3.51663 16.0585C3.52126 15.8147 3.46948 15.713 3.17887 15.7182C2.26917 15.7354 2.26917 15.7212 2.26917 14.823C2.26917 14.1379 2.26917 13.4528 2.26917 12.7677C2.26995 12.7677 2.27072 12.7677 2.27072 12.7677ZM6.01076 12.6959C6.01308 11.9629 5.40636 11.3646 4.6466 11.3504C3.88839 11.3362 3.2237 11.9637 3.22679 12.6899C3.22911 13.4236 3.88066 14.0429 4.64119 14.0361C5.39631 14.0287 6.00921 13.4288 6.01076 12.6959Z" fill="white"/>
<path d="M16.1326 12.6196C16.1326 14.6741 16.1342 16.7279 16.1287 18.7824C16.1287 18.9186 16.2207 19.1302 15.927 19.1302C15.7608 19.1302 15.6534 19.1085 15.6689 18.9103C15.682 18.7368 15.6704 18.5618 15.6704 18.3875C15.6704 14.4034 15.6689 10.42 15.6751 6.43582C15.6751 6.31241 15.5645 6.11571 15.8149 6.07308C16.0708 6.02895 16.1372 6.1389 16.1357 6.38197C16.1264 8.46118 16.1303 10.5404 16.1303 12.6189C16.1311 12.6196 16.1318 12.6196 16.1326 12.6196Z" fill="white"/>
<path d="M20.3982 2.89221C21.1742 2.89221 21.7716 3.46362 21.7747 4.20855C21.777 4.95796 21.1502 5.56452 20.3758 5.56078C19.6531 5.55779 18.9938 4.90635 19.0039 4.20481C19.0132 3.47708 19.6346 2.89221 20.3982 2.89221Z" fill="white"/>
<path d="M11.6382 5.59071C10.8723 5.58397 10.2779 5.00359 10.2756 4.26091C10.2733 3.5459 10.9155 2.92363 11.6498 2.92887C12.4041 2.9341 13.0286 3.53318 13.0302 4.25418C13.0325 5.01107 12.4211 5.59818 11.6382 5.59071Z" fill="#F3D7E3"/>
<path d="M26.62 11.0625C26.0867 11.0461 25.6987 10.6482 25.7227 10.1418C25.7459 9.65867 26.208 9.24283 26.6934 9.26826C27.2074 9.29518 27.5962 9.70803 27.583 10.2121C27.5691 10.7237 27.1664 11.0797 26.62 11.0625Z" fill="white"/>
<path d="M8.94231 10.6519C8.95468 10.2667 9.31562 10.0393 9.70747 10.1986C9.89915 10.2764 10.0344 10.2831 10.2354 10.1941C10.4618 10.0932 10.7493 10.0872 10.9286 10.334C11.0964 10.5644 11.0407 10.7842 10.8916 11.0183C10.6829 11.3452 10.2879 11.4791 10.0808 11.8007C10.039 11.865 9.96717 11.8485 9.91616 11.7984C9.60854 11.5 9.30171 11.2016 8.99718 10.9002C8.92994 10.8321 8.94385 10.7379 8.94231 10.6519Z" fill="white"/>
</svg>
