<svg width="128" height="253" viewBox="0 0 128 253" fill="none" xmlns="http://www.w3.org/2000/svg">
<path d="M34.3 9.76V10.42H37.6V9.76H34.3ZM34.79 2.63V3.28H37.43V2.63H34.79ZM34.01 7.18V10.78H34.7V7.83H37.22V10.75H37.94V7.18H34.01ZM37.16 2.63V2.76C36.51 4.85 34.74 6.46 32.97 7.14C33.12 7.28 33.32 7.54 33.41 7.71C35.31 6.9 37.14 5.26 37.91 2.8L37.43 2.6L37.29 2.63H37.16ZM34.96 1.6C34.58 2.83 33.89 4 33.07 4.75C33.25 4.86 33.54 5.1 33.66 5.23C34.49 4.4 35.23 3.13 35.68 1.77L34.96 1.6ZM34.76 3.04L34.27 3.45C34.88 4.89 36.2 6.7 38.26 7.59C38.36 7.4 38.57 7.11 38.73 6.97C36.68 6.19 35.34 4.47 34.76 3.04ZM29.89 6.04V9.67H30.52V6.04H29.89ZM30.56 2.68H32.44V4.44H30.56V2.68ZM29.89 2.02V5.1H33.14V2.02H29.89ZM31.3 4.77V9.34H31.98V4.77H31.3ZM29.37 9.59L29.51 10.32C30.56 10.06 32 9.71 33.37 9.37L33.3 8.7C31.86 9.04 30.36 9.39 29.37 9.59ZM31.54 6.55V7.22H33.23V6.55H31.54ZM41.41 6.26H39.43V6.95H40.68V9.18H41.41V6.26ZM41.41 8.81H40.75C40.29 9.24 39.77 9.68 39.33 10L39.72 10.73C40.21 10.29 40.66 9.87 41.09 9.43C41.74 10.22 42.66 10.57 43.99 10.62C45.12 10.66 47.27 10.64 48.39 10.6C48.43 10.38 48.54 10.04 48.64 9.87C47.43 9.95 45.1 9.97 43.98 9.93C42.79 9.88 41.89 9.54 41.41 8.81ZM39.82 2.18C40.41 2.51 41.08 3.02 41.39 3.41L41.92 2.91C41.59 2.53 40.91 2.04 40.32 1.72L39.82 2.18ZM39.48 4.22C40.09 4.54 40.79 5.05 41.12 5.42L41.63 4.9C41.29 4.52 40.56 4.04 39.96 3.75L39.48 4.22ZM44.75 4.81V5.6H45.45V4.81H44.75ZM43.49 3.27H46.87V3.69H43.49V3.27ZM43.49 4.07H46.87V4.5H43.49V4.07ZM43.49 2.48H46.87V2.89H43.49V2.48ZM42.79 2.09V4.89H47.6V2.09H42.79ZM44.82 1.58C44.77 1.77 44.64 2.06 44.54 2.29L45.12 2.41C45.26 2.23 45.43 1.98 45.59 1.69L44.82 1.58ZM42.03 5.31V6.32H42.7V5.74H47.69V6.32H48.37V5.31H42.03ZM44.76 6.52V7.3H45.46V6.52H44.76ZM42 7.13V7.6H48.45V7.13H42ZM44.03 7.98V8.44H46.96V7.98H44.03ZM46.77 7.98V8.06C46.64 8.72 46.52 9.02 46.38 9.13C46.3 9.19 46.22 9.2 46.06 9.2C45.89 9.2 45.45 9.19 44.99 9.15C45.07 9.28 45.13 9.48 45.14 9.61C45.62 9.65 46.07 9.65 46.28 9.64C46.53 9.63 46.71 9.6 46.87 9.48C47.09 9.31 47.24 8.97 47.38 8.23C47.4 8.15 47.41 7.98 47.41 7.98H46.77ZM44.09 7.34C43.92 8.24 43.46 8.79 42.05 9.09C42.18 9.2 42.35 9.45 42.42 9.6C43.99 9.2 44.54 8.51 44.74 7.34H44.09ZM44.05 5.63C43.89 6.19 43.43 6.45 42.31 6.61C42.41 6.7 42.56 6.91 42.62 7.04C43.89 6.81 44.42 6.42 44.6 5.63H44.05ZM45.43 5.51V6.11C45.43 6.62 45.57 6.74 46.16 6.74C46.27 6.74 46.89 6.74 47.01 6.74C47.41 6.74 47.57 6.6 47.62 6.1C47.46 6.06 47.25 6 47.14 5.93C47.12 6.26 47.07 6.3 46.92 6.3C46.79 6.3 46.32 6.3 46.24 6.3C46.03 6.3 46 6.28 46 6.11V5.51H45.43ZM52.14 2.58V3.23H58.55V2.58H52.14ZM54.93 1.64V2.88H55.68V1.64H54.93ZM53.63 4.32H57.02V5.25H53.63V4.32ZM52.91 3.78V5.79H57.78V3.78H52.91ZM51.97 6.37V8.1H52.65V6.97H57.95V8.08H58.64V6.37H51.97ZM53.11 7.65V8.27H57.58V7.65H53.11ZM54.93 7.79V9.98C54.93 10.1 54.89 10.14 54.73 10.14C54.58 10.15 54.04 10.15 53.46 10.13C53.55 10.34 53.66 10.61 53.69 10.82C54.44 10.82 54.95 10.82 55.27 10.71C55.59 10.6 55.67 10.41 55.67 10V7.79H54.93ZM51.64 1.64C51.08 3.16 50.14 4.66 49.15 5.63C49.29 5.8 49.5 6.2 49.58 6.37C50.66 5.25 51.69 3.56 52.35 1.86L51.64 1.64ZM50.6 4.22V10.79H51.32V3.52L51.3 3.51L50.6 4.22ZM59.83 2.52V3.21H68.17V2.52H59.83ZM59.52 8.66V9.35H68.51V8.66H59.52ZM63.59 1.61V10.83H64.36V1.61H63.59ZM61.29 6.18H66.7V7.22H61.29V6.18ZM61.29 4.57H66.7V5.59H61.29V4.57ZM60.57 3.94V7.84H67.45V3.94H60.57ZM74.53 2.68V3.34H77.35V2.68H74.53ZM73.62 7.14V10.81H74.32V7.79H77.11V10.78H77.83V7.14H73.62ZM73.92 9.71V10.37H77.49V9.71H73.92ZM74.82 1.59C74.35 2.8 73.54 3.94 72.62 4.66C72.79 4.77 73.09 5.03 73.21 5.16C74.12 4.37 75 3.12 75.54 1.79L74.82 1.59ZM77.14 2.68V2.81C76.41 4.93 74.41 6.47 72.4 7.1C72.55 7.24 72.74 7.52 72.83 7.71C74.96 6.94 77.02 5.35 77.88 2.87L77.41 2.65L77.28 2.68H77.14ZM74.47 3.2L73.92 3.55C74.6 5.04 76.07 6.7 78.3 7.48C78.4 7.3 78.61 7 78.76 6.86C76.56 6.19 75.09 4.62 74.47 3.2ZM69.51 3.75V4.46H73.03V3.75H69.51ZM71.02 1.6V10.79H71.73V1.6H71.02ZM70.99 4.19C70.69 5.63 69.98 7.36 69.27 8.26C69.41 8.43 69.59 8.72 69.67 8.92C70.42 7.91 71.13 5.96 71.46 4.35L70.99 4.19ZM71.68 4.86L71.31 5.19C71.59 5.55 72.31 6.58 72.55 7.02L73 6.44C72.8 6.17 71.92 5.1 71.68 4.86ZM82.62 3.57H85.33V4.23H82.62V3.57ZM82 3.12V4.68H85.98V3.12H82ZM82.27 6.51H85.68V8.74H82.27V6.51ZM81.67 6.04V9.22H86.31V6.04H81.67ZM83.38 7.33H84.55V7.92H83.38V7.33ZM82.91 6.94V8.32H85.04V6.94H82.91ZM80.99 5.14V5.61H87.02V5.14H80.99ZM83.63 4.38V5.35H84.29V4.38H83.63ZM79.82 2.01V10.79H80.53V2.65H87.46V10.79H88.2V2.01H79.82ZM80.26 9.76V10.4H87.85V9.76H80.26ZM93.6 5.17V9.81C93.6 9.97 93.55 10.02 93.36 10.02C93.17 10.03 92.51 10.03 91.83 10.01C91.95 10.24 92.07 10.57 92.11 10.79C92.99 10.79 93.58 10.78 93.94 10.67C94.29 10.54 94.41 10.31 94.41 9.83V5.17H93.6ZM91.33 6.5C90.9 7.63 90.16 8.73 89.34 9.44C89.54 9.55 89.88 9.76 90.03 9.9C90.83 9.13 91.62 7.93 92.11 6.7L91.33 6.5ZM95.83 6.8C96.56 7.76 97.31 9.07 97.58 9.9L98.33 9.57C98.04 8.72 97.26 7.45 96.52 6.51L95.83 6.8ZM90.49 2.35V3.09H97.52V2.35H90.49ZM89.59 4.77V5.52H98.41V4.77H89.59Z" fill="black"/>
<path d="M42.9988 35C47.4164 35 50.9975 31.4183 50.9975 27C50.9975 22.5817 47.4164 19 42.9988 19C38.5812 19 35 22.5817 35 27C35 31.4183 38.5812 35 42.9988 35Z" fill="#34A853"/>
<path d="M29.04 41.28C28.664 42.088 28.008 42.872 27.328 43.376C27.472 43.472 27.712 43.664 27.824 43.776C28.496 43.216 29.184 42.352 29.624 41.448L29.04 41.28ZM28.76 42.2L28.56 42.744H34.272V42.2H28.76ZM27.424 44.096V44.64H34.576V44.096H27.424ZM27.552 46.008V46.552H34.464V46.008H27.552ZM29.976 42.384V46.272H30.496V42.384H29.976ZM28.544 42.384V46.296H29.088V42.384H28.544ZM31.424 42.384V46.296H31.936V42.384H31.424ZM32.888 42.384V46.296H33.44V42.384H32.888ZM29.76 47.096C29.856 47.576 29.92 48.2 29.92 48.576L30.512 48.488C30.504 48.12 30.416 47.512 30.312 47.04L29.76 47.096ZM31.392 47.096C31.6 47.576 31.8 48.2 31.872 48.584L32.464 48.456C32.384 48.08 32.168 47.456 31.952 47L31.392 47.096ZM33.024 47.048C33.424 47.544 33.88 48.232 34.072 48.656L34.672 48.44C34.456 48.008 33.984 47.336 33.584 46.856L33.024 47.048ZM28.36 46.888C28.16 47.472 27.784 48.08 27.368 48.416L27.936 48.656C28.36 48.272 28.728 47.632 28.936 47.032L28.36 46.888ZM35.664 42.016V42.568H42.336V42.016H35.664ZM35.416 46.928V47.48H42.608V46.928H35.416ZM38.672 41.288V48.664H39.288V41.288H38.672ZM36.832 44.944H41.16V45.776H36.832V44.944ZM36.832 43.656H41.16V44.472H36.832V43.656ZM36.256 43.152V46.272H41.76V43.152H36.256ZM45.512 42.064V42.584H50.64V42.064H45.512ZM47.744 41.312V42.304H48.344V41.312H47.744ZM46.704 43.456H49.416V44.2H46.704V43.456ZM46.128 43.024V44.632H50.024V43.024H46.128ZM45.376 45.096V46.48H45.92V45.576H50.16V46.464H50.712V45.096H45.376ZM46.288 46.12V46.616H49.864V46.12H46.288ZM47.744 46.232V47.984C47.744 48.08 47.712 48.112 47.584 48.112C47.464 48.12 47.032 48.12 46.568 48.104C46.64 48.272 46.728 48.488 46.752 48.656C47.352 48.656 47.76 48.656 48.016 48.568C48.272 48.48 48.336 48.328 48.336 48V46.232H47.744ZM45.112 41.312C44.664 42.528 43.912 43.728 43.12 44.504C43.232 44.64 43.4 44.96 43.464 45.096C44.328 44.2 45.152 42.848 45.68 41.488L45.112 41.312ZM44.28 43.376V48.632H44.856V42.816L44.84 42.808L44.28 43.376ZM51.344 42.576V43.144H54.904V42.576H51.344ZM52.64 44.208V44.76H54.176V44.208H52.64ZM52.808 41.296V42.848H53.4V41.296H52.808ZM53.968 44.208V44.328C53.92 46.896 53.856 47.784 53.72 47.976C53.656 48.064 53.584 48.088 53.472 48.08C53.344 48.08 53.048 48.08 52.712 48.056C52.8 48.208 52.856 48.44 52.872 48.608C53.208 48.624 53.552 48.624 53.744 48.608C53.96 48.576 54.088 48.52 54.216 48.344C54.432 48.064 54.48 47.152 54.536 44.48C54.544 44.4 54.544 44.208 54.544 44.208H53.968ZM55.656 42.776V43.336H58.696V42.776H55.656ZM55.84 41.28C55.608 42.656 55.192 44 54.552 44.848C54.696 44.936 54.96 45.136 55.064 45.24C55.72 44.312 56.184 42.88 56.456 41.368L55.84 41.28ZM57.544 43.08C57.176 45.64 56.328 47.248 54.352 48.136C54.472 48.264 54.648 48.528 54.704 48.664C56.784 47.632 57.696 45.928 58.136 43.144L57.544 43.08ZM55.888 43.288L55.368 43.384C55.808 45.816 56.64 47.744 58.328 48.624C58.416 48.464 58.608 48.232 58.752 48.112C57.128 47.352 56.28 45.504 55.888 43.288ZM52.296 42.856V44.808C52.296 45.936 52.176 47.208 51.192 48.248C51.344 48.352 51.536 48.512 51.64 48.632C52.704 47.504 52.864 46.136 52.864 44.808V42.856H52.296Z" fill="black"/>
<path d="M84.9988 35C89.4164 35 92.9975 31.4183 92.9975 27C92.9975 22.5817 89.4164 19 84.9988 19C80.5812 19 77 22.5817 77 27C77 31.4183 80.5812 35 84.9988 35Z" fill="#FF4545"/>
<path d="M69.504 42.32V42.888H76.512V42.32H69.504ZM71.456 45.176V45.696H75.216V45.176H71.456ZM71.032 43.816V48.64H71.624V44.352H75.12V43.816H71.032ZM74.984 43.816V47.888C74.984 48.008 74.936 48.048 74.8 48.056C74.656 48.056 74.168 48.064 73.632 48.04C73.72 48.208 73.808 48.456 73.832 48.624C74.52 48.624 74.968 48.624 75.224 48.528C75.496 48.432 75.568 48.248 75.568 47.896V43.816H74.984ZM72.12 41.28C71.688 42.888 70.744 44.584 69.312 45.568C69.432 45.688 69.616 45.896 69.696 46.032C71.224 44.96 72.184 43.184 72.728 41.424L72.12 41.28ZM71.456 46.528V47.048H75.216V46.528H71.456ZM77.664 42.016V42.568H84.336V42.016H77.664ZM77.416 46.928V47.48H84.608V46.928H77.416ZM80.672 41.288V48.664H81.288V41.288H80.672ZM78.832 44.944H83.16V45.776H78.832V44.944ZM78.832 43.656H83.16V44.472H78.832V43.656ZM78.256 43.152V46.272H83.76V43.152H78.256ZM87.512 42.064V42.584H92.64V42.064H87.512ZM89.744 41.312V42.304H90.344V41.312H89.744ZM88.704 43.456H91.416V44.2H88.704V43.456ZM88.128 43.024V44.632H92.024V43.024H88.128ZM87.376 45.096V46.48H87.92V45.576H92.16V46.464H92.712V45.096H87.376ZM88.288 46.12V46.616H91.864V46.12H88.288ZM89.744 46.232V47.984C89.744 48.08 89.712 48.112 89.584 48.112C89.464 48.12 89.032 48.12 88.568 48.104C88.64 48.272 88.728 48.488 88.752 48.656C89.352 48.656 89.76 48.656 90.016 48.568C90.272 48.48 90.336 48.328 90.336 48V46.232H89.744ZM87.112 41.312C86.664 42.528 85.912 43.728 85.12 44.504C85.232 44.64 85.4 44.96 85.464 45.096C86.328 44.2 87.152 42.848 87.68 41.488L87.112 41.312ZM86.28 43.376V48.632H86.856V42.816L86.84 42.808L86.28 43.376ZM93.344 42.576V43.144H96.904V42.576H93.344ZM94.64 44.208V44.76H96.176V44.208H94.64ZM94.808 41.296V42.848H95.4V41.296H94.808ZM95.968 44.208V44.328C95.92 46.896 95.856 47.784 95.72 47.976C95.656 48.064 95.584 48.088 95.472 48.08C95.344 48.08 95.048 48.08 94.712 48.056C94.8 48.208 94.856 48.44 94.872 48.608C95.208 48.624 95.552 48.624 95.744 48.608C95.96 48.576 96.088 48.52 96.216 48.344C96.432 48.064 96.48 47.152 96.536 44.48C96.544 44.4 96.544 44.208 96.544 44.208H95.968ZM97.656 42.776V43.336H100.696V42.776H97.656ZM97.84 41.28C97.608 42.656 97.192 44 96.552 44.848C96.696 44.936 96.96 45.136 97.064 45.24C97.72 44.312 98.184 42.88 98.456 41.368L97.84 41.28ZM99.544 43.08C99.176 45.64 98.328 47.248 96.352 48.136C96.472 48.264 96.648 48.528 96.704 48.664C98.784 47.632 99.696 45.928 100.136 43.144L99.544 43.08ZM97.888 43.288L97.368 43.384C97.808 45.816 98.64 47.744 100.328 48.624C100.416 48.464 100.608 48.232 100.752 48.112C99.128 47.352 98.28 45.504 97.888 43.288ZM94.296 42.856V44.808C94.296 45.936 94.176 47.208 93.192 48.248C93.344 48.352 93.536 48.512 93.64 48.632C94.704 47.504 94.864 46.136 94.864 44.808V42.856H94.296Z" fill="black"/>
<line opacity="0.5" x1="1" y1="69.5" x2="127" y2="69.5" stroke="#ACACAC"/>
<path d="M27.14 92.58V93.23H33.55V92.58H27.14ZM29.93 91.64V92.88H30.68V91.64H29.93ZM28.63 94.32H32.02V95.25H28.63V94.32ZM27.91 93.78V95.79H32.78V93.78H27.91ZM26.97 96.37V98.1H27.65V96.97H32.95V98.08H33.64V96.37H26.97ZM28.11 97.65V98.27H32.58V97.65H28.11ZM29.93 97.79V99.98C29.93 100.1 29.89 100.14 29.73 100.14C29.58 100.15 29.04 100.15 28.46 100.13C28.55 100.34 28.66 100.61 28.69 100.82C29.44 100.82 29.95 100.82 30.27 100.71C30.59 100.6 30.67 100.41 30.67 100V97.79H29.93ZM26.64 91.64C26.08 93.16 25.14 94.66 24.15 95.63C24.29 95.8 24.5 96.2 24.58 96.37C25.66 95.25 26.69 93.56 27.35 91.86L26.64 91.64ZM25.6 94.22V100.79H26.32V93.52L26.3 93.51L25.6 94.22ZM34.83 92.52V93.21H43.17V92.52H34.83ZM34.52 98.66V99.35H43.51V98.66H34.52ZM38.59 91.61V100.83H39.36V91.61H38.59ZM36.29 96.18H41.7V97.22H36.29V96.18ZM36.29 94.57H41.7V95.59H36.29V94.57ZM35.57 93.94V97.84H42.45V93.94H35.57ZM47.3 95.71V96.37H53.6V95.71H47.3ZM48.43 97.07V97.68H52.79V97.07H48.43ZM48.92 95.96C48.46 96.95 47.63 97.82 46.71 98.37C46.86 98.48 47.12 98.71 47.22 98.84C48.15 98.22 49.06 97.24 49.57 96.13L48.92 95.96ZM52.65 97.07V97.18C52.51 99.14 52.35 99.89 52.16 100.08C52.08 100.18 52 100.19 51.85 100.19C51.71 100.19 51.38 100.18 51 100.15C51.1 100.31 51.17 100.58 51.17 100.77C51.57 100.79 51.95 100.78 52.17 100.77C52.41 100.75 52.59 100.69 52.75 100.52C53.02 100.23 53.18 99.44 53.33 97.37C53.35 97.26 53.36 97.07 53.36 97.07H52.65ZM48.97 93.79H52.19V94.59H48.97V93.79ZM48.97 92.46H52.19V93.25H48.97V92.46ZM48.29 91.9V95.15H52.89V91.9H48.29ZM44.52 93.77V94.49H47.49V93.77H44.52ZM45.69 91.68V97.83H46.4V91.68H45.69ZM44.33 98.23L44.62 98.98C45.47 98.57 46.56 98.03 47.58 97.51L47.42 96.85C46.28 97.38 45.1 97.91 44.33 98.23ZM51.37 97.18C51.01 98.42 50.17 99.78 49.23 100.41C49.42 100.52 49.65 100.69 49.78 100.84C50.69 100.15 51.52 98.73 51.9 97.46L51.37 97.18ZM49.81 97.21C49.32 98.26 48.27 99.41 47.28 99.95C47.46 100.06 47.67 100.25 47.79 100.41C48.76 99.79 49.81 98.6 50.32 97.51L49.81 97.21ZM56.83 92.55V93.22H63.56V92.55H56.83ZM58.09 96.65V97.16H58.88V96.65H58.09ZM59.76 94.56V100.69H60.44V94.56H59.76ZM62.57 95.43V100.06C62.57 100.18 62.54 100.21 62.42 100.21C62.31 100.22 61.91 100.22 61.48 100.21C61.56 100.38 61.64 100.61 61.67 100.78C62.29 100.78 62.7 100.78 62.94 100.68C63.18 100.58 63.25 100.41 63.25 100.06V95.43H62.57ZM57.06 95.43V100.79H57.71V96.08H62.91V95.43H57.06ZM54.81 92.25C55.37 92.53 56.06 92.99 56.38 93.33L56.83 92.72C56.49 92.4 55.8 91.97 55.24 91.71L54.81 92.25ZM54.37 94.94C54.96 95.2 55.67 95.62 56.02 95.93L56.45 95.32C56.1 95.01 55.38 94.62 54.79 94.39L54.37 94.94ZM54.58 100.28L55.25 100.68C55.69 99.75 56.19 98.52 56.57 97.48L55.97 97.08C55.56 98.2 54.99 99.51 54.58 100.28ZM58.33 91.6V94.72H61.95V91.6H61.22V94.07H59.05V91.6H58.33ZM58.53 96.65V96.91H58.65C58.71 98.06 58.98 98.97 59.47 99.46C59.54 99.34 59.72 99.18 59.82 99.12C59.36 98.69 59.1 97.79 59.05 96.65H58.53ZM58.54 97.54C58.47 98.16 58.23 98.83 57.75 99.21C57.86 99.28 58.01 99.43 58.08 99.54C58.63 99.07 58.9 98.31 58.99 97.54H58.54ZM60.81 96.65V97.16H61.57V96.65H60.81ZM61.23 96.65V96.91H61.36C61.42 98.06 61.73 98.95 62.24 99.44C62.33 99.32 62.5 99.16 62.61 99.08C62.11 98.68 61.81 97.79 61.76 96.65H61.23ZM61.25 97.54C61.18 98.13 60.94 98.78 60.44 99.14C60.56 99.2 60.71 99.36 60.78 99.46C61.35 99.01 61.62 98.29 61.72 97.54H61.25ZM64.83 92.52V93.21H73.17V92.52H64.83ZM64.52 98.66V99.35H73.51V98.66H64.52ZM68.59 91.61V100.83H69.36V91.61H68.59ZM66.29 96.18H71.7V97.22H66.29V96.18ZM66.29 94.57H71.7V95.59H66.29V94.57ZM65.57 93.94V97.84H72.45V93.94H65.57ZM78.58 91.61V93.01H79.35V91.61H78.58ZM78.58 97.32V100.84H79.35V97.32H78.58ZM74.53 98.1V98.79H83.47V98.1H74.53ZM74.84 92.73V93.42H83.19V92.73H74.84ZM82.4 93.69C82.02 94.09 81.34 94.63 80.85 94.97L81.39 95.29C81.9 94.97 82.55 94.51 83.06 94.04L82.4 93.69ZM78.42 93.26C78.17 93.69 77.73 94.34 77.38 94.74L77.87 94.97C78.24 94.59 78.69 94.03 79.07 93.51L78.42 93.26ZM79.88 94.02C79.24 94.92 78.16 96.16 77.31 96.91L77.76 97.17C78.61 96.45 79.7 95.28 80.48 94.31L79.88 94.02ZM76.95 94.73C77.54 95.1 78.27 95.65 78.62 96.02L79.01 95.52C78.65 95.16 77.9 94.64 77.33 94.3L76.95 94.73ZM76.83 96.67L76.93 97.32C77.96 97.25 79.33 97.16 80.69 97.05V96.5C79.25 96.57 77.8 96.64 76.83 96.67ZM79.51 95.77C80 96.33 80.53 97.12 80.75 97.63L81.33 97.33C81.1 96.83 80.55 96.07 80.05 95.52L79.51 95.77ZM74.49 96.88L74.87 97.49C75.53 97.19 76.36 96.8 77.16 96.42L77.02 95.85C76.09 96.24 75.13 96.64 74.49 96.88ZM74.85 94.25C75.41 94.57 76.09 95.05 76.43 95.38L76.95 94.91C76.6 94.59 75.9 94.13 75.35 93.84L74.85 94.25ZM80.66 96.16C81.44 96.56 82.44 97.18 82.93 97.59L83.48 97.11C82.96 96.7 81.95 96.12 81.18 95.74L80.66 96.16ZM87.62 93.57H90.33V94.23H87.62V93.57ZM87 93.12V94.68H90.98V93.12H87ZM87.27 96.51H90.68V98.74H87.27V96.51ZM86.67 96.04V99.22H91.31V96.04H86.67ZM88.38 97.33H89.55V97.92H88.38V97.33ZM87.91 96.94V98.32H90.04V96.94H87.91ZM85.99 95.14V95.61H92.02V95.14H85.99ZM88.63 94.38V95.35H89.29V94.38H88.63ZM84.82 92.01V100.79H85.53V92.65H92.46V100.79H93.2V92.01H84.82ZM85.26 99.76V100.4H92.85V99.76H85.26ZM98.6 95.17V99.81C98.6 99.97 98.55 100.02 98.36 100.02C98.17 100.03 97.51 100.03 96.83 100.01C96.95 100.24 97.07 100.57 97.11 100.79C97.99 100.79 98.58 100.78 98.94 100.67C99.29 100.54 99.41 100.31 99.41 99.83V95.17H98.6ZM96.33 96.5C95.9 97.63 95.16 98.73 94.34 99.44C94.54 99.55 94.88 99.76 95.03 99.9C95.83 99.13 96.62 97.93 97.11 96.7L96.33 96.5ZM100.83 96.8C101.56 97.76 102.31 99.07 102.58 99.9L103.33 99.57C103.04 98.72 102.26 97.45 101.52 96.51L100.83 96.8ZM95.49 92.35V93.09H102.52V92.35H95.49ZM94.59 94.77V95.52H103.41V94.77H94.59Z" fill="black"/>
<g clip-path="url(#clip0_10_3830)">
<path d="M17.9105 133C15.571 130.272 13.1966 127.653 11.0014 124.893C9.48402 122.984 8.46223 120.793 8.50159 118.256C8.57447 113.559 12.0829 109.704 16.861 109.077C21.4321 108.478 25.9099 111.452 27.1445 115.902C27.8398 118.406 27.5176 120.817 26.1577 122.991C25.0368 124.782 23.7439 126.48 22.3926 128.111C21.0167 129.773 19.4774 131.304 17.9105 133ZM25.786 118.461C25.8093 114.195 22.3577 110.731 18.0548 110.701C13.714 110.671 10.1924 114.117 10.1895 118.402C10.1866 122.704 13.6688 126.175 17.995 126.181C22.2731 126.186 25.7627 122.728 25.786 118.461Z" fill="#34A853"/>
<path d="M25.7859 118.461C25.7625 122.727 22.273 126.186 17.9949 126.179C13.6687 126.173 10.1865 122.702 10.1894 118.4C10.1923 114.117 13.7139 110.669 18.0547 110.699C22.3576 110.731 25.8092 114.197 25.7859 118.461ZM24.6343 118.513C24.7014 114.913 21.7774 111.929 18.1042 111.851C14.4369 111.772 11.405 114.685 11.338 118.354C11.2724 121.941 14.2051 124.939 17.871 125.03C21.5136 125.118 24.5673 122.178 24.6343 118.513Z" fill="white"/>
<path d="M24.6343 118.513C24.5658 122.178 21.5136 125.12 17.871 125.029C14.2051 124.938 11.2724 121.939 11.338 118.353C11.405 114.684 14.4369 111.772 18.1042 111.85C21.7774 111.929 24.7014 114.912 24.6343 118.513ZM17.1553 120.28C17.9089 120.28 18.5386 120.299 19.1668 120.277C20.8139 120.221 22.085 118.941 22.0777 117.364C22.0719 115.777 20.795 114.519 19.1406 114.49C18.0969 114.471 17.0533 114.514 16.0111 114.474C15.4164 114.451 15.208 114.629 15.2167 115.243C15.2502 117.408 15.2298 119.572 15.2298 121.738C15.2298 123.092 15.2298 123.079 16.6029 123.006C17.0023 122.984 17.1699 122.851 17.1582 122.447C17.1422 121.753 17.1553 121.059 17.1553 120.28Z" fill="#34A853"/>
<path d="M17.1553 120.28C17.1553 121.061 17.1407 121.753 17.1611 122.445C17.1728 122.85 17.0052 122.983 16.6058 123.004C15.2313 123.078 15.2327 123.092 15.2327 121.737C15.2327 119.572 15.2531 117.406 15.2196 115.241C15.2094 114.629 15.4193 114.449 16.014 114.473C17.0562 114.513 18.1013 114.47 19.1435 114.488C20.7979 114.517 22.0733 115.777 22.0806 117.363C22.0864 118.939 20.8154 120.22 19.1697 120.276C18.5386 120.298 17.9089 120.28 17.1553 120.28ZM17.1917 118.565C17.9235 118.565 18.5983 118.594 19.2674 118.556C19.9029 118.522 20.3358 118.038 20.3591 117.428C20.3825 116.811 20.002 116.27 19.3694 116.21C18.6596 116.142 17.9395 116.194 17.1903 116.194C17.1917 116.99 17.1917 117.723 17.1917 118.565Z" fill="white"/>
<path d="M17.1918 118.565C17.1918 117.724 17.1918 116.99 17.1918 116.194C17.9395 116.194 18.661 116.142 19.3709 116.21C20.0035 116.27 20.3854 116.811 20.3606 117.428C20.3373 118.039 19.9044 118.522 19.2689 118.556C18.5969 118.594 17.9235 118.565 17.1918 118.565Z" fill="#34A853"/>
</g>
<path d="M4.204 139.4V145.808C4.204 145.968 4.148 146.024 3.98 146.024C3.82 146.032 3.244 146.04 2.652 146.016C2.756 146.192 2.868 146.472 2.9 146.648C3.66 146.648 4.156 146.632 4.444 146.528C4.732 146.432 4.852 146.256 4.852 145.808V139.4H4.204ZM6.14 141.44C6.82 142.584 7.468 144.088 7.66 145.032L8.3 144.776C8.092 143.808 7.412 142.344 6.716 141.216L6.14 141.44ZM2.108 141.272C1.908 142.352 1.468 143.736 0.756 144.584C0.916 144.648 1.18 144.792 1.324 144.904C2.052 144.008 2.516 142.56 2.78 141.384L2.108 141.272ZM8.852 140.592V141.152H12.26V140.592H8.852ZM10.036 142.256V142.808H11.484V142.256H10.036ZM10.268 139.296V140.792H10.86V139.296H10.268ZM14.06 139.976C14.436 140.992 15.14 142.096 15.948 142.752C16.028 142.568 16.156 142.328 16.268 142.168C15.5 141.616 14.764 140.464 14.348 139.288H13.732C13.42 140.376 12.724 141.584 11.924 142.216C12.028 142.36 12.164 142.6 12.228 142.76C13.044 142.096 13.732 140.952 14.06 139.976ZM9.724 140.92C9.708 143.064 9.644 145.12 8.732 146.248C8.884 146.352 9.092 146.536 9.188 146.672C10.18 145.416 10.276 143.24 10.316 140.92H9.724ZM11.3 142.256V142.376C11.252 144.928 11.188 145.808 11.044 146C10.98 146.088 10.916 146.112 10.796 146.104C10.668 146.104 10.372 146.104 10.036 146.08C10.132 146.232 10.188 146.464 10.204 146.624C10.54 146.648 10.876 146.648 11.068 146.632C11.284 146.6 11.42 146.544 11.548 146.368C11.756 146.088 11.804 145.192 11.86 142.536C11.868 142.448 11.868 142.256 11.868 142.256H11.3ZM13.196 142.744C13.74 143.096 14.372 143.616 14.668 143.992L15.084 143.568C14.78 143.2 14.132 142.704 13.588 142.368L13.196 142.744ZM12.548 144.912C13.524 145.368 14.692 146.104 15.26 146.648L15.644 146.12C15.068 145.584 13.876 144.88 12.908 144.456L12.548 144.912ZM18.836 146.072C18.5267 146.072 18.2147 146.027 17.9 145.936C17.5907 145.845 17.3213 145.712 17.092 145.536C17.0227 145.488 16.9773 145.435 16.956 145.376C16.9347 145.312 16.9293 145.253 16.94 145.2C16.956 145.141 16.9853 145.093 17.028 145.056C17.0707 145.013 17.1213 144.989 17.18 144.984C17.244 144.979 17.3133 145 17.388 145.048C17.6227 145.203 17.8573 145.315 18.092 145.384C18.3267 145.453 18.5693 145.488 18.82 145.488C19.092 145.488 19.3213 145.448 19.508 145.368C19.6947 145.288 19.836 145.171 19.932 145.016C20.028 144.856 20.076 144.661 20.076 144.432C20.076 144.101 19.9667 143.851 19.748 143.68C19.5293 143.509 19.212 143.424 18.796 143.424H18.228C18.1267 143.424 18.0493 143.4 17.996 143.352C17.9427 143.299 17.916 143.227 17.916 143.136C17.916 143.051 17.9427 142.984 17.996 142.936C18.0493 142.883 18.1267 142.856 18.228 142.856H18.74C18.9853 142.856 19.1933 142.813 19.364 142.728C19.54 142.643 19.676 142.523 19.772 142.368C19.868 142.208 19.916 142.016 19.916 141.792C19.916 141.493 19.82 141.267 19.628 141.112C19.436 140.952 19.1587 140.872 18.796 140.872C18.556 140.872 18.3293 140.907 18.116 140.976C17.9027 141.045 17.692 141.163 17.484 141.328C17.42 141.376 17.356 141.4 17.292 141.4C17.2333 141.395 17.1827 141.376 17.14 141.344C17.1027 141.307 17.0733 141.259 17.052 141.2C17.036 141.141 17.0387 141.083 17.06 141.024C17.0813 140.96 17.1267 140.901 17.196 140.848C17.4093 140.667 17.66 140.528 17.948 140.432C18.236 140.336 18.532 140.288 18.836 140.288C19.1987 140.288 19.508 140.347 19.764 140.464C20.0253 140.576 20.2253 140.741 20.364 140.96C20.5027 141.173 20.572 141.432 20.572 141.736C20.572 141.965 20.5267 142.176 20.436 142.368C20.3507 142.555 20.228 142.715 20.068 142.848C19.9133 142.981 19.724 143.077 19.5 143.136V143.048C19.8893 143.112 20.1907 143.272 20.404 143.528C20.6227 143.779 20.732 144.096 20.732 144.48C20.732 144.805 20.6547 145.088 20.5 145.328C20.3507 145.563 20.1347 145.747 19.852 145.88C19.5693 146.008 19.2307 146.072 18.836 146.072ZM23.6969 146.072C23.0515 146.072 22.5609 145.824 22.2249 145.328C21.8889 144.832 21.7209 144.115 21.7209 143.176C21.7209 142.547 21.7955 142.019 21.9449 141.592C22.0942 141.16 22.3155 140.835 22.6089 140.616C22.9075 140.397 23.2702 140.288 23.6969 140.288C24.3475 140.288 24.8382 140.533 25.1689 141.024C25.5049 141.509 25.6729 142.224 25.6729 143.168C25.6729 143.797 25.5982 144.328 25.4489 144.76C25.2995 145.192 25.0782 145.52 24.7849 145.744C24.4915 145.963 24.1289 146.072 23.6969 146.072ZM23.6969 145.504C24.1449 145.504 24.4755 145.315 24.6889 144.936C24.9075 144.552 25.0169 143.963 25.0169 143.168C25.0169 142.368 24.9075 141.784 24.6889 141.416C24.4755 141.043 24.1449 140.856 23.6969 140.856C23.2542 140.856 22.9235 141.043 22.7049 141.416C22.4862 141.789 22.3769 142.373 22.3769 143.168C22.3769 143.963 22.4862 144.552 22.7049 144.936C22.9235 145.315 23.2542 145.504 23.6969 145.504ZM28.4938 146.008C28.4564 146.077 28.4111 146.123 28.3578 146.144C28.3044 146.171 28.2511 146.176 28.1978 146.16C28.1444 146.149 28.0991 146.123 28.0618 146.08C28.0244 146.043 28.0004 145.995 27.9898 145.936C27.9844 145.877 28.0004 145.813 28.0378 145.744L31.1258 140.368C31.1631 140.299 31.2084 140.253 31.2618 140.232C31.3151 140.205 31.3684 140.2 31.4218 140.216C31.4751 140.227 31.5204 140.253 31.5578 140.296C31.5951 140.339 31.6164 140.389 31.6218 140.448C31.6324 140.507 31.6191 140.568 31.5818 140.632L28.4938 146.008ZM27.9018 143.744C27.4751 143.744 27.1418 143.592 26.9018 143.288C26.6618 142.984 26.5418 142.56 26.5418 142.016C26.5418 141.653 26.5951 141.344 26.7018 141.088C26.8138 140.832 26.9711 140.637 27.1738 140.504C27.3764 140.365 27.6191 140.296 27.9018 140.296C28.3231 140.296 28.6538 140.448 28.8938 140.752C29.1391 141.051 29.2618 141.472 29.2618 142.016C29.2618 142.379 29.2058 142.688 29.0938 142.944C28.9871 143.2 28.8324 143.397 28.6298 143.536C28.4271 143.675 28.1844 143.744 27.9018 143.744ZM27.9018 143.272C28.0671 143.272 28.2084 143.224 28.3258 143.128C28.4484 143.032 28.5418 142.891 28.6058 142.704C28.6698 142.517 28.7018 142.288 28.7018 142.016C28.7018 141.6 28.6298 141.288 28.4858 141.08C28.3418 140.872 28.1471 140.768 27.9018 140.768C27.7364 140.768 27.5924 140.816 27.4698 140.912C27.3524 141.003 27.2618 141.141 27.1978 141.328C27.1338 141.509 27.1018 141.739 27.1018 142.016C27.1018 142.432 27.1711 142.747 27.3098 142.96C27.4538 143.168 27.6511 143.272 27.9018 143.272ZM31.7258 146.072C31.3044 146.072 30.9711 145.92 30.7258 145.616C30.4858 145.312 30.3658 144.888 30.3658 144.344C30.3658 143.981 30.4191 143.672 30.5258 143.416C30.6378 143.16 30.7951 142.965 30.9978 142.832C31.2058 142.693 31.4484 142.624 31.7258 142.624C32.1524 142.624 32.4858 142.776 32.7258 143.08C32.9658 143.379 33.0858 143.8 33.0858 144.344C33.0858 144.707 33.0324 145.019 32.9258 145.28C32.8191 145.536 32.6644 145.733 32.4618 145.872C32.2591 146.005 32.0138 146.072 31.7258 146.072ZM31.7258 145.6C31.8964 145.6 32.0404 145.555 32.1578 145.464C32.2751 145.368 32.3658 145.227 32.4298 145.04C32.4938 144.853 32.5258 144.621 32.5258 144.344C32.5258 143.928 32.4538 143.616 32.3098 143.408C32.1711 143.2 31.9764 143.096 31.7258 143.096C31.5604 143.096 31.4164 143.144 31.2938 143.24C31.1764 143.331 31.0858 143.469 31.0218 143.656C30.9631 143.837 30.9338 144.067 30.9338 144.344C30.9338 144.765 31.0031 145.08 31.1418 145.288C31.2858 145.496 31.4804 145.6 31.7258 145.6Z" fill="black"/>
<g clip-path="url(#clip1_10_3830)">
<path d="M63.9105 133C61.571 130.272 59.1966 127.653 57.0014 124.893C55.484 122.984 54.4622 120.793 54.5016 118.256C54.5745 113.559 58.0829 109.704 62.861 109.077C67.4321 108.478 71.9099 111.452 73.1445 115.902C73.8398 118.406 73.5176 120.817 72.1577 122.991C71.0368 124.782 69.7439 126.48 68.3926 128.111C67.0167 129.773 65.4774 131.304 63.9105 133ZM71.786 118.461C71.8093 114.195 68.3577 110.731 64.0548 110.701C59.714 110.671 56.1924 114.117 56.1895 118.402C56.1866 122.704 59.6688 126.175 63.995 126.181C68.2731 126.186 71.7627 122.728 71.786 118.461Z" fill="#FFF800"/>
<path d="M71.7859 118.461C71.7625 122.727 68.273 126.186 63.9949 126.179C59.6687 126.173 56.1865 122.702 56.1894 118.4C56.1923 114.117 59.7139 110.669 64.0547 110.699C68.3576 110.731 71.8092 114.197 71.7859 118.461ZM70.6343 118.513C70.7014 114.913 67.7774 111.929 64.1042 111.851C60.4369 111.772 57.405 114.685 57.338 118.354C57.2724 121.941 60.2051 124.939 63.871 125.03C67.5136 125.118 70.5673 122.178 70.6343 118.513Z" fill="white"/>
<path d="M70.6343 118.513C70.5658 122.178 67.5136 125.12 63.871 125.029C60.2051 124.938 57.2724 121.939 57.338 118.353C57.405 114.684 60.4369 111.772 64.1042 111.85C67.7774 111.929 70.7014 114.912 70.6343 118.513ZM63.1553 120.28C63.9089 120.28 64.5386 120.299 65.1668 120.277C66.8139 120.221 68.085 118.941 68.0777 117.364C68.0719 115.777 66.795 114.519 65.1406 114.49C64.0969 114.471 63.0533 114.514 62.0111 114.474C61.4164 114.451 61.208 114.629 61.2167 115.243C61.2502 117.408 61.2298 119.572 61.2298 121.738C61.2298 123.092 61.2298 123.079 62.6029 123.006C63.0023 122.984 63.1699 122.851 63.1582 122.447C63.1422 121.753 63.1553 121.059 63.1553 120.28Z" fill="#FFF800"/>
<path d="M63.1553 120.28C63.1553 121.061 63.1407 121.753 63.1611 122.445C63.1728 122.85 63.0052 122.983 62.6058 123.004C61.2313 123.078 61.2327 123.092 61.2327 121.737C61.2327 119.572 61.2531 117.406 61.2196 115.241C61.2094 114.629 61.4193 114.449 62.014 114.473C63.0562 114.513 64.1013 114.47 65.1435 114.488C66.7979 114.517 68.0733 115.777 68.0806 117.363C68.0864 118.939 66.8154 120.22 65.1697 120.276C64.5386 120.298 63.9089 120.28 63.1553 120.28ZM63.1917 118.565C63.9235 118.565 64.5983 118.594 65.2674 118.556C65.9029 118.522 66.3358 118.038 66.3591 117.428C66.3825 116.811 66.002 116.27 65.3694 116.21C64.6596 116.142 63.9395 116.194 63.1903 116.194C63.1917 116.99 63.1917 117.723 63.1917 118.565Z" fill="white"/>
<path d="M63.1918 118.565C63.1918 117.724 63.1918 116.99 63.1918 116.194C63.9395 116.194 64.661 116.142 65.3709 116.21C66.0035 116.27 66.3854 116.811 66.3606 117.428C66.3373 118.039 65.9044 118.522 65.2689 118.556C64.5969 118.594 63.9235 118.565 63.1918 118.565Z" fill="#FFF800"/>
</g>
<path d="M46.836 146.072C46.5267 146.072 46.2147 146.027 45.9 145.936C45.5907 145.845 45.3213 145.712 45.092 145.536C45.0227 145.488 44.9773 145.435 44.956 145.376C44.9347 145.312 44.9293 145.253 44.94 145.2C44.956 145.141 44.9853 145.093 45.028 145.056C45.0707 145.013 45.1213 144.989 45.18 144.984C45.244 144.979 45.3133 145 45.388 145.048C45.6227 145.203 45.8573 145.315 46.092 145.384C46.3267 145.453 46.5693 145.488 46.82 145.488C47.092 145.488 47.3213 145.448 47.508 145.368C47.6947 145.288 47.836 145.171 47.932 145.016C48.028 144.856 48.076 144.661 48.076 144.432C48.076 144.101 47.9667 143.851 47.748 143.68C47.5293 143.509 47.212 143.424 46.796 143.424H46.228C46.1267 143.424 46.0493 143.4 45.996 143.352C45.9427 143.299 45.916 143.227 45.916 143.136C45.916 143.051 45.9427 142.984 45.996 142.936C46.0493 142.883 46.1267 142.856 46.228 142.856H46.74C46.9853 142.856 47.1933 142.813 47.364 142.728C47.54 142.643 47.676 142.523 47.772 142.368C47.868 142.208 47.916 142.016 47.916 141.792C47.916 141.493 47.82 141.267 47.628 141.112C47.436 140.952 47.1587 140.872 46.796 140.872C46.556 140.872 46.3293 140.907 46.116 140.976C45.9027 141.045 45.692 141.163 45.484 141.328C45.42 141.376 45.356 141.4 45.292 141.4C45.2333 141.395 45.1827 141.376 45.14 141.344C45.1027 141.307 45.0733 141.259 45.052 141.2C45.036 141.141 45.0387 141.083 45.06 141.024C45.0813 140.96 45.1267 140.901 45.196 140.848C45.4093 140.667 45.66 140.528 45.948 140.432C46.236 140.336 46.532 140.288 46.836 140.288C47.1987 140.288 47.508 140.347 47.764 140.464C48.0253 140.576 48.2253 140.741 48.364 140.96C48.5027 141.173 48.572 141.432 48.572 141.736C48.572 141.965 48.5267 142.176 48.436 142.368C48.3507 142.555 48.228 142.715 48.068 142.848C47.9133 142.981 47.724 143.077 47.5 143.136V143.048C47.8893 143.112 48.1907 143.272 48.404 143.528C48.6227 143.779 48.732 144.096 48.732 144.48C48.732 144.805 48.6547 145.088 48.5 145.328C48.3507 145.563 48.1347 145.747 47.852 145.88C47.5693 146.008 47.2307 146.072 46.836 146.072ZM51.6969 146.072C51.0515 146.072 50.5609 145.824 50.2249 145.328C49.8889 144.832 49.7209 144.115 49.7209 143.176C49.7209 142.547 49.7955 142.019 49.9449 141.592C50.0942 141.16 50.3155 140.835 50.6089 140.616C50.9075 140.397 51.2702 140.288 51.6969 140.288C52.3475 140.288 52.8382 140.533 53.1689 141.024C53.5049 141.509 53.6729 142.224 53.6729 143.168C53.6729 143.797 53.5982 144.328 53.4489 144.76C53.2995 145.192 53.0782 145.52 52.7849 145.744C52.4915 145.963 52.1289 146.072 51.6969 146.072ZM51.6969 145.504C52.1449 145.504 52.4755 145.315 52.6889 144.936C52.9075 144.552 53.0169 143.963 53.0169 143.168C53.0169 142.368 52.9075 141.784 52.6889 141.416C52.4755 141.043 52.1449 140.856 51.6969 140.856C51.2542 140.856 50.9235 141.043 50.7049 141.416C50.4862 141.789 50.3769 142.373 50.3769 143.168C50.3769 143.963 50.4862 144.552 50.7049 144.936C50.9235 145.315 51.2542 145.504 51.6969 145.504ZM56.4938 146.008C56.4564 146.077 56.4111 146.123 56.3578 146.144C56.3044 146.171 56.2511 146.176 56.1978 146.16C56.1444 146.149 56.0991 146.123 56.0618 146.08C56.0244 146.043 56.0004 145.995 55.9898 145.936C55.9844 145.877 56.0004 145.813 56.0378 145.744L59.1258 140.368C59.1631 140.299 59.2084 140.253 59.2618 140.232C59.3151 140.205 59.3684 140.2 59.4218 140.216C59.4751 140.227 59.5204 140.253 59.5578 140.296C59.5951 140.339 59.6164 140.389 59.6218 140.448C59.6324 140.507 59.6191 140.568 59.5818 140.632L56.4938 146.008ZM55.9018 143.744C55.4751 143.744 55.1418 143.592 54.9018 143.288C54.6618 142.984 54.5418 142.56 54.5418 142.016C54.5418 141.653 54.5951 141.344 54.7018 141.088C54.8138 140.832 54.9711 140.637 55.1738 140.504C55.3764 140.365 55.6191 140.296 55.9018 140.296C56.3231 140.296 56.6538 140.448 56.8938 140.752C57.1391 141.051 57.2618 141.472 57.2618 142.016C57.2618 142.379 57.2058 142.688 57.0938 142.944C56.9871 143.2 56.8324 143.397 56.6298 143.536C56.4271 143.675 56.1844 143.744 55.9018 143.744ZM55.9018 143.272C56.0671 143.272 56.2084 143.224 56.3258 143.128C56.4484 143.032 56.5418 142.891 56.6058 142.704C56.6698 142.517 56.7018 142.288 56.7018 142.016C56.7018 141.6 56.6298 141.288 56.4858 141.08C56.3418 140.872 56.1471 140.768 55.9018 140.768C55.7364 140.768 55.5924 140.816 55.4698 140.912C55.3524 141.003 55.2618 141.141 55.1978 141.328C55.1338 141.509 55.1018 141.739 55.1018 142.016C55.1018 142.432 55.1711 142.747 55.3098 142.96C55.4538 143.168 55.6511 143.272 55.9018 143.272ZM59.7258 146.072C59.3044 146.072 58.9711 145.92 58.7258 145.616C58.4858 145.312 58.3658 144.888 58.3658 144.344C58.3658 143.981 58.4191 143.672 58.5258 143.416C58.6378 143.16 58.7951 142.965 58.9978 142.832C59.2058 142.693 59.4484 142.624 59.7258 142.624C60.1524 142.624 60.4858 142.776 60.7258 143.08C60.9658 143.379 61.0858 143.8 61.0858 144.344C61.0858 144.707 61.0324 145.019 60.9258 145.28C60.8191 145.536 60.6644 145.733 60.4618 145.872C60.2591 146.005 60.0138 146.072 59.7258 146.072ZM59.7258 145.6C59.8964 145.6 60.0404 145.555 60.1578 145.464C60.2751 145.368 60.3658 145.227 60.4298 145.04C60.4938 144.853 60.5258 144.621 60.5258 144.344C60.5258 143.928 60.4538 143.616 60.3098 143.408C60.1711 143.2 59.9764 143.096 59.7258 143.096C59.5604 143.096 59.4164 143.144 59.2938 143.24C59.1764 143.331 59.0858 143.469 59.0218 143.656C58.9631 143.837 58.9338 144.067 58.9338 144.344C58.9338 144.765 59.0031 145.08 59.1418 145.288C59.2858 145.496 59.4804 145.6 59.7258 145.6ZM64.8513 144.264C64.7126 144.264 64.5633 144.237 64.4033 144.184C64.2486 144.131 64.0619 144.045 63.8433 143.928C63.6299 143.805 63.4646 143.725 63.3473 143.688C63.2353 143.645 63.1366 143.624 63.0513 143.624C62.9339 143.624 62.8246 143.651 62.7233 143.704C62.6273 143.752 62.5366 143.845 62.4513 143.984C62.4139 144.053 62.3633 144.093 62.2993 144.104C62.2406 144.115 62.1873 144.104 62.1393 144.072C62.0913 144.04 62.0566 143.995 62.0353 143.936C62.0193 143.877 62.0299 143.816 62.0673 143.752C62.1739 143.544 62.3099 143.389 62.4753 143.288C62.6406 143.187 62.8219 143.136 63.0193 143.136C63.1526 143.136 63.2939 143.163 63.4433 143.216C63.5979 143.264 63.7819 143.347 63.9953 143.464C64.1926 143.565 64.3526 143.645 64.4753 143.704C64.5979 143.757 64.7099 143.784 64.8113 143.784C64.9286 143.784 65.0353 143.757 65.1313 143.704C65.2326 143.645 65.3259 143.549 65.4113 143.416C65.4539 143.352 65.5046 143.315 65.5633 143.304C65.6219 143.288 65.6753 143.296 65.7233 143.328C65.7766 143.36 65.8113 143.405 65.8273 143.464C65.8486 143.523 65.8406 143.587 65.8033 143.656C65.6913 143.859 65.5526 144.011 65.3873 144.112C65.2273 144.213 65.0486 144.264 64.8513 144.264ZM68.9201 146.072C68.4775 146.072 68.0988 145.965 67.7841 145.752C67.4748 145.533 67.2401 145.219 67.0801 144.808C66.9201 144.397 66.8401 143.901 66.8401 143.32C66.8401 142.829 66.8908 142.397 66.9921 142.024C67.0935 141.651 67.2428 141.336 67.4401 141.08C67.6375 140.819 67.8775 140.621 68.1601 140.488C68.4428 140.355 68.7628 140.288 69.1201 140.288C69.3655 140.288 69.6161 140.336 69.8721 140.432C70.1335 140.528 70.3628 140.664 70.5601 140.84C70.6188 140.883 70.6535 140.936 70.6641 141C70.6801 141.059 70.6801 141.117 70.6641 141.176C70.6481 141.229 70.6188 141.275 70.5761 141.312C70.5388 141.349 70.4908 141.371 70.4321 141.376C70.3735 141.376 70.3121 141.352 70.2481 141.304C70.0668 141.149 69.8801 141.04 69.6881 140.976C69.4961 140.907 69.3015 140.872 69.1041 140.872C68.7575 140.872 68.4615 140.957 68.2161 141.128C67.9761 141.299 67.7921 141.557 67.6641 141.904C67.5415 142.245 67.4801 142.675 67.4801 143.192V143.936H67.4081C67.4401 143.632 67.5281 143.371 67.6721 143.152C67.8215 142.928 68.0108 142.757 68.2401 142.64C68.4695 142.523 68.7281 142.464 69.0161 142.464C69.3468 142.464 69.6401 142.539 69.8961 142.688C70.1521 142.837 70.3521 143.048 70.4961 143.32C70.6401 143.587 70.7121 143.893 70.7121 144.24C70.7121 144.592 70.6375 144.907 70.4881 145.184C70.3388 145.461 70.1281 145.68 69.8561 145.84C69.5841 145.995 69.2721 146.072 68.9201 146.072ZM68.8801 145.512C69.1148 145.512 69.3228 145.461 69.5041 145.36C69.6855 145.253 69.8268 145.107 69.9281 144.92C70.0295 144.728 70.0801 144.509 70.0801 144.264C70.0801 144.019 70.0295 143.803 69.9281 143.616C69.8268 143.429 69.6855 143.283 69.5041 143.176C69.3228 143.069 69.1148 143.016 68.8801 143.016C68.6455 143.016 68.4375 143.069 68.2561 143.176C68.0748 143.283 67.9335 143.429 67.8321 143.616C67.7308 143.803 67.6801 144.019 67.6801 144.264C67.6801 144.509 67.7308 144.728 67.8321 144.92C67.9335 145.107 68.0748 145.253 68.2561 145.36C68.4375 145.461 68.6455 145.512 68.8801 145.512ZM73.525 146.072C72.8797 146.072 72.389 145.824 72.053 145.328C71.717 144.832 71.549 144.115 71.549 143.176C71.549 142.547 71.6237 142.019 71.773 141.592C71.9223 141.16 72.1437 140.835 72.437 140.616C72.7357 140.397 73.0983 140.288 73.525 140.288C74.1757 140.288 74.6663 140.533 74.997 141.024C75.333 141.509 75.501 142.224 75.501 143.168C75.501 143.797 75.4263 144.328 75.277 144.76C75.1277 145.192 74.9063 145.52 74.613 145.744C74.3197 145.963 73.957 146.072 73.525 146.072ZM73.525 145.504C73.973 145.504 74.3037 145.315 74.517 144.936C74.7357 144.552 74.845 143.963 74.845 143.168C74.845 142.368 74.7357 141.784 74.517 141.416C74.3037 141.043 73.973 140.856 73.525 140.856C73.0823 140.856 72.7517 141.043 72.533 141.416C72.3143 141.789 72.205 142.373 72.205 143.168C72.205 143.963 72.3143 144.552 72.533 144.936C72.7517 145.315 73.0823 145.504 73.525 145.504ZM78.3219 146.008C78.2845 146.077 78.2392 146.123 78.1859 146.144C78.1325 146.171 78.0792 146.176 78.0259 146.16C77.9725 146.149 77.9272 146.123 77.8899 146.08C77.8525 146.043 77.8285 145.995 77.8179 145.936C77.8125 145.877 77.8285 145.813 77.8659 145.744L80.9539 140.368C80.9912 140.299 81.0365 140.253 81.0899 140.232C81.1432 140.205 81.1965 140.2 81.2499 140.216C81.3032 140.227 81.3485 140.253 81.3859 140.296C81.4232 140.339 81.4445 140.389 81.4499 140.448C81.4605 140.507 81.4472 140.568 81.4099 140.632L78.3219 146.008ZM77.7299 143.744C77.3032 143.744 76.9699 143.592 76.7299 143.288C76.4899 142.984 76.3699 142.56 76.3699 142.016C76.3699 141.653 76.4232 141.344 76.5299 141.088C76.6419 140.832 76.7992 140.637 77.0019 140.504C77.2045 140.365 77.4472 140.296 77.7299 140.296C78.1512 140.296 78.4819 140.448 78.7219 140.752C78.9672 141.051 79.0899 141.472 79.0899 142.016C79.0899 142.379 79.0339 142.688 78.9219 142.944C78.8152 143.2 78.6605 143.397 78.4579 143.536C78.2552 143.675 78.0125 143.744 77.7299 143.744ZM77.7299 143.272C77.8952 143.272 78.0365 143.224 78.1539 143.128C78.2765 143.032 78.3699 142.891 78.4339 142.704C78.4979 142.517 78.5299 142.288 78.5299 142.016C78.5299 141.6 78.4579 141.288 78.3139 141.08C78.1699 140.872 77.9752 140.768 77.7299 140.768C77.5645 140.768 77.4205 140.816 77.2979 140.912C77.1805 141.003 77.0899 141.141 77.0259 141.328C76.9619 141.509 76.9299 141.739 76.9299 142.016C76.9299 142.432 76.9992 142.747 77.1379 142.96C77.2819 143.168 77.4792 143.272 77.7299 143.272ZM81.5539 146.072C81.1325 146.072 80.7992 145.92 80.5539 145.616C80.3139 145.312 80.1939 144.888 80.1939 144.344C80.1939 143.981 80.2472 143.672 80.3539 143.416C80.4659 143.16 80.6232 142.965 80.8259 142.832C81.0339 142.693 81.2765 142.624 81.5539 142.624C81.9805 142.624 82.3139 142.776 82.5539 143.08C82.7939 143.379 82.9139 143.8 82.9139 144.344C82.9139 144.707 82.8605 145.019 82.7539 145.28C82.6472 145.536 82.4925 145.733 82.2899 145.872C82.0872 146.005 81.8419 146.072 81.5539 146.072ZM81.5539 145.6C81.7245 145.6 81.8685 145.555 81.9859 145.464C82.1032 145.368 82.1939 145.227 82.2579 145.04C82.3219 144.853 82.3539 144.621 82.3539 144.344C82.3539 143.928 82.2819 143.616 82.1379 143.408C81.9992 143.2 81.8045 143.096 81.5539 143.096C81.3885 143.096 81.2445 143.144 81.1219 143.24C81.0045 143.331 80.9139 143.469 80.8499 143.656C80.7912 143.837 80.7619 144.067 80.7619 144.344C80.7619 144.765 80.8312 145.08 80.9699 145.288C81.1139 145.496 81.3085 145.6 81.5539 145.6Z" fill="black"/>
<g clip-path="url(#clip2_10_3830)">
<path d="M110.91 133C108.571 130.272 106.197 127.653 104.001 124.893C102.484 122.984 101.462 120.793 101.502 118.256C101.574 113.559 105.083 109.704 109.861 109.077C114.432 108.478 118.91 111.452 120.144 115.902C120.84 118.406 120.518 120.817 119.158 122.991C118.037 124.782 116.744 126.48 115.393 128.111C114.017 129.773 112.477 131.304 110.91 133ZM118.786 118.461C118.809 114.195 115.358 110.731 111.055 110.701C106.714 110.671 103.192 114.117 103.19 118.402C103.187 122.704 106.669 126.175 110.995 126.181C115.273 126.186 118.763 122.728 118.786 118.461Z" fill="#FF4545"/>
<path d="M118.786 118.461C118.762 122.727 115.273 126.186 110.995 126.179C106.669 126.173 103.186 122.702 103.189 118.4C103.192 114.117 106.714 110.669 111.055 110.699C115.357 110.731 118.809 114.197 118.786 118.461ZM117.634 118.513C117.701 114.913 114.777 111.929 111.104 111.851C107.437 111.772 104.405 114.685 104.338 118.354C104.272 121.941 107.205 124.939 110.871 125.03C114.514 125.118 117.567 122.178 117.634 118.513Z" fill="white"/>
<path d="M117.634 118.513C117.566 122.178 114.514 125.12 110.871 125.029C107.205 124.938 104.272 121.939 104.338 118.353C104.405 114.684 107.437 111.772 111.104 111.85C114.777 111.929 117.701 114.912 117.634 118.513ZM110.155 120.28C110.909 120.28 111.539 120.299 112.167 120.277C113.814 120.221 115.085 118.941 115.078 117.364C115.072 115.777 113.795 114.519 112.141 114.49C111.097 114.471 110.053 114.514 109.011 114.474C108.416 114.451 108.208 114.629 108.217 115.243C108.25 117.408 108.23 119.572 108.23 121.738C108.23 123.092 108.23 123.079 109.603 123.006C110.002 122.984 110.17 122.851 110.158 122.447C110.142 121.753 110.155 121.059 110.155 120.28Z" fill="#FF4545"/>
<path d="M110.155 120.28C110.155 121.061 110.141 121.753 110.161 122.445C110.173 122.85 110.005 122.983 109.606 123.004C108.231 123.078 108.233 123.092 108.233 121.737C108.233 119.572 108.253 117.406 108.22 115.241C108.209 114.629 108.419 114.449 109.014 114.473C110.056 114.513 111.101 114.47 112.143 114.488C113.798 114.517 115.073 115.777 115.081 117.363C115.086 118.939 113.815 120.22 112.17 120.276C111.539 120.298 110.909 120.28 110.155 120.28ZM110.192 118.565C110.923 118.565 111.598 118.594 112.267 118.556C112.903 118.522 113.336 118.038 113.359 117.428C113.382 116.811 113.002 116.27 112.369 116.21C111.66 116.142 110.939 116.194 110.19 116.194C110.192 116.99 110.192 117.723 110.192 118.565Z" fill="white"/>
<path d="M110.192 118.565C110.192 117.724 110.192 116.99 110.192 116.194C110.94 116.194 111.661 116.142 112.371 116.21C113.004 116.27 113.385 116.811 113.361 117.428C113.337 118.039 112.904 118.522 112.269 118.556C111.597 118.594 110.923 118.565 110.192 118.565Z" fill="#FF4545"/>
</g>
<path d="M93.996 141.584V142.192H101.028V141.584H93.996ZM97.892 141.824L97.292 141.968C97.892 144.12 98.98 145.808 100.708 146.624C100.812 146.456 101.012 146.2 101.164 146.064C99.5 145.376 98.412 143.76 97.892 141.824ZM97.188 139.288C97.172 141.208 97.236 144.656 93.836 146.136C94.004 146.256 94.196 146.472 94.292 146.632C97.788 145.032 97.804 141.384 97.836 139.288H97.188ZM101.852 140.592V141.152H105.26V140.592H101.852ZM103.036 142.256V142.808H104.484V142.256H103.036ZM103.268 139.296V140.792H103.86V139.296H103.268ZM107.06 139.976C107.436 140.992 108.14 142.096 108.948 142.752C109.028 142.568 109.156 142.328 109.268 142.168C108.5 141.616 107.764 140.464 107.348 139.288H106.732C106.42 140.376 105.724 141.584 104.924 142.216C105.028 142.36 105.164 142.6 105.228 142.76C106.044 142.096 106.732 140.952 107.06 139.976ZM102.724 140.92C102.708 143.064 102.644 145.12 101.732 146.248C101.884 146.352 102.092 146.536 102.188 146.672C103.18 145.416 103.276 143.24 103.316 140.92H102.724ZM104.3 142.256V142.376C104.252 144.928 104.188 145.808 104.044 146C103.98 146.088 103.916 146.112 103.796 146.104C103.668 146.104 103.372 146.104 103.036 146.08C103.132 146.232 103.188 146.464 103.204 146.624C103.54 146.648 103.876 146.648 104.068 146.632C104.284 146.6 104.42 146.544 104.548 146.368C104.756 146.088 104.804 145.192 104.86 142.536C104.868 142.448 104.868 142.256 104.868 142.256H104.3ZM106.196 142.744C106.74 143.096 107.372 143.616 107.668 143.992L108.084 143.568C107.78 143.2 107.132 142.704 106.588 142.368L106.196 142.744ZM105.548 144.912C106.524 145.368 107.692 146.104 108.26 146.648L108.644 146.12C108.068 145.584 106.876 144.88 105.908 144.456L105.548 144.912ZM112.092 146.072C111.649 146.072 111.271 145.965 110.956 145.752C110.647 145.533 110.412 145.219 110.252 144.808C110.092 144.397 110.012 143.901 110.012 143.32C110.012 142.829 110.063 142.397 110.164 142.024C110.265 141.651 110.415 141.336 110.612 141.08C110.809 140.819 111.049 140.621 111.332 140.488C111.615 140.355 111.935 140.288 112.292 140.288C112.537 140.288 112.788 140.336 113.044 140.432C113.305 140.528 113.535 140.664 113.732 140.84C113.791 140.883 113.825 140.936 113.836 141C113.852 141.059 113.852 141.117 113.836 141.176C113.82 141.229 113.791 141.275 113.748 141.312C113.711 141.349 113.663 141.371 113.604 141.376C113.545 141.376 113.484 141.352 113.42 141.304C113.239 141.149 113.052 141.04 112.86 140.976C112.668 140.907 112.473 140.872 112.276 140.872C111.929 140.872 111.633 140.957 111.388 141.128C111.148 141.299 110.964 141.557 110.836 141.904C110.713 142.245 110.652 142.675 110.652 143.192V143.936H110.58C110.612 143.632 110.7 143.371 110.844 143.152C110.993 142.928 111.183 142.757 111.412 142.64C111.641 142.523 111.9 142.464 112.188 142.464C112.519 142.464 112.812 142.539 113.068 142.688C113.324 142.837 113.524 143.048 113.668 143.32C113.812 143.587 113.884 143.893 113.884 144.24C113.884 144.592 113.809 144.907 113.66 145.184C113.511 145.461 113.3 145.68 113.028 145.84C112.756 145.995 112.444 146.072 112.092 146.072ZM112.052 145.512C112.287 145.512 112.495 145.461 112.676 145.36C112.857 145.253 112.999 145.107 113.1 144.92C113.201 144.728 113.252 144.509 113.252 144.264C113.252 144.019 113.201 143.803 113.1 143.616C112.999 143.429 112.857 143.283 112.676 143.176C112.495 143.069 112.287 143.016 112.052 143.016C111.817 143.016 111.609 143.069 111.428 143.176C111.247 143.283 111.105 143.429 111.004 143.616C110.903 143.803 110.852 144.019 110.852 144.264C110.852 144.509 110.903 144.728 111.004 144.92C111.105 145.107 111.247 145.253 111.428 145.36C111.609 145.461 111.817 145.512 112.052 145.512ZM116.697 146.072C116.052 146.072 115.561 145.824 115.225 145.328C114.889 144.832 114.721 144.115 114.721 143.176C114.721 142.547 114.796 142.019 114.945 141.592C115.094 141.16 115.316 140.835 115.609 140.616C115.908 140.397 116.27 140.288 116.697 140.288C117.348 140.288 117.838 140.533 118.169 141.024C118.505 141.509 118.673 142.224 118.673 143.168C118.673 143.797 118.598 144.328 118.449 144.76C118.3 145.192 118.078 145.52 117.785 145.744C117.492 145.963 117.129 146.072 116.697 146.072ZM116.697 145.504C117.145 145.504 117.476 145.315 117.689 144.936C117.908 144.552 118.017 143.963 118.017 143.168C118.017 142.368 117.908 141.784 117.689 141.416C117.476 141.043 117.145 140.856 116.697 140.856C116.254 140.856 115.924 141.043 115.705 141.416C115.486 141.789 115.377 142.373 115.377 143.168C115.377 143.963 115.486 144.552 115.705 144.936C115.924 145.315 116.254 145.504 116.697 145.504ZM121.494 146.008C121.456 146.077 121.411 146.123 121.358 146.144C121.304 146.171 121.251 146.176 121.198 146.16C121.144 146.149 121.099 146.123 121.062 146.08C121.024 146.043 121 145.995 120.99 145.936C120.984 145.877 121 145.813 121.038 145.744L124.126 140.368C124.163 140.299 124.208 140.253 124.262 140.232C124.315 140.205 124.368 140.2 124.422 140.216C124.475 140.227 124.52 140.253 124.558 140.296C124.595 140.339 124.616 140.389 124.622 140.448C124.632 140.507 124.619 140.568 124.582 140.632L121.494 146.008ZM120.902 143.744C120.475 143.744 120.142 143.592 119.902 143.288C119.662 142.984 119.542 142.56 119.542 142.016C119.542 141.653 119.595 141.344 119.702 141.088C119.814 140.832 119.971 140.637 120.174 140.504C120.376 140.365 120.619 140.296 120.902 140.296C121.323 140.296 121.654 140.448 121.894 140.752C122.139 141.051 122.262 141.472 122.262 142.016C122.262 142.379 122.206 142.688 122.094 142.944C121.987 143.2 121.832 143.397 121.63 143.536C121.427 143.675 121.184 143.744 120.902 143.744ZM120.902 143.272C121.067 143.272 121.208 143.224 121.326 143.128C121.448 143.032 121.542 142.891 121.606 142.704C121.67 142.517 121.702 142.288 121.702 142.016C121.702 141.6 121.63 141.288 121.486 141.08C121.342 140.872 121.147 140.768 120.902 140.768C120.736 140.768 120.592 140.816 120.47 140.912C120.352 141.003 120.262 141.141 120.198 141.328C120.134 141.509 120.102 141.739 120.102 142.016C120.102 142.432 120.171 142.747 120.31 142.96C120.454 143.168 120.651 143.272 120.902 143.272ZM124.726 146.072C124.304 146.072 123.971 145.92 123.726 145.616C123.486 145.312 123.366 144.888 123.366 144.344C123.366 143.981 123.419 143.672 123.526 143.416C123.638 143.16 123.795 142.965 123.998 142.832C124.206 142.693 124.448 142.624 124.726 142.624C125.152 142.624 125.486 142.776 125.726 143.08C125.966 143.379 126.086 143.8 126.086 144.344C126.086 144.707 126.032 145.019 125.926 145.28C125.819 145.536 125.664 145.733 125.462 145.872C125.259 146.005 125.014 146.072 124.726 146.072ZM124.726 145.6C124.896 145.6 125.04 145.555 125.158 145.464C125.275 145.368 125.366 145.227 125.43 145.04C125.494 144.853 125.526 144.621 125.526 144.344C125.526 143.928 125.454 143.616 125.31 143.408C125.171 143.2 124.976 143.096 124.726 143.096C124.56 143.096 124.416 143.144 124.294 143.24C124.176 143.331 124.086 143.469 124.022 143.656C123.963 143.837 123.934 144.067 123.934 144.344C123.934 144.765 124.003 145.08 124.142 145.288C124.286 145.496 124.48 145.6 124.726 145.6Z" fill="black"/>
<line opacity="0.5" x1="1" y1="171.5" x2="127" y2="171.5" stroke="#ACACAC"/>
<path d="M56.4935 233H30.8187C29.538 233 28.5 231.996 28.5 230.756V213.244C28.5 212.004 29.538 211 30.8187 211H56.4935C57.7742 211 58.8122 212.004 58.8122 213.244V230.756C58.8122 231.996 57.7742 233 56.4935 233Z" fill="#0480C9"/>
<path d="M50.298 224.267C50.298 225.973 50.2678 227.681 50.3134 229.386C50.3304 230.011 49.5861 230.281 49.1232 230.038C48.8913 229.916 48.8302 229.725 48.831 229.477C48.838 227.546 48.8364 225.616 48.831 223.685C48.8302 223.535 48.923 223.326 48.6084 223.313C48.3278 223.301 48.2305 223.365 48.2328 223.658C48.2467 225.563 48.2235 227.47 48.2513 229.376C48.2591 229.895 47.8347 230.169 47.3749 230.119C46.9683 230.075 46.7535 229.854 46.748 229.456C46.7411 228.896 46.7457 228.335 46.745 227.774C46.745 224.934 46.7442 222.094 46.7442 219.253C46.7442 219.154 46.745 219.054 46.7419 218.954C46.738 218.808 46.6522 218.712 46.5108 218.701C46.3446 218.686 46.2511 218.793 46.2287 218.946C46.2147 219.044 46.2194 219.145 46.2194 219.244C46.2194 220.403 46.2209 221.561 46.2194 222.72C46.2186 223.095 46.037 223.312 45.7363 223.312C45.4496 223.312 45.2123 223.066 45.2108 222.733C45.2053 221.276 45.2007 219.818 45.2108 218.361C45.2154 217.725 45.918 217.089 46.7202 217.063C47.9422 217.024 49.1672 217.03 50.3899 217.059C51.0129 217.073 51.6853 217.734 51.7865 218.427C51.9179 219.326 51.986 220.233 52.081 221.137C52.1034 221.347 52.1266 221.558 52.1421 221.769C52.1521 221.905 52.2093 222.094 52.1405 222.169C51.7935 222.551 52.2217 222.757 52.3214 223.032C52.3747 223.178 52.5022 223.193 52.636 223.107C52.6576 223.094 52.6854 223.086 52.7017 223.069C53.5008 222.214 54.5558 222.409 55.5575 222.441C56.2291 222.463 56.7841 223.045 56.8397 223.771C56.8869 224.391 56.8691 225.016 56.8768 225.639C56.8799 225.878 56.7532 226.013 56.5035 226.023C56.2346 226.033 56.0877 225.893 56.0815 225.642C56.0699 225.181 56.0792 224.721 56.0761 224.26C56.0753 224.136 56.0668 224.011 56.0545 223.887C56.0483 223.824 56.0212 223.766 55.9393 223.764C55.8404 223.76 55.8033 223.822 55.7956 223.902C55.7878 223.989 55.7894 224.077 55.7886 224.163C55.7847 225.908 55.7816 227.652 55.7778 229.395C55.7778 229.47 55.7801 229.545 55.7755 229.619C55.7554 229.916 55.5861 230.082 55.2839 230.088C54.9631 230.094 54.8233 229.902 54.8217 229.609C54.8186 228.724 54.8225 227.84 54.8163 226.955C54.8155 226.842 54.8843 226.679 54.7189 226.631C54.5149 226.572 54.3889 226.624 54.3935 226.883C54.4082 227.767 54.3982 228.652 54.3997 229.536C54.4005 229.73 54.3796 229.916 54.1926 230.029C53.9367 230.184 53.5596 230.044 53.4784 229.752C53.4359 229.598 53.4351 229.432 53.4344 229.271C53.4297 227.527 53.4297 225.783 53.4266 224.039C53.4266 223.931 53.4722 223.787 53.3725 223.723C53.2427 223.638 53.1793 223.799 53.0927 223.858C52.7163 224.115 52.2619 224.134 51.9411 223.899C51.5446 223.609 51.3862 223.116 51.557 222.688C51.574 222.646 51.6343 222.603 51.5871 222.561C51.1087 222.142 51.2192 221.553 51.1226 221.029C51.0075 220.404 50.934 219.773 50.8552 219.143C50.8297 218.938 50.8289 218.707 50.5553 218.704C50.2485 218.701 50.2956 218.953 50.2956 219.148C50.2972 220.854 50.298 222.561 50.298 224.267Z" fill="white"/>
<path d="M38.1705 219.489C38.0407 219.334 37.9255 219.217 37.8343 219.084C37.57 218.699 37.5684 218.269 37.8559 217.903C38.2671 217.38 38.7579 216.986 39.5037 217.037C39.8624 217.062 40.2249 217.06 40.5843 217.042C41.0936 217.016 41.4715 217.22 41.7884 217.588C42.2035 218.07 42.5358 218.596 42.7692 219.184C42.889 219.485 42.8689 219.757 42.7151 220.041C42.4748 220.484 42.1981 220.904 41.8572 221.278C41.6671 221.487 41.6145 221.686 41.6818 221.956C41.9484 223.031 42.1625 224.119 42.4871 225.181C42.6061 225.569 42.6309 225.97 42.484 226.356C42.365 226.67 42.1973 226.913 41.7668 226.899C41.1485 226.881 41.1809 226.772 41.1786 227.478C41.1763 228.076 41.1802 228.673 41.1802 229.271C41.1802 229.753 40.8849 230.056 40.4111 230.062C39.908 230.067 39.6583 229.812 39.6575 229.284C39.6568 228.587 39.6545 227.89 39.6622 227.192C39.6637 227.006 39.646 226.888 39.4009 226.887C39.1567 226.885 39.0964 226.974 39.1003 227.195C39.1127 227.892 39.1072 228.589 39.1034 229.287C39.1011 229.753 38.7896 230.056 38.3135 230.062C37.8351 230.067 37.5816 229.811 37.5792 229.301C37.5754 228.604 37.5723 227.906 37.5854 227.21C37.5901 226.97 37.5159 226.886 37.2585 226.885C37.0104 226.884 36.668 227.013 36.5389 226.818C36.4508 226.684 36.6448 226.385 36.6943 226.157C36.8419 225.476 36.8535 224.821 36.5358 224.154C36.0875 223.213 36.0883 222.222 36.4369 221.243C36.7306 220.417 37.2276 219.763 38.1705 219.489ZM36.9424 221.652C36.9431 221.739 36.93 221.832 36.998 221.9C37.3018 222.202 37.6094 222.501 37.917 222.798C37.968 222.848 38.0399 222.865 38.0816 222.801C38.2895 222.479 38.6845 222.345 38.8924 222.018C39.0416 221.784 39.0972 221.564 38.9295 221.334C38.7502 221.087 38.4619 221.093 38.2362 221.194C38.0352 221.284 37.9 221.276 37.7083 221.199C37.3157 221.039 36.9555 221.266 36.9424 221.652ZM41.2899 220.253C41.4522 219.956 41.8533 219.811 41.6841 219.432C41.5836 219.208 41.4151 219.011 41.2698 218.807C41.2111 218.724 41.1245 218.646 41.0117 218.702C40.9282 218.744 40.8965 218.84 40.915 218.929C41.0063 219.363 41.0866 219.799 41.2899 220.253Z" fill="#F3D7E3"/>
<path d="M30.2707 223.768C30.2707 222.871 30.2769 221.973 30.2661 221.077C30.263 220.855 30.3171 220.766 30.5644 220.778C31.0011 220.797 31.4401 220.791 31.8776 220.783C32.4704 220.772 32.7092 220.444 32.4681 219.916C32.1141 219.143 31.7284 218.383 31.3381 217.627C31.1881 217.338 30.92 217.161 30.5922 217.078C30.5428 217.065 30.4779 217.071 30.4446 217.042C30.0682 216.716 30.3418 216.293 30.2777 215.919C30.2321 215.655 30.4709 215.71 30.6247 215.713C31.4239 215.722 32.0028 216.008 32.3483 216.775C32.8916 217.983 33.5207 219.155 34.1081 220.344C34.1947 220.519 34.3021 220.639 34.5 220.719C35.252 221.024 35.6369 221.566 35.6215 222.378C35.6029 223.374 35.6184 224.371 35.6192 225.367C35.6199 226.328 35.2041 226.759 34.2218 226.731C33.8199 226.719 33.7225 226.835 33.741 227.203C33.7719 227.812 33.7526 228.423 33.7487 229.034C33.7449 229.741 33.3948 230.067 32.6435 230.068C31.9054 230.07 31.5259 229.732 31.5143 229.039C31.5035 228.379 31.5043 227.718 31.5166 227.059C31.5213 226.815 31.4695 226.713 31.1789 226.718C30.2692 226.735 30.2692 226.721 30.2692 225.823C30.2692 225.138 30.2692 224.453 30.2692 223.768C30.2699 223.768 30.2707 223.768 30.2707 223.768ZM34.0108 223.696C34.0131 222.963 33.4064 222.365 32.6466 222.35C31.8884 222.336 31.2237 222.964 31.2268 223.69C31.2291 224.424 31.8807 225.043 32.6412 225.036C33.3963 225.029 34.0092 224.429 34.0108 223.696Z" fill="white"/>
<path d="M44.1326 223.62C44.1326 225.674 44.1342 227.728 44.1287 229.782C44.1287 229.919 44.2207 230.13 43.927 230.13C43.7608 230.13 43.6534 230.109 43.6689 229.91C43.682 229.737 43.6704 229.562 43.6704 229.388C43.6704 225.403 43.6689 221.42 43.6751 217.436C43.6751 217.312 43.5645 217.116 43.8149 217.073C44.0708 217.029 44.1372 217.139 44.1357 217.382C44.1264 219.461 44.1303 221.54 44.1303 223.619C44.1311 223.62 44.1318 223.62 44.1326 223.62Z" fill="white"/>
<path d="M48.3982 213.892C49.1742 213.892 49.7716 214.464 49.7747 215.209C49.777 215.958 49.1502 216.565 48.3758 216.561C47.6531 216.558 46.9938 215.906 47.0039 215.205C47.0132 214.477 47.6346 213.892 48.3982 213.892Z" fill="white"/>
<path d="M39.6382 216.591C38.8723 216.584 38.2779 216.004 38.2756 215.261C38.2733 214.546 38.9155 213.924 39.6498 213.929C40.4041 213.934 41.0286 214.533 41.0302 215.254C41.0325 216.011 40.4211 216.598 39.6382 216.591Z" fill="#F3D7E3"/>
<path d="M54.62 222.063C54.0867 222.046 53.6987 221.648 53.7227 221.142C53.7459 220.659 54.208 220.243 54.6934 220.268C55.2074 220.295 55.5962 220.708 55.583 221.212C55.5691 221.724 55.1664 222.08 54.62 222.063Z" fill="white"/>
<path d="M36.9423 221.652C36.9547 221.267 37.3156 221.039 37.7075 221.199C37.8992 221.276 38.0344 221.283 38.2354 221.194C38.4618 221.093 38.7493 221.087 38.9286 221.334C39.0964 221.564 39.0407 221.784 38.8916 222.018C38.6829 222.345 38.2879 222.479 38.0808 222.801C38.039 222.865 37.9672 222.849 37.9162 222.798C37.6085 222.5 37.3017 222.202 36.9972 221.9C36.9299 221.832 36.9439 221.738 36.9423 221.652Z" fill="white"/>
<path d="M27.98 240.12V240.64H31.332V240.12H27.98ZM27.82 241.992V242.504H31.42V241.992H27.82ZM29.388 239.304V240.456H29.964V239.304H29.388ZM29.404 242.472V246.64H29.98V242.472H29.404ZM29.396 243.528C29.068 244.336 28.38 245.2 27.74 245.632C27.868 245.744 28.012 245.952 28.092 246.096C28.756 245.568 29.46 244.632 29.82 243.776L29.396 243.528ZM29.908 243.976L29.588 244.24C29.908 244.52 30.708 245.296 30.98 245.624L31.356 245.168C31.14 244.968 30.188 244.168 29.908 243.976ZM28.468 240.776C28.628 241.152 28.756 241.664 28.78 241.984L29.284 241.864C29.252 241.536 29.108 241.04 28.94 240.672L28.468 240.776ZM30.396 240.656C30.324 241.008 30.164 241.536 30.044 241.864L30.508 241.984C30.644 241.672 30.796 241.2 30.94 240.784L30.396 240.656ZM32.236 241.48H34.244V242.312H32.236V241.48ZM32.236 242.8H34.244V243.64H32.236V242.8ZM32.236 240.168H34.244V240.992H32.236V240.168ZM31.692 239.632V244.176H34.812V239.632H31.692ZM33.412 244V245.816C33.412 246.368 33.524 246.544 34.044 246.544C34.148 246.544 34.516 246.544 34.628 246.544C35.068 246.544 35.22 246.28 35.26 245.176C35.108 245.136 34.876 245.048 34.756 244.944C34.74 245.904 34.716 246.008 34.556 246.008C34.476 246.008 34.188 246.008 34.132 246.008C33.98 246.008 33.956 245.984 33.956 245.808V244H33.412ZM32.228 244.032C32.14 245.128 31.9 245.832 30.788 246.224C30.908 246.328 31.068 246.536 31.124 246.664C32.372 246.184 32.676 245.328 32.78 244.032H32.228ZM27.9 243.32V243.84H31.348V243.32H27.9ZM35.876 242.856V243.456H43.14V242.856H35.876ZM39.204 241.568V245.864C39.204 246.008 39.148 246.048 38.98 246.056C38.804 246.064 38.212 246.064 37.564 246.04C37.668 246.216 37.78 246.488 37.828 246.664C38.596 246.664 39.116 246.648 39.412 246.552C39.716 246.456 39.828 246.272 39.828 245.872V241.568H39.204ZM36.7 239.84V240.432H41.924V239.84H36.7ZM41.716 239.84V239.976C41.212 240.544 40.148 241.304 39.276 241.72C39.396 241.824 39.58 242.016 39.668 242.152C40.604 241.672 41.74 240.88 42.468 240.144L42.012 239.808L41.876 239.84H41.716ZM44.164 240.016V240.568H50.836V240.016H44.164ZM43.916 244.928V245.48H51.108V244.928H43.916ZM47.172 239.288V246.664H47.788V239.288H47.172ZM45.332 242.944H49.66V243.776H45.332V242.944ZM45.332 241.656H49.66V242.472H45.332V241.656ZM44.756 241.152V244.272H50.26V241.152H44.756ZM56.212 239.376V241.2H56.812V239.376H56.212ZM54.124 240.856V241.432H59.012V240.856H54.124ZM54.788 242.056C55.076 243.128 55.324 244.52 55.38 245.32L55.972 245.192C55.908 244.4 55.628 243.032 55.324 241.968L54.788 242.056ZM57.708 241.896C57.492 243.088 57.052 244.784 56.676 245.792L57.212 245.92C57.588 244.928 58.052 243.288 58.348 242.008L57.708 241.896ZM53.924 245.696V246.272H59.212V245.696H53.924ZM53.708 239.304C53.244 240.512 52.46 241.704 51.652 242.456C51.764 242.6 51.932 242.92 51.996 243.056C52.876 242.176 53.732 240.832 54.276 239.488L53.708 239.304ZM52.876 241.368V246.624H53.452V240.808L53.444 240.8L52.876 241.368Z" fill="black"/>
<path d="M94.916 233H76.8187C75.538 233 74.5 231.996 74.5 230.756V213.244C74.5 212.004 75.538 211 76.8187 211H94.916C96.1967 211 97.2347 212.004 97.2347 213.244V230.756C97.2347 231.996 96.1967 233 94.916 233Z" fill="#0480C9"/>
<path d="M86.2202 223.54C86.3701 223.54 86.5231 223.558 86.6708 223.537C87.3014 223.446 87.6616 223.719 87.9205 224.269C88.3302 225.138 88.8086 225.976 89.2515 226.83C89.4941 227.297 89.3001 227.767 88.831 227.875C88.4979 227.952 88.2034 227.807 88.011 227.448C87.6137 226.706 87.2149 225.966 86.84 225.214C86.7164 224.966 86.5811 224.853 86.2774 224.863C85.5516 224.888 84.8251 224.874 84.0986 224.867C83.3991 224.861 82.9833 224.46 82.9786 223.778C82.9717 222.736 82.9725 221.695 82.9771 220.653C82.9802 220.01 83.4099 219.567 84.0244 219.557C84.6264 219.547 85.0569 219.998 85.0655 220.653C85.0701 220.992 85.0832 221.333 85.0593 221.671C85.0369 221.982 85.1095 222.128 85.4782 222.095C85.8878 222.059 86.3036 222.083 86.7171 222.089C87.1129 222.094 87.3215 222.27 87.3223 222.582C87.3231 222.886 87.092 223.089 86.7249 223.095C86.3245 223.101 85.9226 223.08 85.523 223.105C85.3592 223.116 85.0523 222.935 85.0655 223.325C85.0786 223.704 85.3754 223.506 85.5431 223.531C85.7657 223.566 85.9952 223.541 86.2202 223.54Z" fill="white"/>
<path d="M82.2884 222.099C82.3843 222.403 82.1995 222.593 81.8912 222.788C80.9544 223.38 80.5355 224.482 80.8153 225.485C81.1144 226.556 82.0681 227.317 83.2028 227.391C84.2717 227.459 85.3097 226.815 85.7487 225.805C85.809 225.667 85.8522 225.545 86.0509 225.541C86.2487 225.537 86.2851 225.673 86.3739 225.79C86.6661 226.172 86.636 226.502 86.3423 226.894C85.4109 228.136 83.7469 228.701 82.2475 228.237C80.7202 227.765 79.6451 226.372 79.6892 224.837C79.7301 223.43 80.4049 222.37 81.708 221.709C82.2869 221.415 82.2892 221.419 82.2884 222.099Z" fill="white"/>
<path d="M88.2955 217.941C88.2955 217.215 88.2939 216.489 88.297 215.763C88.2978 215.653 88.2498 215.495 88.4531 215.5C89.3018 215.52 90.1597 215.405 90.9983 215.575C91.9489 215.767 92.3593 216.363 92.2782 217.327C92.214 218.092 91.6166 218.592 90.6721 218.656C90.3606 218.677 90.0461 218.677 89.7346 218.662C89.5097 218.651 89.4223 218.715 89.4324 218.944C89.4494 219.342 89.4308 219.742 89.4393 220.141C89.4432 220.318 89.4007 220.394 89.1928 220.404C88.2931 220.445 88.2931 220.453 88.2939 219.575C88.2939 219.03 88.2939 218.486 88.2939 217.941C88.2947 217.941 88.2955 217.941 88.2955 217.941ZM89.4378 217.074C89.4378 217.255 89.4386 217.436 89.4378 217.616C89.437 217.722 89.4548 217.813 89.5947 217.81C89.9178 217.804 90.2478 217.855 90.5624 217.771C90.8947 217.683 91.0841 217.46 91.0895 217.11C91.0964 216.666 90.8305 216.424 90.2632 216.366C89.437 216.281 89.437 216.281 89.4378 217.074Z" fill="white"/>
<path d="M85.2093 217.946C85.2116 218.576 84.6667 219.101 84.0159 219.096C83.3868 219.091 82.845 218.573 82.8326 217.965C82.8202 217.346 83.369 216.803 84.0159 216.793C84.6613 216.784 85.2069 217.311 85.2093 217.946Z" fill="white"/>
<path d="M93.2164 231.692H78.5183C77.0482 231.692 75.8518 230.534 75.8518 229.112V214.888C75.8518 213.466 77.0482 212.308 78.5183 212.308H93.2172C94.6873 212.308 95.8837 213.466 95.8837 214.888V229.112C95.8829 230.535 94.6873 231.692 93.2164 231.692ZM78.5183 212.981C77.4316 212.981 76.5474 213.837 76.5474 214.888V229.112C76.5474 230.164 77.4316 231.02 78.5183 231.02H93.2172C94.3039 231.02 95.1881 230.164 95.1881 229.112V214.888C95.1881 213.837 94.3039 212.981 93.2172 212.981H78.5183Z" fill="white"/>
<path d="M72.804 240.528L72.852 241.032L77.036 240.68L76.988 240.184L72.804 240.528ZM72.644 244.056L72.684 244.56L77.172 244.216L77.132 243.712L72.644 244.056ZM73.908 239.288C74.044 241.344 75.196 242.896 76.452 242.896C76.932 242.904 77.124 242.68 77.22 241.88C77.076 241.832 76.9 241.752 76.788 241.656C76.748 242.2 76.692 242.384 76.476 242.384C75.572 242.4 74.556 241.08 74.444 239.288H73.908ZM73.7 242.832C73.836 244.976 75.028 246.648 76.444 246.648C76.956 246.648 77.156 246.408 77.244 245.52C77.108 245.472 76.924 245.384 76.812 245.288C76.772 245.912 76.708 246.12 76.468 246.12C75.42 246.144 74.364 244.712 74.244 242.832H73.7ZM75.124 239.624C75.516 239.784 76.004 240.024 76.26 240.208L76.548 239.808C76.292 239.632 75.796 239.408 75.412 239.272L75.124 239.624ZM75.036 243.176C75.468 243.32 76.02 243.552 76.316 243.728L76.612 243.32C76.316 243.152 75.748 242.944 75.324 242.824L75.036 243.176ZM76.068 240.888C75.444 241.656 74.14 242.168 72.892 242.456C73.004 242.56 73.172 242.784 73.236 242.896C74.5 242.544 75.86 241.96 76.58 241.072L76.068 240.888ZM76.068 244.448C75.356 245.312 73.9 245.88 72.46 246.176C72.572 246.288 72.74 246.536 72.812 246.648C74.252 246.272 75.788 245.648 76.596 244.648L76.068 244.448ZM69.884 239.648V240.2H72.996V239.648H69.884ZM70.852 241.296V241.84H72.38V241.296H70.852ZM70.284 243.096C70.812 243.408 71.428 243.904 71.716 244.256L72.036 243.768C71.756 243.432 71.124 242.968 70.596 242.664L70.284 243.096ZM70.956 239.816C70.74 241.224 70.332 242.56 69.676 243.4C69.804 243.496 70.044 243.688 70.132 243.792C70.812 242.856 71.268 241.44 71.532 239.904L70.956 239.816ZM72.204 241.296V241.424C71.948 243.792 71.156 245.4 69.988 246.24C70.124 246.32 70.324 246.528 70.412 246.656C71.604 245.76 72.46 244.016 72.756 241.376L72.412 241.272L72.308 241.296H72.204ZM81.332 243.36H84.052V243.888H81.332V243.36ZM81.332 242.448H84.052V242.968H81.332V242.448ZM80.788 242.048V244.296H84.612V242.048H80.788ZM82.388 239.28V240.216H82.964V239.28H82.388ZM82.388 244.2V246.64H82.964V244.2H82.388ZM80.564 239.872V240.36H84.964V239.872H80.564ZM80.252 241.104V241.6H85.14V241.104H80.252ZM80.18 244.888V245.384H85.172V244.888H80.18ZM83.58 240.256C83.5 240.504 83.332 240.872 83.212 241.112L83.708 241.224C83.844 241.008 83.996 240.688 84.156 240.384L83.58 240.256ZM81.252 240.384C81.38 240.656 81.5 241.008 81.532 241.248L82.06 241.112C82.012 240.888 81.892 240.536 81.748 240.28L81.252 240.384ZM78.14 239.632V246.648H78.684V240.176H80.028V239.632H78.14ZM79.844 239.632V239.792C79.676 240.344 79.38 241.296 79.092 242.024C79.668 242.648 79.812 243.192 79.812 243.624C79.812 243.864 79.772 244.08 79.644 244.168C79.58 244.216 79.492 244.24 79.396 244.24C79.268 244.256 79.116 244.248 78.932 244.232C79.02 244.384 79.068 244.616 79.076 244.76C79.26 244.768 79.46 244.768 79.62 244.752C79.78 244.728 79.924 244.68 80.036 244.608C80.26 244.448 80.348 244.112 80.348 243.68C80.348 243.184 80.22 242.624 79.628 241.96C79.9 241.32 80.196 240.496 80.428 239.84L80.044 239.608L79.948 239.632H79.844ZM86.164 240.016V240.568H92.836V240.016H86.164ZM85.916 244.928V245.48H93.108V244.928H85.916ZM89.172 239.288V246.664H89.788V239.288H89.172ZM87.332 242.944H91.66V243.776H87.332V242.944ZM87.332 241.656H91.66V242.472H87.332V241.656ZM86.756 241.152V244.272H92.26V241.152H86.756ZM98.212 239.376V241.2H98.812V239.376H98.212ZM96.124 240.856V241.432H101.012V240.856H96.124ZM96.788 242.056C97.076 243.128 97.324 244.52 97.38 245.32L97.972 245.192C97.908 244.4 97.628 243.032 97.324 241.968L96.788 242.056ZM99.708 241.896C99.492 243.088 99.052 244.784 98.676 245.792L99.212 245.92C99.588 244.928 100.052 243.288 100.348 242.008L99.708 241.896ZM95.924 245.696V246.272H101.212V245.696H95.924ZM95.708 239.304C95.244 240.512 94.46 241.704 93.652 242.456C93.764 242.6 93.932 242.92 93.996 243.056C94.876 242.176 95.732 240.832 96.276 239.488L95.708 239.304ZM94.876 241.368V246.624H95.452V240.808L95.444 240.8L94.876 241.368Z" fill="black"/>
<path d="M36.89 194.69V195.38H41.62V194.69H36.89ZM36.3 196.65V197.35H42.08V196.65H36.3ZM36.47 198.55V199.25H42.02V198.55H36.47ZM38.86 193.6V197.02H39.6V193.6H38.86ZM40.1 197.25V201.87C40.1 202.02 40.06 202.05 39.9 202.06C39.72 202.07 39.17 202.07 38.57 202.05C38.68 202.27 38.78 202.59 38.81 202.8C39.58 202.8 40.11 202.79 40.43 202.67C40.75 202.55 40.85 202.33 40.85 201.88V197.25H40.1ZM36.99 199.88C37.48 200.37 38.02 201.06 38.24 201.53L38.85 201.14C38.6 200.67 38.05 200.01 37.56 199.54L36.99 199.88ZM32.85 199.04L33.05 199.77C34.06 199.45 35.41 199.03 36.68 198.62L36.58 197.97C35.22 198.38 33.79 198.8 32.85 199.04ZM34.72 193.61V202.8H35.42V193.61H34.72ZM33.48 194.14C33.36 195.37 33.16 196.64 32.78 197.49C32.94 197.56 33.23 197.73 33.35 197.82C33.73 196.93 33.98 195.58 34.13 194.25L33.48 194.14ZM33.54 195.63L33.42 196.35H36.45V195.63H33.54ZM46.55 197.9V198.59H52.01V197.9H46.55ZM47.56 195.46V196.15H51.63V195.46H47.56ZM48.77 198.18C48.17 199.51 47 200.83 45.84 201.47C46 201.61 46.23 201.87 46.35 202.05C47.53 201.3 48.71 199.88 49.36 198.38L48.77 198.18ZM49.85 198.16L49.33 198.33C49.85 199.72 50.81 201.15 51.76 201.91C51.88 201.73 52.11 201.47 52.28 201.33C51.33 200.69 50.36 199.4 49.85 198.16ZM47.52 194.11C47.32 195.3 46.96 196.44 46.37 197.18C46.55 197.27 46.85 197.46 46.99 197.56C47.55 196.76 47.97 195.53 48.21 194.23L47.52 194.11ZM48.94 193.66V202.85H49.65V193.66H48.94ZM42.98 194.06V194.75H46.87V194.06H42.98ZM44.19 196.12V196.8H46.1V196.12H44.19ZM43.48 198.37C44.14 198.76 44.91 199.38 45.27 199.82L45.67 199.21C45.32 198.79 44.53 198.21 43.87 197.83L43.48 198.37ZM44.32 194.27C44.05 196.03 43.54 197.7 42.72 198.75C42.88 198.87 43.18 199.11 43.29 199.24C44.14 198.07 44.71 196.3 45.04 194.38L44.32 194.27ZM45.84 196.12V196.28C45.51 199.23 44.5 201.23 43.04 202.28C43.21 202.39 43.46 202.64 43.57 202.81C45.06 201.68 46.14 199.51 46.54 196.23L46.1 196.09L45.98 196.12H45.84ZM53.33 194.52V195.21H61.67V194.52H53.33ZM53.02 200.66V201.35H62.01V200.66H53.02ZM57.09 193.61V202.83H57.86V193.61H57.09ZM54.79 198.18H60.2V199.22H54.79V198.18ZM54.79 196.57H60.2V197.59H54.79V196.57ZM54.07 195.94V199.84H60.95V195.94H54.07ZM68.39 193.72V196H69.14V193.72H68.39ZM65.78 195.57V196.29H71.89V195.57H65.78ZM66.61 197.07C66.97 198.41 67.28 200.15 67.35 201.15L68.09 200.99C68.01 200 67.66 198.29 67.28 196.96L66.61 197.07ZM70.26 196.87C69.99 198.36 69.44 200.48 68.97 201.74L69.64 201.9C70.11 200.66 70.69 198.61 71.06 197.01L70.26 196.87ZM65.53 201.62V202.34H72.14V201.62H65.53ZM65.26 193.63C64.68 195.14 63.7 196.63 62.69 197.57C62.83 197.75 63.04 198.15 63.12 198.32C64.22 197.22 65.29 195.54 65.97 193.86L65.26 193.63ZM64.22 196.21V202.78H64.94V195.51L64.93 195.5L64.22 196.21ZM76.12 195.57H78.83V196.23H76.12V195.57ZM75.5 195.12V196.68H79.48V195.12H75.5ZM75.77 198.51H79.18V200.74H75.77V198.51ZM75.17 198.04V201.22H79.81V198.04H75.17ZM76.88 199.33H78.05V199.92H76.88V199.33ZM76.41 198.94V200.32H78.54V198.94H76.41ZM74.49 197.14V197.61H80.52V197.14H74.49ZM77.13 196.38V197.35H77.79V196.38H77.13ZM73.32 194.01V202.79H74.03V194.65H80.96V202.79H81.7V194.01H73.32ZM73.76 201.76V202.4H81.35V201.76H73.76ZM87.1 197.17V201.81C87.1 201.97 87.05 202.02 86.86 202.02C86.67 202.03 86.01 202.03 85.33 202.01C85.45 202.24 85.57 202.57 85.61 202.79C86.49 202.79 87.08 202.78 87.44 202.67C87.79 202.54 87.91 202.31 87.91 201.83V197.17H87.1ZM84.83 198.5C84.4 199.63 83.66 200.73 82.84 201.44C83.04 201.55 83.38 201.76 83.53 201.9C84.33 201.13 85.12 199.93 85.61 198.7L84.83 198.5ZM89.33 198.8C90.06 199.76 90.81 201.07 91.08 201.9L91.83 201.57C91.54 200.72 90.76 199.45 90.02 198.51L89.33 198.8ZM83.99 194.35V195.09H91.02V194.35H83.99ZM83.09 196.77V197.52H91.91V196.77H83.09Z" fill="black"/>
<defs>
<clipPath id="clip0_10_3830">
<rect width="19" height="24" fill="white" transform="translate(8.5 109)"/>
</clipPath>
<clipPath id="clip1_10_3830">
<rect width="19" height="24" fill="white" transform="translate(54.5 109)"/>
</clipPath>
<clipPath id="clip2_10_3830">
<rect width="19" height="24" fill="white" transform="translate(101.5 109)"/>
</clipPath>
</defs>
</svg>
