<svg width="247" height="251" viewBox="0 0 247 251" fill="none" xmlns="http://www.w3.org/2000/svg">
<g clip-path="url(#clip0_11_4381)">
<path d="M185.567 135.187V145.329H152.257L139.986 157.606H198.035L210.326 145.329L200.173 135.187H185.567Z" fill="#F1F2F2"/>
<path d="M174.087 112.867L164.291 122.653L172.564 130.917H201.954L213.354 142.305L225.11 130.561V94.1053H207.476V75.4226H180.361V88.708L174.087 94.9949V112.867Z" fill="#F1F2F2"/>
<path d="M134.049 157.488L150.496 141.059H181.292V135.187H170.802L152.099 116.505H126.271V148.512C126.271 153.099 129.655 156.855 134.049 157.488Z" fill="#F1F2F2"/>
<path d="M229.366 113.836V132.321L204.072 157.587H237.916C242.923 157.587 247 153.534 247 148.512V113.836H229.366Z" fill="#F1F2F2"/>
<path d="M153.86 112.254L161.262 119.648L169.812 111.108V93.2356L176.086 86.9685V75.4426H135.355C130.348 75.4426 126.271 79.4955 126.271 84.5171V112.274H153.86V112.254Z" fill="#F1F2F2"/>
<path d="M211.751 89.8349H229.385V109.585H247.02V84.497C247.02 79.4952 242.962 75.4226 237.935 75.4226H211.751V89.8349Z" fill="#F1F2F2"/>
<path d="M46.9656 89.3013L45.6791 113.322H69.3104L65.4312 96.1615L46.9656 89.3013Z" fill="url(#paint0_linear_11_4381)"/>
<path d="M41.1469 72.1408C42.9479 65.6563 48.2125 60.3579 54.6844 58.5391C67.4698 54.9409 79.1271 63.62 80.5521 75.4424C80.6114 75.5808 80.6708 75.6994 80.7104 75.8576C80.7104 75.8576 81.8583 89.7955 81.126 101.104C80.7698 106.501 75.8417 110.534 70.4979 109.664C67.1333 109.111 63.175 107.845 58.8604 105.75C54.0114 103.397 50.8448 98.6722 48.8458 94.2635C42.275 89.6373 38.6333 81.1955 41.1469 72.1408Z" fill="url(#paint1_linear_11_4381)"/>
<path d="M42.9281 107.411C42.9281 107.411 71.7844 111.523 74.951 114.113C76.2969 116.169 77.7812 128.426 77.7812 128.426L38.4156 119.273L42.9281 107.411Z" fill="#F1F2F2"/>
<path d="M36.8125 86.1381C39.3854 94.7183 44.2542 101.005 45.976 103.002C47.6979 104.999 51.1219 104.149 53.1406 105.295C55.1396 106.442 60.0083 104.149 62.5812 100.432C65.1542 96.7151 66.876 91.2783 66.876 88.1349C66.876 86.9091 66.2625 85.2287 65.5302 83.3703C65.9854 82.0852 66.7177 80.8397 67.7271 80.9781C69.726 81.2549 70.3 83.8448 71.725 86.4149C73.15 88.985 72.2989 92.425 72.2989 92.425H74.8719C74.8719 92.425 75.1489 88.4314 74.8719 85.8415C74.5948 83.2714 73.15 80.9781 70.0031 76.688C68.875 75.146 68.1229 73.7621 67.6083 72.6154C69.4885 72.991 71.2896 73.1888 72.8531 73.0108C74.1594 72.8527 75.426 72.5759 76.5937 72.1805C76.8708 72.1409 77.1281 72.1409 77.4052 72.0816C86.0344 70.2232 85.3219 64.1934 84.6094 59.5474C83.9166 54.8817 76.9896 53.5176 73.7239 54.684C71.9427 55.3167 71.8635 55.2376 68.8552 54.684C62.2844 52.193 55.8521 51.2836 49.776 54.5061C44.8281 57.1355 42.275 60.3778 40.9687 63.1654C40.9687 63.1654 31.6073 64.8063 32.5969 74.0389C33.5864 83.2715 36.8125 86.1381 36.8125 86.1381Z" fill="url(#paint2_linear_11_4381)"/>
<path d="M106.004 239.138C105.984 206.023 102.382 158.674 90.3094 137.758C68.2615 103.496 31.7656 121.012 31.7656 121.012C14.8833 126.904 -1.38542 194.063 0.0989532 239.138H106.004Z" fill="#FEBC2F"/>
<path d="M50.8052 154.028C50.8052 154.028 63.6896 208.514 105.351 217.589C147.012 226.663 165.953 167.65 136.404 137.382C136.404 137.382 135.652 130.581 132.624 131.332C129.596 132.084 128.072 140.407 128.844 143.432C129.596 146.456 134.9 169.152 125.816 175.973C116.731 182.774 100.819 169.172 90.9625 155.551L50.8052 154.028Z" fill="url(#paint3_linear_11_4381)"/>
<path d="M129.497 152.387L127.755 144.974C127.755 144.974 136.919 140.031 142.104 141.257L145.33 147.682L129.497 152.387Z" fill="#F1F2F2"/>
<path d="M44.1354 142.759C44.1354 142.759 45.125 211.954 104.995 222.334C181.193 217.391 144.578 144.736 144.578 144.736L127.755 148.196C127.755 148.196 130.229 169.943 114.891 171.92C99.5521 173.897 93.6146 138.311 78.276 131.392C62.9375 124.472 49.0833 119.53 44.1354 142.759Z" fill="#FEBC2F"/>
<path d="M126.35 142.542L116.771 139.576C115.564 139.201 114.891 137.936 115.267 136.73L121.046 118.106C121.422 116.9 122.689 116.228 123.896 116.604L133.475 119.569C134.682 119.945 135.355 121.21 134.979 122.416L129.2 141.039C128.824 142.245 127.537 142.918 126.35 142.542Z" fill="#254DA1"/>
<path d="M126.429 139.517L118.414 137.026C117.642 136.789 117.206 135.978 117.444 135.207L122.313 119.549C122.55 118.778 123.361 118.343 124.133 118.581L132.149 121.072C132.921 121.309 133.356 122.119 133.119 122.891L128.25 138.548C128.013 139.319 127.201 139.754 126.429 139.517Z" fill="#A9EAFF"/>
<path d="M173.039 133.112L187.13 119.035H199.995L208.169 110.87V89.3804" stroke="#254DA1" stroke-miterlimit="10"/>
<path d="M220.44 70.836C220.44 63.9758 214.878 58.4402 208.03 58.4402C201.162 58.4402 195.621 63.9956 195.621 70.836C195.621 70.836 193.939 83.4295 207.179 93.7692C207.674 94.1646 208.406 94.1646 208.901 93.7692C222.122 83.4492 220.44 70.836 220.44 70.836Z" fill="url(#paint4_linear_11_4381)"/>
<path d="M208.545 77.2415C204.586 77.5578 201.301 74.276 201.618 70.322C201.855 67.2181 204.389 64.6876 207.496 64.4503C211.454 64.134 214.74 67.4158 214.423 71.3698C214.185 74.4737 211.652 77.0043 208.545 77.2415Z" fill="white"/>
<path d="M172.662 138.193C175.264 138.193 177.373 136.086 177.373 133.487C177.373 130.889 175.264 128.782 172.662 128.782C170.061 128.782 167.952 130.889 167.952 133.487C167.952 136.086 170.061 138.193 172.662 138.193Z" fill="url(#paint5_linear_11_4381)"/>
<path d="M59.276 15.8161C52.7052 1.99686 36.1792 -3.87484 22.3646 2.68881C8.53021 9.23268 2.63229 25.7406 9.20313 39.5599C15.1406 52.0743 29.2719 58.0646 42.1562 54.2292L49.776 59.4683L50.5281 50.0775C61.1167 42.4067 65.075 28.0537 59.276 15.8161Z" fill="#0069B4"/>
<path d="M33.5073 40.0146L22.7406 32.1461L26.4615 27.0652L32.3 31.3356L43.9573 16.5081L48.9052 20.383L33.5073 40.0146Z" fill="white"/>
<path d="M239.736 179.828H165.854C164.211 179.828 162.885 178.503 162.885 176.862C162.885 175.222 164.211 173.897 165.854 173.897H239.736C241.379 173.897 242.705 175.222 242.705 176.862C242.705 178.484 241.379 179.828 239.736 179.828Z" fill="#F1F2F2"/>
<path d="M217.075 179.828H165.854C164.211 179.828 162.885 178.503 162.885 176.862C162.885 175.222 164.211 173.897 165.854 173.897H217.075V179.828Z" fill="#0069B4"/>
<path d="M216.818 184.276C215.314 184.276 214.086 183.05 214.086 181.548V171.169C214.086 169.666 215.314 168.44 216.818 168.44C218.322 168.44 219.549 169.666 219.549 171.169V181.548C219.549 183.05 218.322 184.276 216.818 184.276Z" fill="#FEBC2F"/>
<path d="M202.053 184.988V185.561C203.439 185.621 204.765 186.135 204.765 186.649C204.765 187.044 204.309 187.934 203.973 187.934C203.735 187.934 203.181 187.459 202.033 187.42V190.524C203.498 191.117 205.279 191.809 205.279 194.082C205.279 196.395 203.815 197.522 202.033 197.7V198.491C202.033 198.807 201.895 198.926 201.618 198.926C201.301 198.926 201.162 198.807 201.162 198.491V197.72C198.966 197.66 197.6 196.85 197.6 196.316C197.6 195.881 198.194 194.992 198.491 194.992C198.768 194.992 199.698 195.822 201.162 195.842V192.441C199.658 191.868 197.837 191.235 197.837 188.883C197.837 186.846 199.322 185.779 201.162 185.561V184.968C201.162 184.652 201.301 184.533 201.598 184.533C201.915 184.573 202.053 184.691 202.053 184.988ZM200.034 188.784C200.034 189.456 200.509 189.851 201.182 190.168V187.518C200.351 187.716 200.034 188.21 200.034 188.784ZM202.053 195.743C202.686 195.565 203.142 195.051 203.142 194.3C203.142 193.608 202.686 193.173 202.053 192.856V195.743Z" fill="#0069B4"/>
<path d="M193.642 251H72.2396C67.8656 251 64.3229 247.461 64.3229 243.092V221.345C64.3229 216.976 67.8656 213.437 72.2396 213.437H193.622C197.996 213.437 201.539 216.976 201.539 221.345V243.092C201.558 247.461 198.016 251 193.642 251Z" fill="#0069B4"/>
<path d="M82.2146 238.763L77.4844 241.234C76.9104 241.531 76.2573 241.056 76.3562 240.423L77.2667 235.165C77.3062 234.908 77.2271 234.651 77.0489 234.473L73.2292 230.776C72.7739 230.321 73.0312 229.55 73.6646 229.451L78.9489 228.68C79.2062 228.641 79.4239 228.482 79.5229 228.265L81.8781 223.481C82.1552 222.907 82.9864 222.907 83.2635 223.481L85.6187 228.265C85.7375 228.482 85.9552 228.641 86.1927 228.68L91.4771 229.451C92.1104 229.55 92.3677 230.321 91.9125 230.776L88.0927 234.492C87.9146 234.67 87.8354 234.927 87.875 235.184L88.7854 240.443C88.8844 241.076 88.2312 241.55 87.6573 241.254L82.9271 238.783C82.7094 238.644 82.4323 238.644 82.2146 238.763Z" fill="white"/>
<path d="M106.895 238.762L102.165 241.234C101.591 241.53 100.937 241.056 101.036 240.423L101.947 235.164C101.986 234.907 101.907 234.65 101.729 234.472L97.9094 230.756C97.4542 230.301 97.7114 229.53 98.3448 229.431L103.629 228.66C103.886 228.62 104.104 228.462 104.203 228.245L106.558 223.461C106.835 222.887 107.667 222.887 107.944 223.461L110.299 228.245C110.418 228.462 110.635 228.62 110.873 228.66L116.157 229.431C116.791 229.53 117.048 230.301 116.593 230.756L112.773 234.472C112.595 234.65 112.516 234.907 112.555 235.164L113.466 240.423C113.565 241.056 112.911 241.53 112.337 241.234L107.607 238.762C107.39 238.644 107.132 238.644 106.895 238.762Z" fill="white"/>
<path d="M131.595 238.762L126.865 241.234C126.291 241.53 125.637 241.056 125.736 240.423L126.647 235.164C126.686 234.907 126.607 234.65 126.429 234.472L122.609 230.756C122.154 230.301 122.411 229.53 123.045 229.431L128.329 228.66C128.586 228.62 128.804 228.462 128.903 228.245L131.258 223.461C131.535 222.887 132.367 222.887 132.644 223.461L134.999 228.245C135.118 228.462 135.335 228.62 135.573 228.66L140.857 229.431C141.491 229.53 141.748 230.301 141.293 230.756L137.473 234.472C137.295 234.65 137.216 234.907 137.255 235.164L138.166 240.423C138.265 241.056 137.611 241.53 137.037 241.234L132.307 238.762C132.09 238.644 131.812 238.644 131.595 238.762Z" fill="white"/>
<path d="M156.295 238.762L151.565 241.234C150.991 241.53 150.337 241.056 150.436 240.423L151.347 235.164C151.386 234.907 151.307 234.65 151.129 234.472L147.309 230.756C146.854 230.301 147.111 229.53 147.745 229.431L153.029 228.66C153.286 228.62 153.504 228.462 153.603 228.245L155.958 223.461C156.235 222.887 157.067 222.887 157.344 223.461L159.699 228.245C159.818 228.462 160.035 228.62 160.273 228.66L165.557 229.431C166.191 229.53 166.448 230.301 165.993 230.756L162.173 234.472C161.995 234.65 161.916 234.907 161.955 235.164L162.866 240.423C162.965 241.056 162.311 241.53 161.737 241.234L157.007 238.762C156.79 238.644 156.512 238.644 156.295 238.762Z" fill="white"/>
<path d="M180.975 238.762L176.245 241.234C175.671 241.53 175.018 241.056 175.117 240.423L176.027 235.164C176.067 234.907 175.987 234.65 175.809 234.472L171.99 230.756C171.534 230.301 171.792 229.53 172.425 229.431L177.709 228.66C177.967 228.62 178.184 228.462 178.283 228.245L180.639 223.461C180.916 222.887 181.747 222.887 182.024 223.461L184.379 228.245C184.498 228.462 184.716 228.62 184.953 228.66L190.237 229.431C190.871 229.53 191.128 230.301 190.673 230.756L186.853 234.472C186.675 234.65 186.596 234.907 186.635 235.164L187.546 240.423C187.645 241.056 186.992 241.53 186.418 241.234L181.687 238.762C181.47 238.644 181.212 238.644 180.975 238.762Z" fill="white"/>
<path d="M13.7948 96.1219C18.167 96.1219 21.7114 92.5814 21.7114 88.2139C21.7114 83.8464 18.167 80.3059 13.7948 80.3059C9.42252 80.3059 5.87811 83.8464 5.87811 88.2139C5.87811 92.5814 9.42252 96.1219 13.7948 96.1219Z" fill="#FEBC2F"/>
<path d="M218.302 215.75C220.401 215.75 222.102 214.051 222.102 211.954C222.102 209.858 220.401 208.158 218.302 208.158C216.203 208.158 214.502 209.858 214.502 211.954C214.502 214.051 216.203 215.75 218.302 215.75Z" fill="#FEBC2F"/>
<path d="M210.88 227.77C211.7 227.77 212.365 227.107 212.365 226.288C212.365 225.469 211.7 224.805 210.88 224.805C210.06 224.805 209.396 225.469 209.396 226.288C209.396 227.107 210.06 227.77 210.88 227.77Z" fill="#0069B4"/>
<path d="M21.0385 112.61C23.2247 112.61 24.9969 110.84 24.9969 108.656C24.9969 106.472 23.2247 104.702 21.0385 104.702C18.8524 104.702 17.0802 106.472 17.0802 108.656C17.0802 110.84 18.8524 112.61 21.0385 112.61Z" fill="#0069B4"/>
</g>
<defs>
<linearGradient id="paint0_linear_11_4381" x1="39.8495" y1="122.575" x2="61.8376" y2="96.9443" gradientUnits="userSpaceOnUse">
<stop stop-color="#FCC198"/>
<stop offset="0.2137" stop-color="#FBBD97"/>
<stop offset="0.4237" stop-color="#F8B192"/>
<stop offset="0.6322" stop-color="#F39E8B"/>
<stop offset="0.8387" stop-color="#ED8280"/>
<stop offset="1" stop-color="#E66776"/>
</linearGradient>
<linearGradient id="paint1_linear_11_4381" x1="76.8396" y1="72.4791" x2="44.1259" y2="101.408" gradientUnits="userSpaceOnUse">
<stop stop-color="#FCC198"/>
<stop offset="0.2137" stop-color="#FBBD97"/>
<stop offset="0.4237" stop-color="#F8B192"/>
<stop offset="0.6322" stop-color="#F39E8B"/>
<stop offset="0.8387" stop-color="#ED8280"/>
<stop offset="1" stop-color="#E66776"/>
</linearGradient>
<linearGradient id="paint2_linear_11_4381" x1="80.3688" y1="17.7843" x2="42.8347" y2="107.767" gradientUnits="userSpaceOnUse">
<stop stop-color="#FF7D49"/>
<stop offset="0.1964" stop-color="#FB7747"/>
<stop offset="0.466" stop-color="#F26541"/>
<stop offset="0.7763" stop-color="#E14837"/>
<stop offset="1" stop-color="#D32F2F"/>
</linearGradient>
<linearGradient id="paint3_linear_11_4381" x1="109.14" y1="141.113" x2="82.6802" y2="226.633" gradientUnits="userSpaceOnUse">
<stop stop-color="#FCC198"/>
<stop offset="0.2145" stop-color="#FBBD96"/>
<stop offset="0.4156" stop-color="#F8B292"/>
<stop offset="0.537" stop-color="#F6A98F"/>
<stop offset="0.7334" stop-color="#F09186"/>
<stop offset="0.979" stop-color="#E76B77"/>
<stop offset="1" stop-color="#E66776"/>
</linearGradient>
<linearGradient id="paint4_linear_11_4381" x1="196.528" y1="40.9038" x2="222.978" y2="113.877" gradientUnits="userSpaceOnUse">
<stop stop-color="#FF7D49"/>
<stop offset="0.1964" stop-color="#FB7747"/>
<stop offset="0.466" stop-color="#F26541"/>
<stop offset="0.7763" stop-color="#E14837"/>
<stop offset="1" stop-color="#D32F2F"/>
</linearGradient>
<linearGradient id="paint5_linear_11_4381" x1="156.867" y1="110.162" x2="190.957" y2="160.61" gradientUnits="userSpaceOnUse">
<stop stop-color="#FF7D49"/>
<stop offset="0.1964" stop-color="#FB7747"/>
<stop offset="0.466" stop-color="#F26541"/>
<stop offset="0.7763" stop-color="#E14837"/>
<stop offset="1" stop-color="#D32F2F"/>
</linearGradient>
<clipPath id="clip0_11_4381">
<rect width="247" height="251" fill="white"/>
</clipPath>
</defs>
</svg>
